<svg width="350" height="105" viewBox="0 0 350 105" fill="none" xmlns="http://www.w3.org/2000/svg">
<path d="M125.577 68.1984L113.862 67.9493L113.993 62.1155C114.177 53.5811 114.283 49.2156 114.362 47.5375C114.375 47.1836 114.414 46.3314 114.362 45.1778C114.335 44.601 114.283 44.011 114.217 43.4342C113.993 41.4415 113.809 39.8553 112.981 38.2034C111.955 36.1452 110.443 34.9916 109.628 34.3623C108.839 33.7592 106.762 32.1599 103.659 31.7797C99.8987 31.3209 96.9142 32.9727 95.7966 33.6937C94.4292 34.5852 92.549 36.2108 91.3789 38.8589C90.8003 40.183 89.9194 42.8836 90.6426 46.0823C91.2474 48.7436 92.6805 50.461 93.4562 51.3918C94.061 52.1259 95.7703 53.935 98.413 55.1411C99.2019 55.5082 100.057 55.7966 100.924 56.0064C102.213 56.321 103.528 56.4652 104.856 56.4128L110.706 56.2292L111.075 67.8969L105.224 68.0804C102.831 68.159 100.438 67.91 98.1238 67.3331C96.546 66.9398 95.0077 66.4155 93.5483 65.7469C88.8807 63.6231 85.8567 60.5161 84.463 58.8512C83.3717 57.5402 80.4529 54.053 79.2301 48.6387C77.7707 42.1757 79.5062 36.7876 80.6764 34.1525C83.0036 28.8825 86.6982 25.6837 89.3935 23.927C92.1151 22.1572 97.7688 19.2993 105.079 20.1907C111.364 20.9511 115.453 24.0843 116.781 25.1069C118.004 26.0377 121.238 28.5285 123.46 32.9858C125.209 36.473 125.564 39.5931 125.853 42.097C125.945 42.936 126.024 43.8013 126.05 44.6534C126.129 46.3314 126.063 47.6162 126.05 48.0357C125.958 50.0546 125.813 56.7536 125.682 62.3646L125.577 68.1984Z" fill="#D2ECDF"/>
<path d="M0.5 67.3725V21.2526H12.8854L13.0563 25.6181C14.4895 23.5075 16.2644 21.9474 18.3813 20.9511C20.4981 19.9548 22.9699 19.4566 25.7704 19.4566C28.9259 19.4566 31.7528 20.1907 34.2772 21.6459C36.8016 23.1011 38.6949 25.12 39.9571 27.6895C40.3515 26.9422 40.8117 26.2605 41.3376 25.6312C41.8504 25.002 42.4158 24.3989 43.0074 23.8352C43.6122 23.2715 44.2696 22.7471 44.9796 22.2883C45.6896 21.8294 46.439 21.4361 47.2148 21.0953C47.9905 20.7544 48.7794 20.4529 49.5814 20.1907C50.3834 19.9285 51.2118 19.745 52.0795 19.627C52.9341 19.509 53.8282 19.4566 54.7486 19.4566C58.0093 19.4566 60.9413 20.2563 63.5183 21.8557C66.0953 23.455 68.1069 25.6968 69.54 28.5809C70.9732 31.4651 71.6832 34.7425 71.6832 38.4001V67.3725H58.5352L58.3511 41.0613C58.3511 38.3739 57.6806 36.3156 56.3263 34.8867C54.9852 33.4577 53.0788 32.7105 50.607 32.658C45.4529 32.658 42.8759 35.4635 42.8759 41.0613V67.3725L29.1232 67.202V41.0613C29.1232 38.2034 28.4921 36.0928 27.2298 34.7163C25.9676 33.3397 24.1006 32.658 21.642 32.658C20.3797 32.658 19.249 32.8285 18.2498 33.1693C17.2505 33.5102 16.3828 34.0083 15.6728 34.6638C14.9496 35.3193 14.3974 36.1976 14.003 37.2726C13.5954 38.3607 13.3982 39.6193 13.3982 41.0482V67.3725H0.5Z" fill="#D2ECDF"/>
<path d="M201.23 21.3444V25.8934C201.861 25.1462 202.506 24.4776 203.163 23.8745C203.82 23.2715 204.504 22.7471 205.227 22.2883C205.937 21.8294 206.687 21.4361 207.462 21.0953C208.238 20.7544 209.04 20.466 209.868 20.2432C210.697 20.0203 211.565 19.8499 212.445 19.7319C213.34 19.6139 214.26 19.5615 215.233 19.5615C220.163 19.5615 224.16 21.3444 227.224 24.9233C230.287 28.4892 231.826 33.0513 231.826 38.5967V67.2282H218.323V41.0613C218.323 38.3214 217.626 36.2108 216.219 34.7162C214.812 33.2349 212.853 32.4876 210.329 32.4876C209.066 32.4876 207.909 32.6711 206.844 33.0382C205.779 33.4053 204.859 33.969 204.057 34.7162C203.255 35.4635 202.637 36.4074 202.203 37.5479C201.769 38.6885 201.559 39.9732 201.559 41.4022V67.202H188.24V21.174L201.23 21.3444Z" fill="#D2ECDF"/>
<path d="M243.672 16.0219C242.646 15.6286 241.752 15.0649 241.003 14.3438C240.253 13.6359 239.688 12.7707 239.28 11.7743C238.873 10.778 238.676 9.67678 238.676 8.47069C238.676 6.12405 239.451 4.21004 241.003 2.72865C242.554 1.24725 244.553 0.5 247.025 0.5C247.998 0.5 248.918 0.631097 249.773 0.880181C250.627 1.14237 251.403 1.50945 252.1 1.9945C252.783 2.47956 253.388 3.04328 253.901 3.67254C254.414 4.30181 254.808 5.03595 255.058 5.86186C255.321 6.68777 255.439 7.56612 255.439 8.47069C255.439 10.8698 254.65 12.8231 253.073 14.3438C251.495 15.8645 249.47 16.6118 247.011 16.6118C245.815 16.6249 244.697 16.4283 243.672 16.0219ZM253.98 20.9118V67.202H240.135V20.9118H253.98Z" fill="#D2ECDF"/>
<path d="M283.103 21.5935L295.225 21.423L295.133 34.4541L283.694 34.5458V67.202H270.625L270.533 34.808H262.026V21.9474L270.283 21.777V17.831C270.283 12.7969 272.532 8.79842 277.028 5.83563C281.525 2.85974 287.468 1.83718 294.87 2.75486L294.778 14.6716C287.047 14.6716 283.168 16.4151 283.168 19.9023L283.103 21.5935Z" fill="#D2ECDF"/>
<path d="M331.619 73.8749C331.106 73.9666 330.422 73.8617 329.594 73.5733C328.766 73.2849 327.872 72.8785 326.925 72.3279C325.978 71.7904 324.966 71.0694 323.875 70.191C322.783 69.2996 321.758 68.3164 320.785 67.2283L300.76 22.2227H315.802L327.148 48.796L336.089 22.4849L349.5 22.6554L332.565 73.2325C332.447 73.5733 332.132 73.7831 331.619 73.8749ZM341.927 45.0336L326.964 90.0391L312.607 90.2095L328.766 44.011L341.927 45.0336Z" fill="#D2ECDF"/>
<path d="M172.844 66.2188C172.042 65.0652 171.227 64.095 170.477 63.2822C176.473 58.9954 180.391 51.9948 180.391 44.0635C180.391 31.0193 169.767 20.4267 156.685 20.4267C143.589 20.4267 132.979 31.0193 132.979 44.0635C132.979 56.4128 142.446 66.5203 154.542 67.6084C156.185 67.8575 159.63 68.7096 162.338 71.7904C164.85 74.6483 165.297 77.7946 165.402 78.8041C165.757 82.2519 164.587 84.8345 164.087 85.8309C162.352 89.2263 159.604 90.7994 158.604 91.3107C157.605 91.822 155.107 92.9494 151.807 92.6872C151.097 92.6217 148.546 92.3595 145.904 90.6552C145.009 90.0915 144.313 89.4754 143.839 89.0165C141.065 91.7827 138.278 94.5357 135.49 97.3149C136.753 98.4293 137.384 98.993 137.384 98.993C137.384 98.993 144.142 103.765 151.413 104.42C155.607 104.801 158.907 103.726 160.564 103.162C162.825 102.388 168.005 100.265 172.107 94.9814C173.067 93.736 177.866 87.3123 177.156 78.2535C177.077 76.9687 176.551 71.6069 172.844 66.2188ZM145.667 44.0635C145.667 38.0199 150.61 33.0775 156.672 33.0775C162.733 33.0775 167.677 38.0068 167.677 44.0635C167.677 50.1201 162.733 55.0363 156.672 55.0363C150.61 55.0494 145.667 50.1201 145.667 44.0635Z" fill="#D2ECDF"/>
<path d="M169.688 21.3706C174.04 21.3837 178.392 21.3968 182.744 21.4099C182.718 25.841 182.692 30.2721 182.652 34.7031C181.85 32.7367 180.259 29.551 177.156 26.4834C174.421 23.7697 171.582 22.2227 169.688 21.3706Z" fill="#D2ECDF"/>
<path d="M115.768 21.3706C120.12 21.3837 124.472 21.3968 128.824 21.4099C128.798 25.841 128.772 30.2721 128.732 34.7031C127.93 32.7367 126.339 29.551 123.236 26.4834C120.502 23.7697 117.662 22.2227 115.768 21.3706Z" fill="#D2ECDF"/>
</svg>
