<svg width="349" height="104" viewBox="0 0 349 104" fill="none" xmlns="http://www.w3.org/2000/svg">
<g clip-path="url(#clip0_194_51)">
<path d="M125.077 67.6984L113.362 67.4493L113.493 61.6155C113.677 53.0811 113.783 48.7156 113.862 47.0375C113.875 46.6836 113.914 45.8314 113.862 44.6778C113.835 44.101 113.783 43.511 113.717 42.9342C113.493 40.9415 113.309 39.3553 112.481 37.7034C111.455 35.6452 109.943 34.4916 109.128 33.8623C108.339 33.2592 106.262 31.6599 103.159 31.2797C99.3987 30.8209 96.4142 32.4727 95.2966 33.1937C93.9292 34.0852 92.049 35.7108 90.8789 38.3589C90.3003 39.683 89.4194 42.3836 90.1426 45.5823C90.7474 48.2436 92.1805 49.961 92.9562 50.8918C93.561 51.6259 95.2703 53.435 97.913 54.6411C98.7019 55.0082 99.5565 55.2966 100.424 55.5064C101.713 55.821 103.028 55.9652 104.356 55.9128L110.206 55.7292L110.575 67.3969L104.724 67.5804C102.331 67.659 99.9378 67.41 97.6238 66.8331C96.046 66.4398 94.5077 65.9155 93.0483 65.2469C88.3807 63.1231 85.3567 60.0161 83.963 58.3512C82.8717 57.0402 79.9529 53.553 78.7301 48.1387C77.2707 41.6757 79.0062 36.2876 80.1764 33.6525C82.5036 28.3825 86.1982 25.1837 88.8935 23.427C91.6151 21.6572 97.2688 18.7993 104.579 19.6907C110.864 20.4511 114.953 23.5843 116.281 24.6069C117.504 25.5377 120.738 28.0285 122.96 32.4858C124.709 35.973 125.064 39.0931 125.353 41.597C125.445 42.436 125.524 43.3013 125.55 44.1534C125.629 45.8314 125.563 47.1162 125.55 47.5357C125.458 49.5546 125.313 56.2536 125.182 61.8646L125.077 67.6984Z" fill="#D2ECDF"/>
<path d="M0 66.8725V20.7526H12.3854L12.5563 25.1181C13.9895 23.0075 15.7644 21.4474 17.8813 20.4511C19.9981 19.4548 22.4699 18.9566 25.2704 18.9566C28.4259 18.9566 31.2528 19.6907 33.7772 21.1459C36.3016 22.6011 38.1949 24.62 39.4571 27.1895C39.8515 26.4422 40.3117 25.7605 40.8376 25.1312C41.3504 24.502 41.9158 23.8989 42.5074 23.3352C43.1122 22.7715 43.7696 22.2471 44.4796 21.7883C45.1896 21.3294 45.939 20.9361 46.7148 20.5953C47.4905 20.2544 48.2794 19.9529 49.0814 19.6907C49.8834 19.4285 50.7118 19.245 51.5795 19.127C52.4341 19.009 53.3282 18.9566 54.2486 18.9566C57.5093 18.9566 60.4413 19.7563 63.0183 21.3557C65.5953 22.955 67.6069 25.1968 69.04 28.0809C70.4732 30.9651 71.1832 34.2425 71.1832 37.9001V66.8725H58.0352L57.8511 40.5613C57.8511 37.8739 57.1806 35.8156 55.8263 34.3867C54.4852 32.9577 52.5788 32.2105 50.107 32.158C44.9529 32.158 42.3759 34.9635 42.3759 40.5613V66.8725L28.6232 66.702V40.5613C28.6232 37.7034 27.9921 35.5928 26.7298 34.2163C25.4676 32.8397 23.6006 32.158 21.142 32.158C19.8797 32.158 18.749 32.3285 17.7498 32.6693C16.7505 33.0102 15.8828 33.5083 15.1728 34.1638C14.4496 34.8193 13.8974 35.6976 13.503 36.7726C13.0954 37.8607 12.8982 39.1193 12.8982 40.5482V66.8725H0Z" fill="#D2ECDF"/>
<path d="M200.73 20.8444V25.3934C201.361 24.6462 202.006 23.9776 202.663 23.3746C203.32 22.7715 204.004 22.2471 204.727 21.7883C205.437 21.3294 206.187 20.9362 206.962 20.5953C207.738 20.2545 208.54 19.966 209.368 19.7432C210.197 19.5203 211.065 19.3499 211.945 19.2319C212.84 19.1139 213.76 19.0615 214.733 19.0615C219.663 19.0615 223.66 20.8444 226.724 24.4233C229.787 27.9892 231.326 32.5513 231.326 38.0967V66.7283H217.823V40.5613C217.823 37.8214 217.126 35.7108 215.719 34.2163C214.312 32.7349 212.353 31.9876 209.829 31.9876C208.566 31.9876 207.409 32.1711 206.344 32.5382C205.279 32.9053 204.359 33.469 203.557 34.2163C202.755 34.9635 202.137 35.9074 201.703 37.0479C201.269 38.1885 201.059 39.4732 201.059 40.9022V66.702H187.74V20.674L200.73 20.8444Z" fill="#D2ECDF"/>
<path d="M243.172 15.5219C242.146 15.1286 241.252 14.5649 240.503 13.8438C239.753 13.1359 239.188 12.2707 238.78 11.2743C238.373 10.278 238.176 9.17678 238.176 7.97069C238.176 5.62405 238.951 3.71004 240.503 2.22865C242.054 0.747252 244.053 0 246.525 0C247.498 0 248.418 0.131097 249.273 0.380181C250.127 0.642374 250.903 1.00945 251.6 1.4945C252.283 1.97956 252.888 2.54328 253.401 3.17254C253.914 3.80181 254.308 4.53595 254.558 5.36186C254.821 6.18777 254.939 7.06612 254.939 7.97069C254.939 10.3698 254.15 12.3231 252.573 13.8438C250.995 15.3645 248.97 16.1118 246.511 16.1118C245.315 16.1249 244.197 15.9283 243.172 15.5219ZM253.48 20.4118V66.702H239.635V20.4118H253.48Z" fill="#D2ECDF"/>
<path d="M282.603 21.0935L294.725 20.923L294.633 33.9541L283.194 34.0458V66.702H270.125L270.033 34.308H261.526V21.4474L269.783 21.277V17.331C269.783 12.2969 272.032 8.29843 276.528 5.33564C281.025 2.35974 286.968 1.33719 294.37 2.25487L294.278 14.1716C286.547 14.1716 282.668 15.9152 282.668 19.4023L282.603 21.0935Z" fill="#D2ECDF"/>
<path d="M331.119 73.3749C330.606 73.4666 329.922 73.3617 329.094 73.0733C328.266 72.7849 327.372 72.3785 326.425 71.8279C325.478 71.2904 324.466 70.5694 323.375 69.691C322.283 68.7996 321.258 67.8164 320.285 66.7283L300.26 21.7227H315.302L326.648 48.296L335.589 21.9849L349 22.1554L332.065 72.7325C331.947 73.0733 331.632 73.2831 331.119 73.3749ZM341.427 44.5336L326.464 89.5391L312.107 89.7095L328.266 43.511L341.427 44.5336Z" fill="#D2ECDF"/>
<path d="M172.344 65.7188C171.542 64.5652 170.727 63.595 169.977 62.7822C175.973 58.4954 179.891 51.4948 179.891 43.5635C179.891 30.5193 169.267 19.9267 156.185 19.9267C143.089 19.9267 132.479 30.5193 132.479 43.5635C132.479 55.9128 141.946 66.0203 154.042 67.1084C155.685 67.3575 159.13 68.2096 161.838 71.2904C164.35 74.1483 164.797 77.2946 164.902 78.3041C165.257 81.7519 164.087 84.3345 163.587 85.3309C161.852 88.7263 159.104 90.2994 158.104 90.8107C157.105 91.322 154.607 92.4494 151.307 92.1872C150.597 92.1217 148.046 91.8595 145.404 90.1552C144.509 89.5915 143.813 88.9754 143.339 88.5165C140.565 91.2827 137.778 94.0357 134.99 96.8149C136.253 97.9293 136.884 98.493 136.884 98.493C136.884 98.493 143.642 103.265 150.913 103.92C155.107 104.301 158.407 103.226 160.064 102.662C162.325 101.888 167.505 99.7646 171.607 94.4814C172.567 93.236 177.366 86.8123 176.656 77.7535C176.577 76.4687 176.051 71.1069 172.344 65.7188ZM145.167 43.5635C145.167 37.5199 150.11 32.5775 156.172 32.5775C162.233 32.5775 167.177 37.5068 167.177 43.5635C167.177 49.6201 162.233 54.5363 156.172 54.5363C150.11 54.5494 145.167 49.6201 145.167 43.5635Z" fill="#D2ECDF"/>
<path d="M169.188 20.8706C173.54 20.8837 177.892 20.8968 182.244 20.9099C182.218 25.341 182.192 29.7721 182.152 34.2031C181.35 32.2367 179.759 29.051 176.656 25.9834C173.921 23.2697 171.082 21.7227 169.188 20.8706Z" fill="#D2ECDF"/>
<path d="M115.268 20.8706C119.62 20.8837 123.972 20.8968 128.324 20.9099C128.298 25.341 128.272 29.7721 128.232 34.2031C127.43 32.2367 125.839 29.051 122.736 25.9834C120.002 23.2697 117.162 21.7227 115.268 20.8706Z" fill="#D2ECDF"/>
</g>
<defs>
<clipPath id="clip0_194_51">
<rect width="349" height="104" fill="white"/>
</clipPath>
</defs>
</svg>
