<svg width="181" height="54" viewBox="0 0 181 54" fill="none" xmlns="http://www.w3.org/2000/svg">
<path d="M64.8678 35.1511L58.7922 35.0218L58.8604 31.9927C58.9559 27.5613 59.0104 25.2946 59.0513 24.4233C59.0582 24.2395 59.0786 23.7971 59.0513 23.1981C59.0377 22.8986 59.0104 22.5923 58.9763 22.2928C58.8604 21.2581 58.765 20.4345 58.3354 19.5768C57.8035 18.5081 57.0193 17.9091 56.5966 17.5824C56.1874 17.2692 55.11 16.4388 53.5008 16.2414C51.5506 16.0031 50.0027 16.8608 49.4231 17.2352C48.7139 17.6981 47.7388 18.5421 47.132 19.9171C46.8319 20.6046 46.3751 22.0069 46.7501 23.6678C47.0638 25.0496 47.807 25.9413 48.2093 26.4246C48.523 26.8058 49.4095 27.7451 50.7801 28.3714C51.1892 28.562 51.6324 28.7117 52.0825 28.8206C52.7507 28.984 53.4326 29.0589 54.1213 29.0316L57.1557 28.9363L57.3466 34.9945L54.3122 35.0898C53.0712 35.1307 51.8302 35.0013 50.63 34.7018C49.8118 34.4976 49.014 34.2253 48.2571 33.8782C45.8364 32.7755 44.268 31.1622 43.5452 30.2977C42.9793 29.617 41.4655 27.8064 40.8313 24.9951C40.0744 21.6393 40.9745 18.8416 41.5814 17.4734C42.7883 14.737 44.7045 13.0762 46.1023 12.164C47.5138 11.2451 50.4459 9.76117 54.2372 10.224C57.4966 10.6188 59.6173 12.2457 60.306 12.7766C60.9402 13.2599 62.6176 14.5533 63.77 16.8676C64.6769 18.6783 64.861 20.2983 65.011 21.5984C65.0588 22.0341 65.0997 22.4834 65.1133 22.9258C65.1542 23.7971 65.1201 24.4642 65.1133 24.682C65.0656 25.7303 64.9906 29.2086 64.9224 32.122L64.8678 35.1511Z" fill="#497B62"/>
<path d="M0 34.7222V10.7754H6.42337L6.51202 13.0421C7.25527 11.9462 8.17582 11.1362 9.27366 10.6188C10.3715 10.1015 11.6534 9.84285 13.1059 9.84285C14.7424 9.84285 16.2084 10.224 17.5177 10.9796C18.8269 11.7352 19.8088 12.7835 20.4634 14.1176C20.668 13.7296 20.9066 13.3757 21.1794 13.0489C21.4453 12.7222 21.7385 12.4091 22.0454 12.1164C22.3591 11.8237 22.7 11.5514 23.0682 11.3132C23.4364 11.0749 23.8251 10.8707 24.2274 10.6937C24.6297 10.5167 25.0389 10.3602 25.4548 10.224C25.8708 10.0879 26.3004 9.9926 26.7504 9.93134C27.1936 9.87008 27.6573 9.84285 28.1346 9.84285C29.8257 9.84285 31.3463 10.2581 32.6828 11.0885C34.0193 11.919 35.0626 13.083 35.8059 14.5805C36.5491 16.078 36.9173 17.7798 36.9173 19.6789V34.7222H30.0985L30.003 21.0607C30.003 19.6653 29.6553 18.5966 28.9529 17.8546C28.2574 17.1127 27.2686 16.7247 25.9867 16.6974C23.3137 16.6974 21.9772 18.1541 21.9772 21.0607V34.7222L14.8447 34.6338V21.0607C14.8447 19.5768 14.5174 18.4809 13.8628 17.7661C13.2081 17.0514 12.2399 16.6974 10.9647 16.6974C10.3101 16.6974 9.7237 16.7859 9.20547 16.9629C8.68724 17.1399 8.23719 17.3986 7.86897 17.7389C7.49393 18.0793 7.20754 18.5353 7.00298 19.0935C6.79159 19.6585 6.68931 20.3119 6.68931 21.0539V34.7222H0Z" fill="#497B62"/>
<path d="M104.104 10.8231V13.1851C104.431 12.7971 104.765 12.4499 105.106 12.1368C105.447 11.8237 105.802 11.5514 106.177 11.3132C106.545 11.0749 106.933 10.8707 107.336 10.6937C107.738 10.5167 108.154 10.367 108.584 10.2513C109.013 10.1356 109.463 10.0471 109.92 9.9858C110.384 9.92454 110.861 9.89731 111.366 9.89731C113.923 9.89731 115.996 10.8231 117.585 12.6814C119.173 14.5328 119.971 16.9017 119.971 19.781V34.6474H112.968V21.0607C112.968 19.6381 112.607 18.5421 111.877 17.7661C111.148 16.997 110.131 16.609 108.822 16.609C108.168 16.609 107.568 16.7043 107.015 16.8949C106.463 17.0854 105.986 17.3781 105.57 17.7661C105.154 18.1541 104.833 18.6442 104.608 19.2364C104.383 19.8286 104.274 20.4957 104.274 21.2377V34.6338H97.3666V10.7346L104.104 10.8231Z" fill="#497B62"/>
<path d="M126.115 8.05943C125.583 7.85522 125.119 7.56252 124.731 7.18814C124.342 6.82056 124.049 6.3713 123.837 5.85398C123.626 5.33665 123.524 4.76486 123.524 4.13862C123.524 2.92018 123.926 1.92637 124.731 1.15718C125.535 0.387996 126.572 0 127.854 0C128.358 0 128.836 0.0680695 129.279 0.197401C129.722 0.33354 130.124 0.524135 130.486 0.775992C130.84 1.02785 131.154 1.32055 131.42 1.64728C131.686 1.97401 131.891 2.3552 132.02 2.78404C132.156 3.21288 132.218 3.66895 132.218 4.13862C132.218 5.3843 131.809 6.39853 130.99 7.18814C130.172 7.97774 129.122 8.36574 127.847 8.36574C127.226 8.37255 126.647 8.27044 126.115 8.05943ZM131.461 10.5984V34.6338H124.281V10.5984H131.461Z" fill="#497B62"/>
<path d="M146.565 10.9524L152.852 10.8639L152.804 17.63L146.872 17.6776V34.6338H140.094L140.046 17.8138H135.634V11.1362L139.916 11.0477V8.99879C139.916 6.38492 141.082 4.3088 143.414 2.77043C145.746 1.22525 148.829 0.694309 152.668 1.1708L152.62 7.35831C148.61 7.35831 146.599 8.26364 146.599 10.0743L146.565 10.9524Z" fill="#497B62"/>
<path d="M171.726 38.0985C171.46 38.1461 171.106 38.0917 170.676 37.9419C170.247 37.7922 169.783 37.5812 169.292 37.2953C168.801 37.0162 168.276 36.6418 167.71 36.1857C167.144 35.7229 166.612 35.2123 166.108 34.6474L155.722 11.2791H163.523L169.408 25.0768L174.045 11.4153L181 11.5037L172.217 37.7649C172.156 37.9419 171.992 38.0508 171.726 38.0985ZM177.072 23.1232L169.312 46.4915L161.866 46.5799L170.247 22.5923L177.072 23.1232Z" fill="#497B62"/>
<path d="M89.3817 34.1232C88.9658 33.5242 88.543 33.0205 88.1543 32.5985C91.2637 30.3726 93.2957 26.7377 93.2957 22.6195C93.2957 15.8466 87.7861 10.3466 81.0013 10.3466C74.2097 10.3466 68.7069 15.8466 68.7069 22.6195C68.7069 29.0316 73.6165 34.2798 79.8899 34.8448C80.7422 34.9741 82.5287 35.4165 83.9334 37.0162C85.2358 38.5001 85.4677 40.1338 85.5222 40.6579C85.7063 42.4481 85.0995 43.7891 84.8403 44.3064C83.9403 46.0694 82.5151 46.8863 81.9969 47.1517C81.4786 47.4172 80.1831 48.0026 78.4715 47.8664C78.1033 47.8324 76.7804 47.6963 75.4099 46.8114C74.9462 46.5187 74.5848 46.1987 74.3393 45.9605C72.9005 47.3968 71.4549 48.8262 70.0093 50.2693C70.6639 50.8479 70.9912 51.1406 70.9912 51.1406C70.9912 51.1406 74.4961 53.6183 78.267 53.9587C80.4422 54.1561 82.1537 53.5979 83.0129 53.3052C84.1857 52.9036 86.8724 51.8009 88.9999 49.0577C89.4976 48.411 91.9865 45.0756 91.6183 40.372C91.5774 39.7049 91.3046 36.9209 89.3817 34.1232ZM75.2871 22.6195C75.2871 19.4815 77.851 16.9153 80.9945 16.9153C84.138 16.9153 86.7019 19.4747 86.7019 22.6195C86.7019 25.7643 84.138 28.3169 80.9945 28.3169C77.851 28.3237 75.2871 25.7643 75.2871 22.6195Z" fill="#497B62"/>
<path d="M87.7451 10.8367C90.0022 10.8435 92.2592 10.8503 94.5163 10.8571C94.5026 13.1578 94.489 15.4586 94.4685 17.7593C94.0526 16.7383 93.2275 15.0842 91.6182 13.4914C90.1999 12.0823 88.727 11.2791 87.7451 10.8367Z" fill="#497B62"/>
<path d="M59.781 10.8367C62.0381 10.8435 64.2951 10.8503 66.5521 10.8571C66.5385 13.1578 66.5249 15.4586 66.5044 17.7593C66.0885 16.7383 65.2634 15.0842 63.6541 13.4914C62.2358 12.0823 60.7629 11.2791 59.781 10.8367Z" fill="#497B62"/>
</svg>
