<svg width="345" height="71" viewBox="0 0 345 71" fill="none" xmlns="http://www.w3.org/2000/svg">
<path d="M72 1C71.9324 24.3187 71.8648 47.6374 71.7973 70.9561C48.0105 70.8039 23.7868 71.1083 4.6469e-05 70.9561C10.5419 66.6779 28.1094 57.6818 44.581 41.0594C59.1774 26.331 67.4724 11.0952 72 1Z" fill="#497B62"/>
<path d="M275 71L345 71L345 0L275 6.11959e-06L275 71Z" fill="#6C9583"/>
<path d="M275 19.7724L275 1.00001L282.281 1.00001C302.486 4.92134 320.804 17.8534 331.312 37.7104C331.875 38.8117 332.487 39.9631 332.984 41.1144C333.48 42.149 333.927 43.2503 334.374 44.3349C337.948 53.062 339.785 62.056 340 71L320.887 71C319.994 44.4017 300.252 22.6591 275 19.7724Z" fill="#497B62"/>
<path d="M211.029 71C210.252 43.5265 225.122 16.7941 250.991 4.09324C254.398 2.44247 257.789 1.07806 261.296 1.28551e-06L276 0L276 16.7435C250.147 19.6408 230.084 41.9431 230.084 69.0629C230.084 69.6861 230.084 70.3768 230.133 71L211.029 71Z" fill="#B5CAC1"/>
<path d="M229 69.072C229 42.0804 249.537 19.8668 276 17L276 71L229.051 71C229 70.3797 229 69.6923 229 69.072Z" fill="#497B62"/>
<path d="M205 71L205 4.89567e-06L261 0C257.429 1.07806 253.96 2.44247 250.507 4.09324C224.166 16.7941 209.025 43.5265 209.817 71L205 71Z" fill="#497B62"/>
<path d="M205.059 70.9998C205.059 70.076 174.506 35.3667 174.506 35.3667L140.271 70.9998L205.059 70.9998Z" fill="#6C9583"/>
<path d="M170.074 6.21237C156.835 6.21237 146.102 16.7997 146.102 29.8598C146.102 42.9199 156.835 53.5072 170.074 53.5072C183.313 53.5072 194.045 42.9199 194.045 29.8598C194.045 16.7997 183.313 6.21237 170.074 6.21237Z" fill="#497B62"/>
<path d="M141.591 1.11335L71.709 1.11335L71.709 71.0036L141.591 71.0036V1.11335Z" fill="#90AFA1"/>
<path d="M106.449 7.82324C106.598 7.82324 106.748 7.82324 106.897 7.82324C109.804 8.18864 112.511 9.26822 115.284 10.0821C119.668 11.3609 124.036 12.7063 128.404 14.0018C128.885 14.1512 129.383 14.2841 129.848 14.4834C130.662 14.8322 131.127 15.4633 131.177 16.3602C131.194 16.5927 131.177 16.8087 131.177 17.0412C131.177 25.1795 131.177 33.3013 131.177 41.4397C131.177 43.7317 130.529 45.8576 129.5 47.9005C127.773 51.2887 125.198 53.9794 122.342 56.4209C118.091 60.0748 113.358 62.9648 108.326 65.4229C107.861 65.6554 107.362 65.7883 106.864 65.8547C106.665 65.888 106.449 65.9378 106.3 65.7219C106.117 65.3897 106.167 65.0243 106.167 64.6755C106.167 61.3039 106.167 57.9157 106.167 54.5441C106.167 39.4134 106.167 24.2827 106.167 9.15195C106.167 8.70351 106.034 8.20525 106.449 7.82324Z" fill="#6C9583"/>
<path d="M106.449 7.8234C106.449 27.1562 106.449 46.4723 106.449 65.8051C105.868 65.9712 105.336 65.7885 104.855 65.5559C99.8392 63.1144 95.073 60.2411 90.7884 56.6204C88.3472 54.5608 86.1384 52.3186 84.3947 49.628C82.6343 46.9041 81.6711 43.9644 81.6877 40.6592C81.7375 32.6869 81.7043 24.7313 81.7043 16.759C81.7043 16.0116 81.8538 15.3472 82.4516 14.8324C82.7008 14.6164 82.9831 14.467 83.2986 14.3839C89.028 12.6732 94.7575 10.9459 100.487 9.23516C101.218 9.01924 101.932 8.81993 102.646 8.5708C103.775 8.1888 104.938 7.97288 106.117 7.80679C106.216 7.8234 106.333 7.8234 106.449 7.8234Z" fill="#497B62"/>
</svg>
