<svg width="1920" height="1452" viewBox="0 0 1920 1452" fill="none" xmlns="http://www.w3.org/2000/svg">
<g opacity="0.15">
<path d="M2.74888e-05 379.165L0 733L379 733L379 379.165L2.74888e-05 379.165Z" fill="#B5CAC1"/>
<path d="M289.64 379.165L379 379.165L379 397.775C379 411.594 377.869 425.429 374.514 438.835C349.201 539.988 281.987 630.438 182.101 683.73C176.201 686.76 170.014 690.076 163.859 692.755C158.31 695.434 152.41 697.858 146.574 700.282C99.7889 719.576 47.965 729.526 0 730.674L8.0299e-06 627.314C142.651 622.498 274.14 515.725 289.64 379.165Z" fill="#3D6652"/>
<path d="M2.74419e-05 25.9323C146.638 21.6907 289.321 102.568 357.186 243.146C358.496 245.904 359.772 248.662 361.015 251.422C374.915 282.298 379 316.387 379 350.247L379 379.164L289.64 379.164C274.204 238.586 155.121 129.516 10.301 129.516C6.98428 129.516 3.31675 129.516 1.93699e-05 129.835L2.74419e-05 25.9323Z" fill="#3D6652"/>
</g>
<g opacity="0.15">
<path d="M1920 1072.43L1920 718.598L1541 718.598L1541 1072.43L1920 1072.43Z" fill="#B5CAC1"/>
<path d="M1630.36 1072.43L1541 1072.43L1541 1053.82C1541 1040 1542.13 1026.17 1545.49 1012.76C1570.8 911.611 1638.01 821.161 1737.9 767.869C1743.8 764.839 1749.99 761.522 1756.14 758.843C1761.69 756.164 1767.59 753.741 1773.43 751.317C1820.21 732.022 1872.03 722.072 1920 720.924L1920 824.285C1777.35 829.1 1645.86 935.874 1630.36 1072.43Z" fill="#3D6652"/>
<path d="M1920 1425.67C1773.36 1429.91 1630.68 1349.03 1562.81 1208.45C1561.5 1205.69 1560.23 1202.94 1558.99 1200.18C1545.09 1169.3 1541 1135.21 1541 1101.35L1541 1072.43L1630.36 1072.43C1645.8 1213.01 1764.88 1322.08 1909.7 1322.08C1913.02 1322.08 1916.68 1322.08 1920 1321.76L1920 1425.67Z" fill="#3D6652"/>
</g>
</svg>
