<svg width="1920" height="667" viewBox="0 0 1920 667" fill="none" xmlns="http://www.w3.org/2000/svg">
<path d="M-6.14864e-06 244.49L0 385.155L141.33 385.155L141.33 244.49L-6.14864e-06 244.49Z" fill="#6C9583"/>
<path d="M108.008 244.49L141.33 244.49L141.33 259.178C133.493 299.921 107.627 336.871 67.9062 358.064C65.7061 359.194 63.3989 360.43 61.1037 361.429C59.0344 362.428 56.8343 363.332 54.6579 364.236C37.2116 371.431 17.8863 375.141 0 375.57L-1.68479e-06 337.026C53.1952 335.23 102.228 295.414 108.008 244.49Z" fill="#3D6652"/>
<path d="M-5.75772e-06 112.757C54.6817 111.175 107.889 141.335 133.196 193.757C136.466 200.642 139.178 207.54 141.33 214.652L141.33 244.478L108.008 244.478C102.252 192.056 57.8451 151.384 3.84127 151.384C2.60445 151.384 1.23682 151.384 -4.06409e-06 151.503L-5.75772e-06 112.757Z" fill="#B5CAC1"/>
<path d="M3.84127 151.396C57.8451 151.396 102.24 192.068 108.008 244.49L0 244.49L-4.06409e-06 151.515C1.23682 151.396 2.60445 151.396 3.84127 151.396Z" fill="#3D6652"/>
<path d="M-4.874e-06 103.16L141.33 103.16L141.33 214.664C139.19 207.552 136.478 200.654 133.196 193.769C107.889 141.346 54.6817 111.187 -4.45397e-06 112.769L-4.874e-06 103.16Z" fill="#3D6652"/>
<path d="M0 103.16C1.2022 103.16 46.4033 53.8409 46.4033 53.8409L-4.09842e-06 0.80983L0 103.16Z" fill="#6C9583"/>
<path d="M80.0001 51.4364C80.0001 33.5097 65.4676 18.9771 47.5408 18.9771C29.6141 18.9771 15.0815 33.5097 15.0815 51.4364C15.0815 69.3632 29.6141 83.8957 47.5408 83.8957C65.4676 83.8957 80.0001 69.3632 80.0001 51.4364Z" fill="#3D6652"/>
<path d="M142.43 382.831V667C221.067 667 284.835 603.38 284.835 524.928C284.835 446.451 221.067 382.831 142.43 382.831Z" fill="#6C9583"/>
<path d="M-4.57764e-05 524.928C-4.57764e-05 603.38 63.7689 667 142.43 667V382.831C63.7689 382.831 -4.57764e-05 446.451 -4.57764e-05 524.928Z" fill="#B5CAC1"/>
<path d="M159.563 542.509L140.164 551.196L134.335 553.836L128.689 548.814L81.5391 506.942L107 495.812L130.269 515.067L159.563 542.509Z" fill="#497B62"/>
<path d="M160.102 410.578L159.563 542.509L133.759 518.342L134.751 419.375L160.102 410.578Z" fill="#497B62"/>
<path d="M1839.97 255C1839.88 288 1840.07 321 1839.97 354C1806.14 353.779 1771.83 354.037 1738 353.822C1754.48 350.585 1774.14 342.046 1801.24 316.421C1827.78 291.329 1836.09 270.436 1839.97 255Z" fill="#3D6652"/>
<path d="M1920 25.0521C1871.64 23.6602 1824.57 50.2134 1802.2 96.3511C1801.84 97.106 1801.48 97.9337 1801.14 98.8163C1795.94 112.121 1795 126.716 1795 141L1824.48 141C1829.58 94.8622 1868.84 59.0586 1916.6 59.0586C1917.7 59.0586 1918.9 59.0586 1920 59.1555L1920 25.0521Z" fill="#B5CAC1"/>
<path d="M1920 253.948C1871.64 255.328 1824.57 229.004 1802.2 183.264C1796.56 171.54 1795 158.413 1795 145.403L1795 139L1824.48 139C1829.58 184.74 1868.84 220.235 1916.6 220.235C1917.7 220.235 1918.9 220.235 1920 220.139L1920 253.948Z" fill="#6C9583"/>
<path d="M1919.97 339C1919.88 372 1920.07 405 1919.97 438C1886.14 437.785 1851.84 438.043 1818 437.822C1834.48 434.585 1854.14 426.046 1881.24 400.421C1907.78 375.329 1916.09 354.436 1919.97 339Z" fill="#3D6652"/>
<path d="M1919.97 255C1919.88 288 1920.07 321 1919.97 354C1886.14 353.785 1851.84 354.043 1818 353.822C1834.48 350.585 1854.14 342.046 1881.24 316.421C1907.78 291.329 1916.09 270.436 1919.97 255Z" fill="#3D6652"/>
<path d="M1837.97 339C1837.88 372 1838.07 405 1837.97 438C1804.14 437.779 1769.83 438.037 1736 437.822C1752.48 434.585 1772.14 426.046 1799.24 400.421C1825.78 375.329 1834.09 354.436 1837.97 339Z" fill="#3D6652"/>
<g clip-path="url(#clip0_260_548)">
<path d="M1920 438H1691V667H1920V438Z" fill="#90AFA1"/>
<path d="M1866.64 479.329C1862.76 479.439 1858.86 479.351 1854.98 479.351C1854.37 478.435 1854.49 477.512 1854.92 476.574C1855.07 473.696 1854.83 470.81 1855.25 467.931C1855.53 466.012 1854.96 464.407 1853.22 463.345H1805.5V641.648C1818.67 641.648 1831.85 641.648 1845.02 641.648C1848.4 641.648 1850.43 639.633 1850.43 636.256C1850.44 634.22 1850.4 632.191 1850.39 630.162C1850.4 625.701 1850.44 621.24 1850.43 616.779C1850.43 613.402 1848.4 611.387 1845.01 611.358C1841.94 611.329 1838.87 611.329 1835.8 611.314C1829.26 605.461 1822.74 599.564 1816.13 593.77C1814.87 592.664 1814.29 591.477 1814.3 589.873C1814.33 587.734 1814.49 585.573 1814.26 583.456C1813.95 580.607 1814.61 578.636 1817.76 578.189C1817.97 578.16 1818.17 577.97 1818.37 577.86C1822.96 575.853 1827.22 573.326 1831.19 570.256C1834.55 567.656 1837.45 564.601 1840.32 561.495C1842.29 561.554 1844.25 561.349 1846.21 561.276C1852.07 561.063 1857.49 559.481 1862.53 556.551C1871.2 551.504 1877.08 544.201 1879.64 534.495C1882.24 524.613 1884.53 514.636 1886.86 504.681C1890 491.291 1879.38 478.984 1866.64 479.329ZM1874.5 501.81C1872.28 511.523 1870.12 521.258 1867.46 530.854C1864.82 540.34 1858.56 546.237 1848.87 548.207C1848.89 548.149 1848.92 548.098 1848.95 548.046C1851.91 541.534 1853.37 534.692 1853.8 527.558C1854.06 523.39 1853.96 519.229 1854.14 515.068C1854.46 507.904 1854.86 500.74 1854.78 493.562C1854.81 493.356 1854.84 493.151 1854.85 492.946C1855.96 491.84 1857.49 491.987 1859.03 492.016C1861.52 492.075 1864.01 492.016 1866.5 492.038C1871.9 492.067 1875.69 496.528 1874.5 501.81Z" fill="#B5CAC1"/>
<path d="M1757.8 463.345C1756.19 464.297 1755.61 465.689 1755.72 467.564C1755.95 471.483 1756.25 475.41 1756.03 479.336C1752.19 479.343 1748.36 479.424 1744.53 479.321C1740.83 479.219 1737.46 480.178 1734.22 481.907C1726.78 485.885 1722.23 495.217 1723.94 503.333C1726.1 513.567 1728.64 523.712 1731.22 533.843C1734.17 545.373 1741.33 553.394 1752.06 558.353C1757.99 561.1 1764.3 561.547 1770.71 561.51C1777.53 569.494 1785.72 575.53 1795.66 579.098C1796.42 579.369 1796.75 579.808 1796.74 580.636C1796.71 583.881 1796.75 587.126 1796.71 590.364C1796.7 591.558 1796.29 592.613 1795.33 593.426C1794.05 594.503 1792.8 595.623 1791.55 596.737C1786.1 601.579 1780.66 606.435 1775.22 611.285L1775.2 611.351C1771.88 611.351 1768.58 611.329 1765.28 611.358C1762.35 611.38 1760.25 613.468 1760.25 616.42C1760.22 623.151 1760.22 629.883 1760.25 636.615C1760.25 639.553 1762.37 641.611 1765.31 641.648C1766.76 641.669 1768.21 641.655 1769.66 641.655C1780.44 641.655 1791.22 641.662 1802 641.662H1805.5V463.345H1757.8ZM1761.46 548.112C1751.53 545.658 1745.62 539.249 1743.14 529.477C1742.27 526.049 1741.49 522.606 1740.66 519.163C1739.31 513.471 1737.85 507.802 1736.58 502.095C1735.35 496.58 1738.98 492.06 1744.56 492.031C1747.81 492.016 1751.05 492.038 1754.3 492.023C1754.85 492.023 1755.44 492.089 1755.95 491.855C1756.58 496.609 1756.24 501.407 1756.48 506.19C1756.85 513.691 1756.85 521.214 1757.26 528.722C1757.63 535.571 1759.34 542.076 1762.14 548.317C1761.92 548.229 1761.7 548.171 1761.46 548.112Z" fill="#6C9583"/>
<path d="M1805.5 487.972L1814.73 506.674L1835.36 509.67L1820.43 524.225L1823.96 544.779L1805.5 535.073L1787.04 544.779L1790.56 524.225L1775.64 509.67L1796.27 506.674L1805.5 487.972Z" fill="#497B62"/>
</g>
<defs>
<clipPath id="clip0_260_548">
<rect width="229" height="229" fill="white" transform="translate(1691 438)"/>
</clipPath>
</defs>
</svg>
