<svg width="331" height="69" viewBox="0 0 331 69" fill="none" xmlns="http://www.w3.org/2000/svg">
<path d="M164.751 69.2387L229.174 69.2387L229.174 0.233879L164.751 0.233877L164.751 69.2387Z" fill="#B5CAC1"/>
<path d="M164.752 16.5038L164.752 0.233877C169.522 0.233877 174.317 0.569342 178.882 1.95385C195.969 7.13663 211.079 18.9792 220.205 36.0834C220.756 37.1576 221.36 38.2841 221.848 39.4047C222.336 40.4151 222.777 41.4893 223.218 42.5519C226.731 51.0701 228.543 60.5057 228.752 69.2387L209.933 69.2387C209.056 43.2661 189.616 19.3258 164.752 16.5038Z" fill="#3D6652"/>
<path d="M100.476 69.2387C99.7036 42.5403 114.429 16.5618 140.024 4.20554C146.587 1.0883 153.919 0.233879 161.184 0.233879L164.789 0.233879L164.789 16.5038C139.194 19.3141 119.336 40.9957 119.336 67.3632C119.336 67.9671 119.336 68.6348 119.394 69.2387L100.476 69.2387Z" fill="#B5CAC1"/>
<path d="M330.985 69L315 69L315 -1.39876e-06L330.999 0C331 5 331 10 331 14.5575L331 69L330.985 69Z" fill="#6C9583"/>
<path d="M314.985 69L299 69L299 -1.39876e-06L314.999 0C315 5 315 10 315 14.5575L315 69L314.985 69Z" fill="#497B62"/>
<path d="M33.8586 71.7322L21.4621 71.8349L17.7295 71.8863L15.8802 67.8792L0.521484 34.4186H16.7364L24.6468 50.19L33.8586 71.7322Z" fill="#497B62"/>
<path d="M67.2981 1.66893e-06L33.8583 71.7332L24.6465 50.191L49.4909 1.66893e-06L67.2981 1.66893e-06Z" fill="#6C9583"/>
<path d="M101 69L83 69L83 -1.57361e-06L100.777 -1.9465e-08C101.12 4.85078 100.777 9.58608 101 14.5524L101 69Z" fill="#6C9583"/>
<path d="M66 69L83 69L83 0L66 -1.48619e-06L66 69Z" fill="#497B62"/>
<path d="M263.996 4.64045e-06L263.996 67.8274C282.766 67.8274 297.986 52.6422 297.986 33.9166C297.986 15.1852 282.766 2.99957e-06 263.996 4.64045e-06Z" fill="#6C9583"/>
<path d="M230 33.9166C230 52.6422 245.221 67.8274 263.996 67.8274L263.996 6.19888e-06C245.221 7.84027e-06 230 15.1852 230 33.9166Z" fill="#B5CAC1"/>
<path d="M268.086 38.1136L263.456 40.1871L262.065 40.817L260.717 39.6184L249.463 29.6242L255.54 26.9675L261.094 31.5636L268.086 38.1136Z" fill="#497B62"/>
<path d="M268.213 6.62279L268.085 38.113L261.926 32.3446L262.163 8.72253L268.213 6.62279Z" fill="#497B62"/>
</svg>
