<svg width="1920" height="2422" viewBox="0 0 1920 2422" fill="none" xmlns="http://www.w3.org/2000/svg">
<rect width="1920" height="2422" fill="white"/>
<g opacity="0.15">
<path d="M2.74888e-05 1121.16L0 1475L379 1475L379 1121.16L2.74888e-05 1121.16Z" fill="#B5CAC1"/>
<path d="M289.64 1121.16L379 1121.16L379 1139.78C379 1153.59 377.869 1167.43 374.514 1180.84C349.201 1281.99 281.987 1372.44 182.101 1425.73C176.201 1428.76 170.014 1432.08 163.859 1434.76C158.31 1437.43 152.41 1439.86 146.574 1442.28C99.7889 1461.58 47.965 1471.53 0 1472.67L8.0299e-06 1369.31C142.651 1364.5 274.14 1257.72 289.64 1121.16Z" fill="#3D6652"/>
<path d="M2.74419e-05 767.932C146.638 763.691 289.321 844.568 357.186 985.146C358.496 987.904 359.772 990.662 361.015 993.422C374.915 1024.3 379 1058.39 379 1092.25L379 1121.16L289.64 1121.16C274.204 980.586 155.121 871.516 10.301 871.516C6.98428 871.516 3.31675 871.516 1.93699e-05 871.835L2.74419e-05 767.932Z" fill="#3D6652"/>
</g>
<g opacity="0.15">
<path d="M1920 1814.43L1920 1460.6L1541 1460.6L1541 1814.43L1920 1814.43Z" fill="#B5CAC1"/>
<path d="M1630.36 1814.43L1541 1814.43L1541 1795.82C1541 1782 1542.13 1768.17 1545.49 1754.76C1570.8 1653.61 1638.01 1563.16 1737.9 1509.87C1743.8 1506.84 1749.99 1503.52 1756.14 1500.84C1761.69 1498.16 1767.59 1495.74 1773.43 1493.32C1820.21 1474.02 1872.03 1464.07 1920 1462.92L1920 1566.28C1777.35 1571.1 1645.86 1677.87 1630.36 1814.43Z" fill="#3D6652"/>
<path d="M1920 2167.67C1773.36 2171.91 1630.68 2091.03 1562.81 1950.45C1561.5 1947.69 1560.23 1944.94 1558.99 1942.18C1545.09 1911.3 1541 1877.21 1541 1843.35L1541 1814.43L1630.36 1814.43C1645.8 1955.01 1764.88 2064.08 1909.7 2064.08C1913.02 2064.08 1916.68 2064.08 1920 2063.76L1920 2167.67Z" fill="#3D6652"/>
</g>
</svg>
