<svg width="345" height="115" viewBox="0 0 345 115" fill="none" xmlns="http://www.w3.org/2000/svg">
<g clip-path="url(#clip0_172_1470)">
<path d="M287.308 -0.195962L287.308 115.196C319.057 115.196 344.803 89.3621 344.803 57.505C344.803 25.638 319.057 -0.195959 287.308 -0.195962Z" fill="#6C9583"/>
<path d="M229.804 57.505C229.804 89.362 255.55 115.196 287.309 115.196L287.309 -0.195972C255.55 -0.195975 229.804 25.638 229.804 57.505Z" fill="#B5CAC1"/>
<path d="M294.224 64.6444L286.392 68.1719L284.039 69.2436L281.759 67.2045L262.723 50.2018L273.002 45.682L282.397 53.5011L294.224 64.6444Z" fill="#497B62"/>
<path d="M294.442 11.0713L294.225 64.6444L283.807 54.8308L284.207 14.6435L294.442 11.0713Z" fill="#497B62"/>
<path d="M185.372 115C186.032 92.265 173.45 70.1432 151.58 59.6212C148.708 58.2615 145.83 57.1341 142.863 56.2391L130.42 56.2391L130.42 70.0937C152.29 72.4869 169.258 90.9498 169.258 113.403C169.258 113.917 169.258 114.486 169.208 115L185.372 115Z" fill="#B5CAC1"/>
<path d="M169.252 113.403C169.252 90.9498 152.284 72.4918 130.414 70.0937L130.414 115L169.202 115C169.252 114.486 169.252 113.917 169.252 113.403Z" fill="#497B62"/>
<path d="M189.379 115L189.379 56.2391L142.861 56.2391C145.828 57.1292 148.706 58.2565 151.578 59.6212C173.448 70.1432 186.03 92.265 185.37 115L189.379 115Z" fill="#497B62"/>
<path d="M189.535 115L210.209 115L210.209 56.2688L189.798 56.2688C189.416 60.4025 189.798 64.4224 189.535 68.6648L189.535 115Z" fill="#B5CAC1"/>
<path d="M210.215 115L210.215 56.2391L229.609 56.2392L229.609 115L210.215 115Z" fill="#497B62"/>
<path d="M130.406 73.0258C130.366 87.0188 130.446 101.007 130.406 115C116.072 114.906 101.54 115.02 87.207 114.926C94.1877 113.556 102.513 109.932 113.999 99.0687C125.241 88.428 128.764 79.5724 130.406 73.0258Z" fill="#6C9583"/>
<path d="M109.185 73.0258C109.145 87.0188 109.225 101.007 109.185 115C94.8517 114.906 80.3198 115.02 65.9863 114.926C72.967 113.556 81.2922 109.932 92.7778 99.0687C104.02 88.428 107.543 79.5724 109.185 73.0258Z" fill="#6C9583"/>
</g>
<defs>
<clipPath id="clip0_172_1470">
<rect width="115" height="345" fill="white" transform="matrix(-4.37114e-08 1 1 4.37114e-08 0 0)"/>
</clipPath>
</defs>
</svg>
