<svg width="1920" height="1080" viewBox="0 0 1920 1080" fill="none" xmlns="http://www.w3.org/2000/svg">
<g opacity="0.15">
<path d="M728 109.036C773 109.162 818 108.91 863 109.036C862.699 155.145 863.05 201.9 862.758 248C858.344 225.541 846.699 198.754 811.755 161.823C777.539 125.656 749.05 114.33 728 109.036Z" fill="#3D6652"/>
<path d="M-9.45548e-06 862.942L0 1079.26L217.34 1079.26L217.34 862.942L-9.45548e-06 862.942Z" fill="#6C9583"/>
<path d="M166.096 862.942L217.34 862.942L217.34 885.528C205.288 948.184 165.511 1005.01 104.427 1037.6C101.044 1039.33 97.4958 1041.24 93.9662 1042.77C90.784 1044.31 87.4006 1045.7 84.0538 1047.09C57.2246 1058.15 27.5059 1063.86 0 1064.52L-2.5909e-06 1005.24C81.8043 1002.48 157.208 941.253 166.096 862.942Z" fill="#3D6652"/>
<path d="M593.472 0L482 0L482 112L593.472 112L593.472 0Z" fill="#6C9583"/>
<path d="M593.472 85.5926L593.472 112L581.833 112C549.545 105.789 520.263 85.291 503.469 53.8134C502.574 52.0699 501.593 50.2416 500.802 48.4227C500.01 46.7828 499.294 45.0393 498.578 43.3146C492.876 29.489 489.935 14.1743 489.596 0L520.141 0C521.564 42.1554 553.117 81.0123 593.472 85.5926Z" fill="#3D6652"/>
<path d="M-8.85431e-06 660.36C84.0904 657.928 165.913 704.307 204.831 784.923C209.86 795.512 214.03 806.119 217.34 817.055L217.34 862.923L166.096 862.923C157.244 782.307 88.9551 719.761 5.90717 719.761C4.00517 719.761 1.90199 719.761 -6.24982e-06 719.944L-8.85431e-06 660.36Z" fill="#B5CAC1"/>
<path d="M5.90717 719.779C88.9551 719.779 157.226 782.326 166.096 862.941L0 862.941L-6.24982e-06 719.962C1.902 719.779 4.00517 719.779 5.90717 719.779Z" fill="#3D6652"/>
<path d="M-7.49531e-06 645.601L217.34 645.601L217.34 817.074C214.048 806.137 209.879 795.53 204.831 784.941C165.913 704.325 84.0904 657.946 -6.84938e-06 660.378L-7.49531e-06 645.601Z" fill="#3D6652"/>
<path d="M697.867 0.00012207C699.12 43.3336 675.22 85.4985 633.677 105.554C628.22 108.145 622.754 110.294 617.118 112L593.482 112L593.482 85.5927C635.025 81.0313 667.256 45.8405 667.256 3.04421C667.256 2.06407 667.256 0.980262 667.162 0.00012207L697.867 0.00012207Z" fill="#B5CAC1"/>
<path d="M667.247 3.04421C667.247 45.8405 635.015 81.0219 593.472 85.5927L593.472 0.00012207L667.153 0.00012207C667.247 0.980262 667.247 2.06407 667.247 3.04421Z" fill="#3D6652"/>
<path d="M705.472 0.00012207L705.472 112L617.109 112C622.745 110.304 628.211 108.155 633.668 105.554C675.21 85.4985 699.111 43.3336 697.857 0.00012207L705.472 0.00012207Z" fill="#3D6652"/>
<path d="M217.34 861.5C219.859 861.5 314.59 758.14 314.59 758.14L217.34 647L217.34 861.5Z" fill="#6C9583"/>
<path d="M385 753.101C385 715.531 354.543 685.074 316.973 685.074C279.403 685.074 248.947 715.531 248.947 753.101C248.947 790.671 279.403 821.128 316.973 821.127C354.544 821.127 385 790.671 385 753.101Z" fill="#3D6652"/>
<path d="M688.315 541V1080.32C837.558 1080.32 958.584 959.577 958.584 810.683C958.584 661.743 837.558 541 688.315 541Z" fill="#6C9583"/>
<path d="M418 810.683C418 959.577 539.026 1080.32 688.315 1080.32V541C539.026 541 418 661.743 418 810.683Z" fill="#B5CAC1"/>
<path d="M720.832 844.051L684.015 860.538L672.952 865.547L662.237 856.017L572.751 776.549L621.073 755.425L665.235 791.97L720.832 844.051Z" fill="#497B62"/>
<path d="M721.855 593.661L720.832 844.051L671.859 798.184L673.742 610.357L721.855 593.661Z" fill="#497B62"/>
<path d="M224.4 244.389C226.96 244.389 229.52 243.749 232.19 242.505C248.284 234.897 264.451 227.49 280.6 220.01C290.33 215.511 295.999 217.267 301.449 226.521C310.831 242.487 320.323 258.416 329.54 274.51C332.558 279.741 336.673 282.594 342.543 283.746C361.142 287.44 379.705 291.317 398.268 295.176C407.54 297.096 411.271 301.924 410.265 311.325C408.29 329.906 406.15 348.469 403.919 367.013C403.297 372.171 404.669 376.377 408.089 380.272C419.958 393.769 431.645 407.412 443.422 420.982C450.591 429.231 450.61 434.699 443.55 442.892C431.553 456.846 419.611 470.837 407.577 484.773C404.523 488.302 403.224 492.106 403.809 496.825C406.041 515.223 408.217 533.639 410.174 552.074C411.29 562.663 407.723 567.29 397.463 569.412C379.029 573.234 360.63 577.166 342.177 580.751C336.545 581.848 332.686 584.518 329.833 589.438C320.579 605.33 311.124 621.113 301.742 636.933C295.944 646.717 290.512 648.418 280.307 643.681C264.031 636.146 247.717 628.666 231.459 621.095C229.081 619.979 226.759 619.431 224.418 619.449" fill="#B5CAC1"/>
<path d="M224.4 619.431C222.15 619.449 219.901 619.998 217.578 621.095C201.21 628.794 184.768 636.311 168.327 643.864C158.561 648.363 152.837 646.589 147.46 637.408C138.096 621.406 128.678 605.44 119.442 589.364C116.68 584.555 112.895 581.939 107.463 580.879C88.5711 577.184 69.7339 573.216 50.8602 569.393C45.7578 568.369 41.0028 566.412 39.4482 561.09C38.4424 557.579 38.4789 553.592 38.863 549.916C40.7284 532.195 42.8499 514.51 44.9713 496.825C45.5017 492.326 44.4044 488.504 41.4417 485.102C36.1746 479.048 30.9075 472.977 25.7685 466.795C17.1363 456.389 8.57729 445.91 0 435.449V428.426C2.52381 425.097 4.90132 421.623 7.60801 418.459C18.636 405.602 29.7553 392.782 40.9113 380.053C44.1849 376.304 45.5749 372.244 44.9713 367.196C42.667 348.359 40.4724 329.504 38.5338 310.63C37.6194 301.815 41.6428 296.968 50.3482 295.176C69.0756 291.354 87.7847 287.422 106.512 283.746C112.547 282.575 116.717 279.576 119.771 274.199C128.897 258.069 138.316 242.103 147.643 226.082C152.636 217.505 158.488 215.603 167.468 219.718C183.891 227.271 200.368 234.769 216.7 242.524C219.334 243.767 221.876 244.389 224.4 244.389" fill="#6C9583"/>
<path d="M224.254 518.497L194.26 518.771L185.226 518.881L180.782 509.188L143.638 428.261H182.848L201.996 466.393L224.254 518.497Z" fill="#497B62"/>
<path d="M305.162 344.976L224.254 518.497L201.997 466.393L262.111 344.976H305.162Z" fill="#497B62"/>
<path d="M217.34 3.05176e-05H0V217.34H217.34V3.05176e-05Z" fill="#90AFA1"/>
<path d="M108.012 20.8489C108.487 20.8489 108.944 20.8489 109.42 20.8489C118.436 21.9828 126.867 25.3661 135.517 27.8717C149.161 31.822 162.731 36.01 176.337 40.0701C177.855 40.5273 179.392 40.9479 180.836 41.5697C183.36 42.667 184.805 44.6056 184.97 47.4037C185.006 48.0987 184.988 48.812 184.988 49.5252C184.988 74.8182 184.988 100.111 184.988 125.404C184.988 132.537 182.976 139.157 179.757 145.467C174.38 156.019 166.37 164.377 157.5 171.985C144.278 183.324 129.537 192.34 113.937 199.984C112.474 200.698 110.974 201.137 109.383 201.338C108.761 201.411 108.085 201.594 107.609 200.954C107.024 199.911 107.17 198.777 107.17 197.68C107.152 187.183 107.152 176.685 107.152 166.169C107.152 119.113 107.152 72.0566 107.17 25.0004C107.152 23.5739 106.75 22.0193 108.012 20.8489Z" fill="#6C9583"/>
<path d="M108.012 20.8489C108.012 80.9448 108.012 141.041 108.012 201.137C106.238 201.667 104.537 201.1 103.037 200.35C87.419 192.742 72.6418 183.799 59.3096 172.57C51.7381 166.187 44.8251 159.201 39.43 150.825C33.9434 142.339 30.9442 133.195 30.999 122.953C31.1453 98.1908 31.0539 73.4099 31.0356 48.6474C31.0356 46.3064 31.5111 44.2398 33.3765 42.6487C34.1629 41.9903 35.0225 41.5331 35.9917 41.2405C53.823 35.9186 71.6359 30.5601 89.4489 25.2015C91.6984 24.5249 93.9663 23.903 96.1792 23.1532C99.6906 21.9645 103.293 21.2695 106.951 20.794C107.317 20.8489 107.664 20.8489 108.012 20.8489Z" fill="#3D6652"/>
<path d="M427 1079.94C357.006 1079.75 286.994 1080.14 217 1079.94C217.459 1008.3 216.912 935.645 217.371 864C224.227 898.901 245.645 950.599 300 1008C353.225 1064.18 394.256 1071.72 427 1079.94Z" fill="#3D6652"/>
<path d="M526 1079.94C456.006 1079.75 385.994 1080.14 316 1079.94C316.459 1008.3 315.912 935.645 316.371 864C323.227 898.901 344.645 950.599 399 1008C452.225 1064.18 493.256 1071.72 526 1079.94Z" fill="#3D6652"/>
<path d="M538.255 443.685C538.255 413.395 513.518 388.843 483 388.843C513.518 388.843 538.255 364.29 538.255 334C538.255 364.29 562.992 388.843 593.51 388.843C563.003 388.843 538.255 413.395 538.255 443.685Z" fill="#497B62"/>
<path d="M632.683 443.685C632.683 413.395 608.13 388.843 577.841 388.843C608.13 388.843 632.683 364.29 632.683 334C632.683 364.29 657.236 388.843 687.526 388.843C657.236 388.843 632.683 413.395 632.683 443.685Z" fill="#497B62"/>
<path d="M538.255 541C538.255 510.71 513.517 486.157 483 486.157C513.517 486.157 538.255 461.605 538.255 431.315C538.255 461.605 562.992 486.157 593.51 486.157C563.003 486.147 538.255 510.71 538.255 541Z" fill="#497B62"/>
<path d="M632.683 541C632.683 510.71 608.13 486.157 577.841 486.157C608.13 486.157 632.683 461.605 632.683 431.315C632.683 461.605 657.236 486.157 687.526 486.157C657.236 486.147 632.683 510.71 632.683 541Z" fill="#497B62"/>
<path d="M538.255 239.685C538.255 209.395 513.518 184.843 483 184.843C513.518 184.843 538.255 160.29 538.255 130C538.255 160.29 562.992 184.843 593.51 184.843C563.003 184.843 538.255 209.395 538.255 239.685Z" fill="#497B62"/>
<path d="M632.683 239.685C632.683 209.395 608.13 184.843 577.841 184.843C608.13 184.843 632.683 160.29 632.683 130C632.683 160.29 657.236 184.843 687.526 184.843C657.236 184.843 632.683 209.395 632.683 239.685Z" fill="#497B62"/>
<path d="M538.255 337C538.255 306.71 513.517 282.157 483 282.157C513.517 282.157 538.255 257.605 538.255 227.315C538.255 257.605 562.992 282.157 593.51 282.157C563.003 282.147 538.255 306.71 538.255 337Z" fill="#497B62"/>
<path d="M632.683 337C632.683 306.71 608.13 282.157 577.841 282.157C608.13 282.157 632.683 257.605 632.683 227.315C632.683 257.605 657.236 282.157 687.526 282.157C657.236 282.147 632.683 306.71 632.683 337Z" fill="#497B62"/>
<path d="M273.047 1.00003C271.787 44.7164 295.822 87.2645 337.585 107.494C338.268 107.819 339.016 108.138 339.815 108.449C351.86 113.147 365.071 114 378 114V87.3525C336.237 82.7432 303.829 47.2451 303.829 4.0729C303.829 3.08062 303.829 1.99231 303.917 1.00003H273.047Z" fill="#B5CAC1"/>
<path d="M482.953 1.00003C484.213 44.7164 460.178 87.2645 418.415 107.494C407.704 112.595 395.735 114 383.871 114H378V87.3525C419.763 82.7432 452.171 47.2451 452.171 4.0729C452.171 3.08062 452.171 1.99231 452.083 1.00003H482.953Z" fill="#6C9583"/>
<path d="M217 3.05176e-05H244V104H217.501C217 96.6838 217.501 88.9996 217.007 82.0514V3.05176e-05H217Z" fill="#B5CAC1"/>
<path d="M244 3.05176e-05H272V104H244.519C244 96.6838 244.519 88.9996 244.008 82.0514V3.05176e-05H244Z" fill="#6C9583"/>
<path d="M842 0.0363312C887 0.162168 932 -0.089512 977 0.0363253C976.707 46.1366 977.059 92.8913 976.758 139C972.344 116.541 960.699 89.7536 925.755 52.8231C891.539 16.6559 863.05 5.33011 842 0.0363312Z" fill="#3D6652"/>
<path d="M728 0.0363312C773 0.162168 818 -0.089512 863 0.0363253C862.707 46.1366 863.059 92.8913 862.758 139C858.344 116.541 846.699 89.7536 811.755 52.8231C777.539 16.6559 749.05 5.33011 728 0.0363312Z" fill="#3D6652"/>
<path d="M842 112.036C887 112.162 932 111.91 977 112.036C976.699 158.145 977.05 204.9 976.758 251C972.344 228.541 960.699 201.754 925.755 164.823C891.539 128.656 863.05 117.33 842 112.036Z" fill="#3D6652"/>
<path d="M312.106 136.173C311.817 135.495 311.516 134.818 311.199 134.146C310.847 133.418 310.478 132.706 310.099 132.001C298.389 110.56 271.868 101.858 249.685 112.609C227.524 123.349 217.811 149.548 227.207 172.075C227.524 172.843 227.864 173.6 228.227 174.357C228.556 175.029 228.891 175.683 229.242 176.332C231.408 180.333 234.085 183.902 237.158 186.976L230.121 199.082L220.215 215.872H235.707L248.006 195.035C260.617 201.973 275.814 202.65 289.747 195.894C311.981 185.114 321.683 158.74 312.106 136.173ZM269.713 188.017C251.131 188.017 236.07 172.9 236.07 154.249C236.07 135.598 251.131 120.481 269.713 120.481C288.295 120.481 303.356 135.598 303.356 154.249C303.356 172.9 288.29 188.017 269.713 188.017Z" fill="#3D6652"/>
<path d="M1705 109.036C1750 109.162 1795 108.91 1840 109.036C1839.7 155.145 1840.05 201.9 1839.76 248C1835.34 225.541 1823.7 198.753 1788.76 161.823C1754.54 125.656 1726.05 114.33 1705 109.036Z" fill="#3D6652"/>
<path d="M977 862.942L977 1079.26L1194.34 1079.26L1194.34 862.942L977 862.942Z" fill="#6C9583"/>
<path d="M1143.1 862.942L1194.34 862.942L1194.34 885.528C1182.29 948.184 1142.51 1005.01 1081.43 1037.6C1078.04 1039.33 1074.5 1041.24 1070.97 1042.77C1067.78 1044.31 1064.4 1045.7 1061.05 1047.09C1034.22 1058.15 1004.51 1063.86 977 1064.52L977 1005.24C1058.8 1002.48 1134.21 941.253 1143.1 862.942Z" fill="#3D6652"/>
<path d="M977 660.36C1061.09 657.927 1142.91 704.307 1181.83 784.923C1186.86 795.512 1191.03 806.119 1194.34 817.055L1194.34 862.923L1143.1 862.923C1134.24 782.307 1065.96 719.761 982.907 719.761C981.005 719.761 978.902 719.761 977 719.944L977 660.36Z" fill="#B5CAC1"/>
<path d="M982.907 719.779C1065.96 719.779 1134.23 782.326 1143.1 862.941L977 862.941L977 719.962C978.902 719.779 981.005 719.779 982.907 719.779Z" fill="#3D6652"/>
<path d="M977 645.601L1194.34 645.601L1194.34 817.074C1191.05 806.137 1186.88 795.53 1181.83 784.941C1142.91 704.325 1061.09 657.946 977 660.378L977 645.601Z" fill="#3D6652"/>
<path d="M1216 529C1216 530.608 1281.96 591.065 1281.96 591.065L1352.89 529L1216 529Z" fill="#6C9583"/>
<path d="M1285.18 636C1309.16 636 1328.59 616.563 1328.59 592.586C1328.59 568.609 1309.16 549.171 1285.18 549.171C1261.2 549.171 1241.77 568.609 1241.77 592.586C1241.77 616.563 1261.2 636 1285.18 636Z" fill="#3D6652"/>
<path d="M1549.99 109.685C1549.99 79.3954 1525.25 54.8426 1494.74 54.8426C1525.25 54.8426 1549.99 30.2898 1549.99 0C1549.99 30.2898 1574.73 54.8426 1605.25 54.8426C1574.74 54.8426 1549.99 79.3954 1549.99 109.685Z" fill="#497B62"/>
<path d="M1644.42 109.685C1644.42 79.3954 1619.87 54.8426 1589.58 54.8426C1619.87 54.8426 1644.42 30.2898 1644.42 0C1644.42 30.2898 1668.97 54.8426 1699.26 54.8426C1668.97 54.8426 1644.42 79.3954 1644.42 109.685Z" fill="#497B62"/>
<path d="M1549.99 207C1549.99 176.71 1525.25 152.157 1494.74 152.157C1525.25 152.157 1549.99 127.605 1549.99 97.3148C1549.99 127.605 1574.73 152.157 1605.25 152.157C1574.74 152.147 1549.99 176.71 1549.99 207Z" fill="#497B62"/>
<path d="M1644.42 207C1644.42 176.71 1619.87 152.157 1589.58 152.157C1619.87 152.157 1644.42 127.605 1644.42 97.3148C1644.42 127.605 1668.97 152.157 1699.26 152.157C1668.97 152.147 1644.42 176.71 1644.42 207Z" fill="#497B62"/>
<path d="M1194.34 3.05176e-05H977V217.34H1194.34V3.05176e-05Z" fill="#90AFA1"/>
<path d="M1085.01 20.8489C1085.49 20.8489 1085.94 20.8489 1086.42 20.8489C1095.44 21.9828 1103.87 25.3661 1112.52 27.8717C1126.16 31.822 1139.73 36.01 1153.34 40.0701C1154.86 40.5273 1156.39 40.9479 1157.84 41.5697C1160.36 42.667 1161.81 44.6056 1161.97 47.4037C1162.01 48.0987 1161.99 48.812 1161.99 49.5252C1161.99 74.8182 1161.99 100.111 1161.99 125.404C1161.99 132.537 1159.98 139.157 1156.76 145.467C1151.38 156.019 1143.37 164.377 1134.5 171.985C1121.28 183.324 1106.54 192.34 1090.94 199.984C1089.47 200.698 1087.97 201.137 1086.38 201.338C1085.76 201.411 1085.08 201.594 1084.61 200.954C1084.02 199.911 1084.17 198.777 1084.17 197.68C1084.15 187.183 1084.15 176.685 1084.15 166.169C1084.15 119.113 1084.15 72.0566 1084.17 25.0004C1084.15 23.5739 1083.75 22.0193 1085.01 20.8489Z" fill="#6C9583"/>
<path d="M1085.01 20.8489C1085.01 80.9448 1085.01 141.041 1085.01 201.137C1083.24 201.667 1081.54 201.1 1080.04 200.35C1064.42 192.742 1049.64 183.799 1036.31 172.57C1028.74 166.187 1021.83 159.201 1016.43 150.825C1010.94 142.339 1007.94 133.195 1008 122.953C1008.15 98.1908 1008.05 73.4099 1008.04 48.6474C1008.04 46.3064 1008.51 44.2398 1010.38 42.6487C1011.16 41.9903 1012.02 41.5331 1012.99 41.2405C1030.82 35.9186 1048.64 30.5601 1066.45 25.2015C1068.7 24.5249 1070.97 23.903 1073.18 23.1532C1076.69 21.9645 1080.29 21.2695 1083.95 20.794C1084.32 20.8489 1084.66 20.8489 1085.01 20.8489Z" fill="#3D6652"/>
<path d="M1404 1079.94C1334.01 1079.75 1263.99 1080.14 1194 1079.94C1194.46 1008.3 1193.91 935.645 1194.37 864C1201.23 898.901 1222.64 950.599 1277 1008C1330.22 1064.18 1371.26 1071.72 1404 1079.94Z" fill="#3D6652"/>
<path d="M1509 1079.94C1439.01 1079.75 1368.99 1080.14 1299 1079.94C1299.46 1008.3 1298.91 935.645 1299.37 864C1306.23 898.901 1327.64 950.599 1382 1008C1435.22 1064.18 1476.26 1071.72 1509 1079.94Z" fill="#3D6652"/>
<path d="M1250.05 0.999969C1248.79 44.7163 1272.82 87.2644 1314.59 107.494C1315.27 107.819 1316.02 108.138 1316.81 108.449C1328.86 113.147 1342.07 114 1355 114V87.3524C1313.24 82.7431 1280.83 47.2451 1280.83 4.07284C1280.83 3.08056 1280.83 1.99225 1280.92 0.999969H1250.05Z" fill="#B5CAC1"/>
<path d="M1607 216.071C1541.23 214.175 1477.22 250.342 1446.79 313.185C1445.89 315.076 1445.02 317.303 1444.19 319.714C1438.59 335.99 1437 353.405 1437 370.618L1437 374L1477.09 374C1484.02 311.157 1537.43 262.39 1602.38 262.39C1603.87 262.39 1605.51 262.39 1607 262.522L1607 216.071Z" fill="#B5CAC1"/>
<path d="M1459.95 0.999969C1461.21 44.7163 1437.18 87.2644 1395.42 107.494C1384.7 112.595 1372.73 114 1360.87 114H1355V87.3524C1396.76 82.7431 1429.17 47.2451 1429.17 4.07284C1429.17 3.08056 1429.17 1.99225 1429.08 0.999969H1459.95Z" fill="#6C9583"/>
<path d="M1607 528.929C1541.23 530.825 1477.22 494.657 1446.79 431.815C1446.03 430.221 1445.29 428.627 1444.59 427.031C1438.75 413.908 1437 399.461 1437 385.1L1437 371L1477.09 371C1484.02 433.843 1537.43 482.61 1602.38 482.61C1603.87 482.61 1605.51 482.61 1607 482.478L1607 528.929Z" fill="#6C9583"/>
<path d="M1194 3.05176e-05H1221V104H1194.5C1194 96.6838 1194.5 88.9996 1194.01 82.0514V3.05176e-05H1194Z" fill="#B5CAC1"/>
<path d="M1221 3.05176e-05H1249V104H1221.52C1221 96.6838 1221.52 88.9996 1221.01 82.0514V3.05176e-05H1221Z" fill="#6C9583"/>
<path d="M1784.62 0.0361786C1829.62 0.162016 1874.62 -0.0896646 1919.62 0.0361727C1919.33 46.1365 1919.68 92.8911 1919.38 139C1914.96 116.541 1903.32 89.7535 1868.38 52.8229C1834.16 16.6558 1805.67 5.32996 1784.62 0.0361786Z" fill="#3D6652"/>
<path d="M1705 0.0361786C1750 0.162016 1795 -0.0896646 1840 0.0361727C1839.71 46.1365 1840.06 92.8911 1839.76 139C1835.34 116.541 1823.7 89.7535 1788.76 52.8229C1754.54 16.6558 1726.05 5.32996 1705 0.0361786Z" fill="#3D6652"/>
<path d="M1784.62 112.036C1829.62 112.162 1874.62 111.91 1919.62 112.036C1919.32 158.145 1919.67 204.9 1919.38 251C1914.96 228.541 1903.32 201.753 1868.38 164.823C1834.16 128.656 1805.67 117.33 1784.62 112.036Z" fill="#3D6652"/>
<path d="M1740.86 903.856C1727.36 918.129 1719.87 934.958 1719.71 954.298C1719.58 970.665 1714.95 984.542 1703.72 996.305C1696.76 1004.96 1687.11 1008.27 1676.6 1008.97C1666.71 1009.68 1656.74 1009.23 1646.82 1009.1C1645.11 1009.08 1643.32 1009.04 1642 1007.83C1641.98 1007.83 1641.93 1007.8 1641.93 1007.76C1641.91 1007.74 1641.87 1007.69 1641.85 1007.69C1641.82 1007.67 1641.82 1007.67 1641.82 1007.67C1641.85 1007.67 1641.85 1007.67 1641.89 1007.67C1641.91 1007.65 1641.96 1007.6 1641.98 1007.58C1641.98 893.855 1642 780.105 1642 666.377C1673.15 665.959 1701.01 675.651 1725.77 694.198C1754.3 715.587 1772.4 744.046 1778.75 778.982C1787.45 826.759 1774.3 868.612 1740.86 903.856Z" fill="#A1C6B5"/>
<path d="M1642 666.4C1642 780.127 1641.98 893.877 1641.98 1007.6C1641.96 1007.63 1641.91 1007.67 1641.89 1007.69C1641.87 1007.69 1641.87 1007.69 1641.82 1007.69C1632.99 1007.67 1624.16 1007.49 1615.37 1007.69C1602.06 1007.96 1590.15 1004.5 1580.19 995.358C1569.9 985.644 1564.64 973.573 1564.71 959.563C1564.82 936.17 1556.55 916.83 1540.19 899.957C1518.47 877.533 1506.4 850.175 1503.67 818.962C1499.66 772.924 1513.95 733.605 1548.07 702.216C1571 681.07 1598.43 669.373 1629.69 667.06C1633.78 666.774 1637.86 666.003 1642 666.4Z" fill="#3D6652"/>
<path opacity="0.59" d="M1641.89 1007.69L1641.87 1007.72C1641.67 1007.89 1641.49 1008.05 1641.34 1008.24C1639.93 1009.04 1638.41 1009.12 1636.85 1009.08C1625.26 1008.75 1613.63 1010.09 1602.09 1008C1595.94 1006.88 1590.35 1004.41 1585.12 1001.04C1582.9 999.609 1581.23 997.737 1580.19 995.336C1590.15 1004.48 1602.04 1007.91 1615.37 1007.67C1624.18 1007.47 1632.99 1007.65 1641.82 1007.67C1641.87 1007.69 1641.87 1007.69 1641.89 1007.69Z" fill="#497B62"/>
<path d="M1641.96 1007.6C1651.14 1007.6 1660.33 1007.65 1669.51 1007.63C1680.99 1007.63 1691.72 1003.31 1701.5 997.318C1702.18 996.9 1702.97 996.635 1703.7 996.283C1703.72 1004.01 1703.94 1011.72 1703.87 1019.46C1703.61 1047.28 1680.33 1069.81 1652.51 1069.52C1650.19 1069.5 1647.88 1069.46 1645.57 1069.41C1642.7 1069.37 1640.35 1067.08 1640.33 1064.22C1640.33 1063.69 1640.33 1063.14 1640.33 1062.61C1640.28 1046.55 1640.28 1030.51 1640.33 1014.46C1640.33 1012.08 1640.19 1009.63 1642 1007.67L1641.96 1007.6Z" fill="#A1C6B5"/>
<path d="M1642 1005.58V1062.08C1642 1064.99 1639.69 1067.34 1636.78 1067.41C1626.38 1067.65 1616.03 1067.54 1606.31 1062.59C1589.31 1053.93 1580.92 1039.74 1580.17 1020.98C1579.95 1015.23 1579.99 1009.43 1580.08 1003.66C1580.15 999.609 1584.53 997.01 1588.03 999.058C1596.2 1003.86 1605.39 1005.75 1615.39 1005.58C1624.2 1005.38 1633.01 1005.56 1641.85 1005.58C1641.87 1005.58 1641.87 1005.58 1641.91 1005.58H1642Z" fill="#3D6652"/>
<path d="M1642 546.746V629.768C1642 635.098 1643.44 635.098 1636.96 635.098H1629.88C1626.38 635.098 1623.54 632.081 1623.54 628.424V553.465C1623.54 546.834 1628.67 541.416 1634.93 541.416H1636.96C1643.44 541.416 1642 541.416 1642 546.746Z" fill="#3D6652"/>
<path d="M1660.46 553.465V628.424C1660.46 632.081 1657.26 635.098 1653.32 635.098H1647.66C1641.04 635.098 1642 635.269 1642 629.768V546.746C1642 540.537 1640.63 541.416 1647.66 541.416C1654.69 541.416 1660.46 546.834 1660.46 553.465Z" fill="#A1C6B5"/>
<path d="M1760.11 685.453C1752.93 678.272 1752.93 666.554 1760.11 659.373L1800.29 619.195C1807.47 612.014 1819.19 612.014 1826.37 619.195C1833.55 626.376 1833.55 638.094 1826.37 645.275L1786.19 685.453C1779.03 692.612 1767.29 692.612 1760.11 685.453Z" fill="#A1C6B5"/>
<path d="M1812.29 799.974C1812.29 789.842 1820.6 781.537 1830.73 781.537H1887.54C1897.67 781.537 1905.98 789.842 1905.98 799.974C1905.98 810.107 1897.67 818.411 1887.54 818.411H1830.73C1820.58 818.411 1812.29 810.107 1812.29 799.974Z" fill="#A1C6B5"/>
<path d="M1378 805.481C1378 795.348 1386.3 787.044 1396.44 787.044H1453.25C1463.38 787.044 1471.68 795.348 1471.68 805.481C1471.68 815.613 1463.38 823.918 1453.25 823.918H1396.44C1386.3 823.918 1378 815.613 1378 805.481Z" fill="#3D6652"/>
<path d="M1455.74 619.216C1462.92 612.036 1474.63 612.036 1481.82 619.216L1521.99 659.395C1529.17 666.576 1529.17 678.294 1521.99 685.475C1514.81 692.656 1503.09 692.656 1495.91 685.475L1455.74 645.275C1448.58 638.116 1448.58 626.375 1455.74 619.216Z" fill="#3D6652"/>
<path d="M1344.68 606.699C1344.97 607.376 1345.27 608.054 1345.59 608.725C1345.94 609.454 1346.31 610.165 1346.69 610.871C1358.4 632.311 1384.92 641.014 1407.1 630.262C1429.26 619.522 1438.97 593.324 1429.58 570.797C1429.26 570.028 1428.92 569.271 1428.56 568.514C1428.23 567.843 1427.89 567.188 1427.54 566.539C1425.38 562.538 1422.7 558.969 1419.63 555.896L1426.66 543.79L1436.57 527L1421.08 527L1408.78 547.837C1396.17 540.899 1380.97 540.221 1367.04 546.977C1344.8 557.757 1335.1 584.132 1344.68 606.699ZM1387.07 554.854C1405.65 554.854 1420.72 569.971 1420.72 588.623C1420.72 607.274 1405.65 622.391 1387.07 622.391C1368.49 622.391 1353.43 607.274 1353.43 588.623C1353.43 569.971 1368.5 554.854 1387.07 554.854Z" fill="#3D6652"/>
<g clip-path="url(#clip0_260_64)">
<path d="M1919.62 216H1607V528.62H1919.62V216Z" fill="#90AFA1"/>
<path d="M1846.78 272.42C1841.48 272.57 1836.16 272.45 1830.86 272.45C1830.03 271.2 1830.19 269.94 1830.78 268.66C1830.98 264.73 1830.65 260.79 1831.22 256.86C1831.61 254.24 1830.83 252.05 1828.46 250.6H1763.31V494.01C1781.29 494.01 1799.28 494.01 1817.26 494.01C1821.88 494.01 1824.64 491.26 1824.65 486.65C1824.66 483.87 1824.61 481.1 1824.59 478.33C1824.61 472.24 1824.66 466.15 1824.65 460.06C1824.64 455.45 1821.87 452.7 1817.25 452.66C1813.06 452.62 1808.87 452.62 1804.68 452.6C1795.74 444.61 1786.84 436.56 1777.82 428.65C1776.1 427.14 1775.31 425.52 1775.33 423.33C1775.36 420.41 1775.58 417.46 1775.27 414.57C1774.85 410.68 1775.75 407.99 1780.05 407.38C1780.34 407.34 1780.6 407.08 1780.88 406.93C1787.14 404.19 1792.96 400.74 1798.38 396.55C1802.97 393 1806.93 388.83 1810.85 384.59C1813.54 384.67 1816.21 384.39 1818.89 384.29C1826.89 384 1834.29 381.84 1841.17 377.84C1853 370.95 1861.03 360.98 1864.52 347.73C1868.07 334.24 1871.2 320.62 1874.38 307.03C1878.66 288.75 1864.17 271.95 1846.78 272.42ZM1857.5 303.11C1854.48 316.37 1851.53 329.66 1847.89 342.76C1844.29 355.71 1835.74 363.76 1822.51 366.45C1822.55 366.37 1822.58 366.3 1822.62 366.23C1826.66 357.34 1828.66 348 1829.25 338.26C1829.6 332.57 1829.46 326.89 1829.71 321.21C1830.15 311.43 1830.69 301.65 1830.58 291.85C1830.62 291.57 1830.66 291.29 1830.68 291.01C1832.19 289.5 1834.29 289.7 1836.38 289.74C1839.78 289.82 1843.18 289.74 1846.58 289.77C1853.95 289.81 1859.13 295.9 1857.5 303.11Z" fill="#B5CAC1"/>
<path d="M1698.19 250.6C1695.99 251.9 1695.2 253.8 1695.35 256.36C1695.67 261.71 1696.07 267.07 1695.77 272.43C1690.54 272.44 1685.31 272.55 1680.08 272.41C1675.02 272.27 1670.42 273.58 1666 275.94C1655.84 281.37 1649.63 294.11 1651.97 305.19C1654.92 319.16 1658.39 333.01 1661.91 346.84C1665.93 362.58 1675.71 373.53 1690.35 380.3C1698.45 384.05 1707.07 384.66 1715.81 384.61C1725.12 395.51 1736.31 403.75 1749.88 408.62C1750.92 408.99 1751.36 409.59 1751.35 410.72C1751.31 415.15 1751.36 419.58 1751.31 424C1751.3 425.63 1750.74 427.07 1749.43 428.18C1747.68 429.65 1745.97 431.18 1744.26 432.7C1736.83 439.31 1729.4 445.94 1721.97 452.56L1721.94 452.65C1717.42 452.65 1712.91 452.62 1708.4 452.66C1704.4 452.69 1701.54 455.54 1701.53 459.57C1701.49 468.76 1701.49 477.95 1701.53 487.14C1701.54 491.15 1704.43 493.96 1708.44 494.01C1710.42 494.04 1712.4 494.02 1714.38 494.02C1729.1 494.02 1743.81 494.03 1758.53 494.03H1763.31V250.6H1698.19ZM1703.19 366.32C1689.63 362.97 1681.56 354.22 1678.18 340.88C1676.99 336.2 1675.92 331.5 1674.8 326.8C1672.95 319.03 1670.96 311.29 1669.22 303.5C1667.54 295.97 1672.5 289.8 1680.12 289.76C1684.55 289.74 1688.98 289.77 1693.41 289.75C1694.17 289.75 1694.97 289.84 1695.67 289.52C1696.52 296.01 1696.06 302.56 1696.39 309.09C1696.89 319.33 1696.9 329.6 1697.46 339.85C1697.96 349.2 1700.29 358.08 1704.12 366.6C1703.82 366.48 1703.51 366.4 1703.19 366.32Z" fill="#6C9583"/>
<path d="M1763.31 284.22L1775.91 309.75L1804.08 313.84L1783.69 333.71L1788.51 361.77L1763.31 348.52L1738.11 361.77L1742.92 333.71L1722.54 313.84L1750.71 309.75L1763.31 284.22Z" fill="#497B62"/>
</g>
<path d="M1437.44 217H1125V529.444H1437.44V217Z" fill="#90AFA1"/>
<path d="M1332.49 389.153L1380.91 473.006C1382.95 476.554 1379.69 480.811 1375.73 479.752L1343.42 471.097C1340.97 470.437 1338.44 471.896 1337.78 474.345L1329.13 506.657C1328.07 510.615 1322.75 511.314 1320.7 507.766L1272.29 423.913C1271.02 421.715 1271.77 418.896 1273.97 417.627L1326.21 387.464C1328.42 386.205 1331.22 386.954 1332.49 389.153Z" fill="#497B62"/>
<path d="M1229.24 389.153L1180.83 473.006C1178.78 476.554 1182.05 480.811 1186.01 479.752L1218.32 471.097C1220.77 470.437 1223.29 471.896 1223.95 474.345L1232.61 506.657C1233.67 510.615 1238.99 511.314 1241.03 507.766L1289.45 423.913C1290.72 421.715 1289.97 418.896 1287.77 417.627L1235.53 387.464C1233.32 386.205 1230.51 386.954 1229.24 389.153Z" fill="#497B62"/>
<path d="M1281.22 249.791C1282.51 249.791 1283.79 249.472 1285.13 248.842C1293.2 245.024 1301.31 241.316 1309.41 237.568C1314.28 235.31 1317.13 236.189 1319.86 240.826C1324.57 248.832 1329.32 256.817 1333.94 264.883C1335.45 267.511 1337.52 268.941 1340.46 269.51C1349.78 271.359 1359.09 273.308 1368.4 275.247C1373.05 276.217 1374.92 278.625 1374.42 283.342C1373.43 292.657 1372.35 301.972 1371.24 311.267C1370.93 313.855 1371.61 315.954 1373.33 317.913C1379.28 324.679 1385.14 331.515 1391.04 338.332C1394.63 342.469 1394.64 345.208 1391.11 349.315C1385.09 356.311 1379.11 363.328 1373.07 370.314C1371.54 372.083 1370.88 373.992 1371.18 376.36C1372.3 385.585 1373.39 394.82 1374.37 404.065C1374.93 409.372 1373.14 411.69 1367.99 412.76C1358.75 414.679 1349.52 416.648 1340.27 418.447C1337.45 418.996 1335.51 420.335 1334.08 422.804C1329.44 430.77 1324.7 438.685 1320 446.621C1317.09 451.528 1314.37 452.377 1309.26 449.999C1301.09 446.221 1292.92 442.473 1284.76 438.665C1283.56 438.105 1282.4 437.826 1281.23 437.836" fill="#B5CAC1"/>
<path d="M1281.22 437.846C1280.09 437.856 1278.97 438.135 1277.8 438.675C1269.6 442.533 1261.34 446.301 1253.11 450.099C1248.21 452.357 1245.34 451.468 1242.64 446.87C1237.95 438.845 1233.22 430.839 1228.6 422.784C1227.21 420.375 1225.31 419.056 1222.6 418.526C1213.12 416.667 1203.68 414.689 1194.21 412.77C1191.65 412.25 1189.26 411.27 1188.48 408.612C1187.97 406.853 1187.99 404.854 1188.19 403.005C1189.13 394.12 1190.19 385.255 1191.25 376.39C1191.52 374.141 1190.97 372.212 1189.48 370.503C1186.85 367.465 1184.2 364.417 1181.63 361.319C1177.29 356.102 1173 350.844 1168.71 345.607V342.089C1169.97 340.42 1171.16 338.681 1172.52 337.092C1178.05 330.646 1183.63 324.219 1189.21 317.833C1190.85 315.954 1191.55 313.915 1191.25 311.387C1190.1 301.942 1189 292.487 1188.02 283.023C1187.56 278.595 1189.58 276.166 1193.95 275.267C1203.35 273.348 1212.72 271.379 1222.12 269.53C1225.14 268.941 1227.23 267.441 1228.76 264.743C1233.34 256.657 1238.06 248.642 1242.74 240.616C1245.25 236.309 1248.18 235.359 1252.68 237.418C1260.91 241.206 1269.17 244.974 1277.36 248.852C1278.69 249.471 1279.96 249.781 1281.22 249.781" fill="#6C9583"/>
<path d="M1281.15 387.244L1266.11 387.384L1261.58 387.434L1259.35 382.577L1240.72 341.989H1260.39L1269.99 361.109L1281.15 387.244Z" fill="#497B62"/>
<path d="M1321.72 300.233L1281.15 387.244L1269.99 361.109L1300.13 300.233H1321.72Z" fill="#497B62"/>
</g>
<defs>
<clipPath id="clip0_260_64">
<rect width="312.62" height="312.62" fill="white" transform="translate(1607 216)"/>
</clipPath>
</defs>
</svg>
