<svg width="118" height="137" viewBox="0 0 118 137" fill="none" xmlns="http://www.w3.org/2000/svg">
<path d="M59.2 28.8665H117.857V125.028C117.857 131.156 113.02 136.196 107.174 136.196H59.2" fill="#90AFA2"/>
<path d="M59.1999 136.196H11.2258C5.27942 136.196 0.54248 131.255 0.54248 125.028V28.8665H59.1999" fill="#6C9583"/>
<path d="M25.235 60.7886H11.9313C11.125 60.7886 10.5203 60.1956 10.5203 59.405V50.6091C10.5203 49.8185 11.125 49.2255 11.9313 49.2255H25.235C26.0413 49.2255 26.646 49.8185 26.646 50.6091V59.405C26.646 60.1956 26.0413 60.7886 25.235 60.7886Z" fill="#DAE5E0"/>
<path d="M106.569 60.7886H93.2655C92.4592 60.7886 91.8545 60.1956 91.8545 59.405V50.6091C91.8545 49.8185 92.4592 49.2255 93.2655 49.2255H106.569C107.376 49.2255 107.98 49.8185 107.98 50.6091V59.405C107.98 60.1956 107.275 60.7886 106.569 60.7886Z" fill="#DAE5E0"/>
<path d="M79.4577 60.7886H66.1539C65.3476 60.7886 64.7429 60.1956 64.7429 59.405V50.6091C64.7429 49.8185 65.3476 49.2255 66.1539 49.2255H79.4577C80.2639 49.2255 80.8687 49.8185 80.8687 50.6091V59.405C80.8687 60.1956 80.1632 60.7886 79.4577 60.7886Z" fill="#DAE5E0"/>
<path d="M52.3466 60.7886H39.0428C38.2366 60.7886 37.6318 60.1956 37.6318 59.405V50.6091C37.6318 49.8185 38.2366 49.2255 39.0428 49.2255H52.3466C53.1529 49.2255 53.7576 49.8185 53.7576 50.6091V59.405C53.7576 60.1956 53.1529 60.7886 52.3466 60.7886Z" fill="#DAE5E0"/>
<path d="M25.235 81.9383H11.9313C11.125 81.9383 10.5203 81.3453 10.5203 80.5547V71.7588C10.5203 70.9681 11.125 70.3752 11.9313 70.3752H25.235C26.0413 70.3752 26.646 70.9681 26.646 71.7588V80.5547C26.646 81.2465 26.0413 81.9383 25.235 81.9383Z" fill="#DAE5E0"/>
<path d="M106.569 81.9383H93.2655C92.4592 81.9383 91.8545 81.3453 91.8545 80.5547V71.7588C91.8545 70.9681 92.4592 70.3752 93.2655 70.3752H106.569C107.376 70.3752 107.98 70.9681 107.98 71.7588V80.5547C107.98 81.2465 107.275 81.9383 106.569 81.9383Z" fill="#DAE5E0"/>
<path d="M79.4577 81.9383H66.1539C65.3476 81.9383 64.7429 81.3453 64.7429 80.5547V71.7588C64.7429 70.9681 65.3476 70.3752 66.1539 70.3752H79.4577C80.2639 70.3752 80.8687 70.9681 80.8687 71.7588V80.5547C80.8687 81.2465 80.1632 81.9383 79.4577 81.9383Z" fill="#DAE5E0"/>
<path d="M52.3466 81.9383H39.0428C38.2366 81.9383 37.6318 81.3453 37.6318 80.5547V71.7588C37.6318 70.9681 38.2366 70.3752 39.0428 70.3752H52.3466C53.1529 70.3752 53.7576 70.9681 53.7576 71.7588V80.5547C53.7576 81.2465 53.1529 81.9383 52.3466 81.9383Z" fill="#DAE5E0"/>
<path d="M25.235 102.989H11.9313C11.125 102.989 10.5203 102.396 10.5203 101.606V92.8096C10.5203 92.019 11.125 91.426 11.9313 91.426H25.235C26.0413 91.426 26.646 92.019 26.646 92.8096V101.606C26.646 102.297 26.0413 102.989 25.235 102.989Z" fill="#DAE5E0"/>
<path d="M106.569 102.989H93.2655C92.4592 102.989 91.8545 102.396 91.8545 101.606V92.8096C91.8545 92.019 92.4592 91.426 93.2655 91.426H106.569C107.376 91.426 107.98 92.019 107.98 92.8096V101.606C107.98 102.297 107.275 102.989 106.569 102.989Z" fill="#DAE5E0"/>
<path d="M79.4577 102.989H66.1539C65.3476 102.989 64.7429 102.396 64.7429 101.606V92.8096C64.7429 92.019 65.3476 91.426 66.1539 91.426H79.4577C80.2639 91.426 80.8687 92.019 80.8687 92.8096V101.606C80.8687 102.297 80.1632 102.989 79.4577 102.989Z" fill="#DAE5E0"/>
<path d="M52.3466 102.989H39.0428C38.2366 102.989 37.6318 102.396 37.6318 101.606V92.8096C37.6318 92.019 38.2366 91.426 39.0428 91.426H52.3466C53.1529 91.426 53.7576 92.019 53.7576 92.8096V101.606C53.7576 102.297 53.1529 102.989 52.3466 102.989Z" fill="#DAE5E0"/>
<path d="M25.235 124.04H11.9313C11.125 124.04 10.5203 123.447 10.5203 122.656V113.86C10.5203 113.07 11.125 112.477 11.9313 112.477H25.235C26.0413 112.477 26.646 113.07 26.646 113.86V122.656C26.646 123.447 26.0413 124.04 25.235 124.04Z" fill="#DAE5E0"/>
<path d="M52.3466 124.04H39.0428C38.2366 124.04 37.6318 123.447 37.6318 122.656V113.86C37.6318 113.07 38.2366 112.477 39.0428 112.477H52.3466C53.1529 112.477 53.7576 113.07 53.7576 113.86V122.656C53.7576 123.447 53.1529 124.04 52.3466 124.04Z" fill="#DAE5E0"/>
<path d="M59.2 0.798701C60.5102 0.798701 61.6188 1.29285 62.4251 2.18232C63.2314 2.97297 63.8361 4.15893 63.8361 5.34489V16.0186H73.9147V5.54255C73.9147 2.97297 76.132 0.699871 78.7524 0.798701C79.9618 0.897531 80.9697 1.39168 81.776 2.08349C82.5823 2.87414 83.187 4.0601 83.187 5.24606V15.9197H93.2656V5.54255C93.2656 2.97297 95.4829 0.699871 98.1033 0.798701C99.3127 0.897531 100.421 1.39168 101.127 2.08349C101.933 2.87414 102.437 4.0601 102.437 5.24606V15.9197H106.267C112.516 15.9197 117.656 20.9601 117.656 27.0875V36.9706H59.2" fill="#5E9175"/>
<path d="M59.1999 37.1683H0.54248V27.2852C0.54248 21.1578 5.68256 16.1174 11.9313 16.1174H15.7611V5.34493C15.7611 2.87417 17.8776 0.798737 20.3973 0.798737C21.7075 0.798737 22.9169 1.29289 23.7232 2.18236C24.5295 2.973 25.0334 4.15896 25.0334 5.34493V16.0186H35.112V5.54259C35.112 3.36832 36.6238 1.29289 38.8411 0.897567C40.4537 0.601076 41.9655 1.09523 42.9733 2.18236C43.7796 2.973 44.2835 4.15896 44.2835 5.34493V16.0186H54.3621V5.34493C54.3621 2.87417 56.4786 0.798737 58.9983 0.798737" fill="#4B7C63"/>
</svg>
