<svg width="244" height="237" viewBox="0 0 244 237" fill="none" xmlns="http://www.w3.org/2000/svg">
<path d="M209.23 27.9709H30.1926C21.9084 27.9709 15.1926 34.6867 15.1926 42.971V222.008C15.1926 230.293 21.9084 237.008 30.1926 237.008H209.23C217.514 237.008 224.23 230.293 224.23 222.008V42.9709C224.23 34.6867 217.514 27.9709 209.23 27.9709Z" fill="#6C9583"/>
<path d="M30.1755 237.008C17.8842 237.008 10.8101 223.036 18.0856 213.129L71.8681 139.897C77.862 131.735 90.0541 131.735 96.0479 139.897L167.367 237.008H30.1755Z" fill="#B5CAC1"/>
<path d="M118.07 237.008L166.302 171.236C172.296 163.064 184.501 163.064 190.494 171.236L221.222 213.138C228.488 223.046 221.413 237.008 209.126 237.008H118.07Z" fill="#B5CAC1"/>
<path d="M181.42 123.435C215.501 123.435 243.13 95.8061 243.13 61.7245C243.13 27.643 215.501 0.0144043 181.42 0.0144043C147.338 0.0144043 119.71 27.643 119.71 61.7245C119.71 95.8061 147.338 123.435 181.42 123.435Z" fill="#B5CAC1"/>
<path d="M201.676 31.3728C207.027 31.3728 209.954 37.6098 206.535 41.726L166.661 89.7298C165.426 91.2167 163.593 92.0768 161.66 92.0768C156.136 92.0768 153.13 85.622 156.684 81.3932L196.84 33.6249C198.041 32.1971 199.811 31.3728 201.676 31.3728Z" fill="#6C9583"/>
<path d="M161.163 31.3728C155.812 31.3728 152.885 37.6098 156.304 41.726L196.178 89.7298C197.413 91.2167 199.246 92.0768 201.178 92.0768C206.703 92.0768 209.709 85.622 206.154 81.3932L165.998 33.6249C164.798 32.1971 163.028 31.3728 161.163 31.3728Z" fill="#497B62"/>
</svg>
