<svg width="208" height="174" viewBox="0 0 208 174" fill="none" xmlns="http://www.w3.org/2000/svg">
<path d="M140.333 123.667L104 86.9999M104 86.9999L67.6664 123.667M104 86.9999V169.5M180.209 145.575C189.068 140.701 196.067 132.988 200.1 123.654C204.134 114.32 204.972 103.896 202.483 94.0279C199.994 84.1596 194.32 75.4088 186.355 69.1565C178.391 62.9043 168.59 59.5067 158.5 59.4999H147.055C144.305 48.768 139.181 38.8047 132.067 30.359C124.953 21.9134 116.034 15.2052 105.981 10.7388C95.9279 6.27244 85.0024 4.16406 74.0258 4.57219C63.0492 4.98032 52.3071 7.89435 42.6071 13.0952C32.9071 18.2961 24.5016 25.6484 18.0226 34.5994C11.5435 43.5505 7.15953 53.8674 5.20016 64.7744C3.24079 75.6814 3.75705 86.8948 6.71012 97.5715C9.66318 108.248 14.9762 118.11 22.2498 126.417" stroke="#497B62" stroke-width="8" stroke-linecap="round" stroke-linejoin="round"/>
</svg>
