<svg width="194" height="227" viewBox="0 0 194 227" fill="none" xmlns="http://www.w3.org/2000/svg">
<path d="M97.0202 0.700806C97.6161 0.700806 98.189 0.700806 98.7848 0.700806C110.082 2.1216 120.647 6.36108 131.486 9.50059C148.581 14.4505 165.585 19.6983 182.635 24.7856C184.537 25.3585 186.462 25.8856 188.272 26.6648C191.435 28.0397 193.245 30.4688 193.451 33.975C193.497 34.8458 193.474 35.7395 193.474 36.6333C193.474 68.3262 193.474 100.019 193.474 131.712C193.474 140.649 190.953 148.945 186.92 156.851C180.183 170.074 170.146 180.546 159.031 190.079C142.463 204.287 123.992 215.585 104.445 225.164C102.612 226.058 100.733 226.608 98.7389 226.86C97.9598 226.951 97.112 227.181 96.5162 226.379C95.7828 225.072 95.9661 223.652 95.9661 222.277C95.9431 209.123 95.9433 195.969 95.9433 182.792C95.9433 123.829 95.9431 64.8659 95.9661 5.90276C95.9431 4.11531 95.439 2.16744 97.0202 0.700806Z" fill="#6C9583"/>
<path d="M97.0206 0.700584C97.0206 76.0029 97.0206 151.305 97.0206 226.607C94.7978 227.272 92.6666 226.562 90.7875 225.622C71.2172 216.089 52.7009 204.883 35.995 190.813C26.5078 182.815 17.8455 174.061 11.0852 163.565C4.21041 152.932 0.452198 141.474 0.520946 128.641C0.704275 97.6128 0.589669 66.5615 0.566753 35.5331C0.566753 32.5998 1.16257 30.0103 3.50001 28.0166C4.4854 27.1916 5.56244 26.6187 6.777 26.252C29.1202 19.5834 51.4404 12.869 73.7607 6.15462C76.5794 5.30672 79.4211 4.52757 82.194 3.58801C86.5939 2.09847 91.1082 1.22765 95.6914 0.631836C96.1498 0.700584 96.5852 0.700584 97.0206 0.700584Z" fill="#4B7C63"/>
<path d="M96.9251 155.8L78.8893 155.95L73.4586 156.024L70.7682 150.195L48.4226 101.512H72.0137L83.5227 124.458L96.9251 155.8Z" fill="#6C9583"/>
<path d="M145.577 51.4348L96.9253 155.8L83.5229 124.458L119.669 51.4348H145.577Z" fill="#B5CBC2"/>
</svg>
