<svg width="256" height="391" viewBox="0 0 256 391" fill="none" xmlns="http://www.w3.org/2000/svg">
<g clip-path="url(#clip0_838_322)">
<path d="M170.159 385.648L31.7701 364.74C14.8245 362.18 2.98689 346.401 5.57828 329.249L50.5503 31.5785C53.1417 14.4261 68.8951 2.81537 86.058 5.40834L224.447 26.3162C241.393 28.8764 253.013 44.6227 250.422 61.7751L205.45 359.445C202.891 376.381 187.105 388.208 170.159 385.648Z" fill="#4B7C63"/>
<path d="M168.049 377.557L36.1771 357.634C21.4039 355.402 11.042 341.622 13.3053 326.641L57.1293 36.5697C59.3598 21.8056 73.1456 11.4522 88.136 13.717L220.008 33.6402C234.781 35.8721 245.143 49.6517 242.88 64.6329L199.023 354.921C196.792 369.685 182.822 379.789 168.049 377.557Z" fill="#DAE5E0"/>
<path d="M185.611 45.0991L117.394 34.7929C112.398 34.038 109.078 29.539 109.832 24.5453L112.128 9.34692L198.16 22.3446L195.864 37.5429C195.109 42.5367 190.608 45.854 185.611 45.0991Z" fill="#4B7C63"/>
<path d="M135.813 144.507C136.511 144.612 137.236 144.543 138.015 144.314C142.716 142.903 147.429 141.55 152.139 140.175C154.977 139.35 156.45 140.062 157.555 142.809C159.455 147.548 161.387 152.282 163.237 157.049C163.844 158.599 164.848 159.547 166.401 160.103C171.32 161.876 176.221 163.697 181.122 165.514C183.571 166.419 184.389 167.889 183.728 170.411C182.424 175.395 181.076 180.368 179.704 185.331C179.322 186.712 179.523 187.915 180.295 189.118C182.975 193.286 185.599 197.487 188.251 201.672C189.866 204.216 189.645 205.707 187.383 207.65C183.538 210.96 179.706 214.283 175.851 217.586C174.873 218.423 174.362 219.406 174.328 220.717C174.178 225.824 174.013 230.935 173.787 236.041C173.655 238.974 172.492 240.088 169.608 240.244C164.425 240.527 159.247 240.841 154.068 241.058C152.488 241.126 151.326 241.695 150.345 242.918C147.168 246.87 143.94 250.783 140.731 254.71C138.747 257.138 137.196 257.378 134.609 255.666C130.482 252.942 126.343 250.231 122.222 247.497C121.62 247.095 121.009 246.85 120.37 246.758" fill="#B5CAC1"/>
<path d="M120.367 246.753C119.753 246.665 119.117 246.722 118.439 246.926C113.659 248.351 108.867 249.723 104.074 251.105C101.226 251.929 99.7384 251.209 98.6507 248.485C96.757 243.737 94.8469 238.996 92.9912 234.233C92.4364 232.808 91.512 231.939 90.0749 231.426C85.0767 229.641 80.1047 227.783 75.1167 225.964C73.7678 225.474 72.552 224.745 72.3474 223.23C72.2178 222.231 72.392 221.146 72.6481 220.16C73.8866 215.405 75.1934 210.671 76.5002 205.937C76.8301 204.733 76.6883 203.645 76.0207 202.596C74.8341 200.729 73.6483 198.856 72.5018 196.959C70.5771 193.767 68.6753 190.557 66.7678 187.352L67.0571 185.438C67.8822 184.634 68.6735 183.785 69.5418 183.034C73.0778 179.983 76.6372 176.946 80.2029 173.935C81.2498 173.048 81.796 171.998 81.8393 170.597C81.987 165.367 82.1653 160.136 82.4142 154.911C82.5279 152.47 83.8244 151.314 86.2715 151.184C91.5345 150.914 96.797 150.612 102.054 150.381C103.748 150.311 105.008 149.665 106.062 148.325C109.214 144.303 112.44 140.338 115.642 136.355C117.357 134.222 119.031 133.945 121.309 135.436C125.475 138.172 129.659 140.895 133.792 143.682C134.459 144.129 135.126 144.403 135.814 144.507" fill="#6C9583"/>
<path d="M124.484 219.231L116.296 218.07L113.828 217.728L113.016 214.902L106.223 191.31L116.912 192.925L120.562 204.109L124.484 219.231Z" fill="#497B62"/>
<path d="M153.688 175.257L124.484 219.23L120.562 204.109L141.951 173.483L153.688 175.257Z" fill="#497B62"/>
</g>
<defs>
<clipPath id="clip0_838_322">
<rect width="202.14" height="363.41" fill="white" transform="translate(55.2083 0.747559) rotate(8.59128)"/>
</clipPath>
</defs>
</svg>
