<svg width="168" height="216" viewBox="0 0 168 216" fill="none" xmlns="http://www.w3.org/2000/svg">
<path d="M56.6938 2.00513V196.591H67.3638V11.6472H156.087V196.591H166.752V2.00513H56.6938Z" fill="#C4C4C4" stroke="#497B62" stroke-miterlimit="10"/>
<path d="M55.5776 2.00513V196.591H66.2476V11.6472H154.97V196.591H165.64V2.00513H55.5776Z" fill="#497B62"/>
<path d="M66.7515 196.5H166.251" stroke="#2B5540"/>
<path d="M4.39486 112.538C4.39486 114.017 3.5791 115.215 2.57316 115.215C1.56723 115.215 0.751465 114.017 0.751465 112.538C0.751465 111.06 1.56723 109.862 2.57316 109.862C3.5791 109.862 4.39486 111.065 4.39486 112.538Z" fill="white" stroke="#497B62" stroke-miterlimit="10"/>
<path d="M6.05615 1.0979V215.314L66.2473 196.376V11.6471L6.05615 1.0979Z" fill="#B5CAC1" stroke="#497B62" stroke-miterlimit="10"/>
<path d="M6.05161 1.0979H2.58838V215.314H6.05161V1.0979Z" fill="#B5CAC1" stroke="#497B62" stroke-miterlimit="10"/>
<path d="M5.43569 116.498L3.14355 116.232V109.642L5.43569 109.902V116.498Z" fill="#497B62" stroke="#497B62" stroke-miterlimit="10"/>
<path d="M12.908 113.19C12.908 114.979 11.7018 116.432 10.2155 116.432C8.72907 116.432 7.52295 114.979 7.52295 113.19C7.52295 111.401 8.72907 109.948 10.2155 109.948C11.7018 109.948 12.908 111.401 12.908 113.19Z" fill="white" stroke="#497B62" stroke-miterlimit="10"/>
<path d="M13.0633 113.19C13.0633 114.328 12.2976 115.25 11.3517 115.25C10.4059 115.25 9.64014 114.328 9.64014 113.19C9.64014 112.052 10.4059 111.13 11.3517 111.13C12.2976 111.13 13.0633 112.052 13.0633 113.19Z" fill="white" stroke="#497B62" stroke-miterlimit="10"/>
<path d="M16.4514 113.19C16.4514 114.979 15.2453 116.432 13.7589 116.432C12.2725 116.432 11.0664 114.979 11.0664 113.19C11.0664 111.401 12.2725 109.948 13.7589 109.948C15.2453 109.948 16.4514 111.401 16.4514 113.19Z" fill="white" stroke="#497B62" stroke-miterlimit="10"/>
<path d="M17.7471 19.4297V107.296L57.6643 104.129V25.674L17.7471 19.4297Z" stroke="#497B62" stroke-miterlimit="10"/>
<path d="M19.834 24.0203V102.706L55.5773 99.8692V29.1621L19.834 24.0203Z" stroke="#497B62" stroke-miterlimit="10"/>
<path d="M17.7471 19.4297L19.834 24.0202" stroke="#497B62" stroke-miterlimit="10"/>
<path d="M57.6641 25.6741L55.5771 29.1621" stroke="#497B62" stroke-miterlimit="10"/>
<path d="M55.5771 99.8694L57.6641 104.129" stroke="#497B62" stroke-miterlimit="10"/>
<path d="M19.834 102.706L17.7471 107.296" stroke="#497B62" stroke-miterlimit="10"/>
<path d="M17.7471 125.072V185.576L57.6643 176.194V120.662L17.7471 125.072Z" stroke="#497B62" stroke-miterlimit="10"/>
<path d="M19.834 129.663V180.985L55.5773 172.937V125.152L19.834 129.663Z" stroke="#497B62" stroke-miterlimit="10"/>
<path d="M17.7471 125.072L19.834 129.663" stroke="#497B62" stroke-miterlimit="10"/>
<path d="M57.6641 120.662L55.5771 125.152" stroke="#497B62" stroke-miterlimit="10"/>
<path d="M55.5771 172.937L57.6641 176.194" stroke="#497B62" stroke-miterlimit="10"/>
<path d="M19.834 180.985L17.7471 185.576" stroke="#497B62" stroke-miterlimit="10"/>
</svg>
