<?xml version="1.0" standalone="no"?>
<!DOCTYPE svg PUBLIC "-//W3C//DTD SVG 20010904//EN"
 "http://www.w3.org/TR/2001/REC-SVG-20010904/DTD/svg10.dtd">
<svg version="1.0" xmlns="http://www.w3.org/2000/svg"
 width="517.000000pt" height="517.000000pt" viewBox="0 0 517.000000 517.000000"
 preserveAspectRatio="xMidYMid meet">
<metadata>
Created by potrace 1.14, written by Peter Selinger 2001-2017
</metadata>
<g transform="translate(0.000000,517.000000) scale(0.100000,-0.100000)"
fill="#000000" stroke="none">
<path d="M2271 5148 c-289 -47 -563 -185 -769 -386 -108 -106 -139 -143 -209
-250 -315 -478 -317 -1101 -6 -1587 58 -90 119 -163 208 -250 121 -118 174
-157 345 -253 118 -65 341 -133 488 -148 221 -22 427 -135 557 -304 204 -265
212 -641 19 -912 -53 -75 -74 -97 -153 -160 -242 -193 -574 -225 -841 -80 -57
32 -128 80 -160 109 -14 13 -27 23 -30 23 -15 0 -508 -506 -502 -515 20 -28
137 -118 212 -163 183 -109 398 -196 600 -243 102 -24 338 -32 450 -16 177 25
426 119 593 224 85 53 204 153 289 241 189 199 321 458 383 754 14 68 20 153
20 273 0 138 -6 201 -30 305 -9 36 -18 75 -20 87 -20 91 -105 281 -176 396
-49 79 -155 218 -171 225 -17 7 -6 21 47 61 73 55 193 180 265 276 109 145
228 416 255 580 21 123 25 167 25 271 1 92 -14 255 -26 296 -3 10 -7 30 -10
45 -3 16 -21 75 -40 132 -169 507 -602 877 -1139 971 -116 21 -344 20 -474 -2z
m408 -783 c205 -53 375 -206 455 -408 103 -260 25 -569 -188 -752 -402 -343
-1026 -108 -1103 415 -24 165 17 339 116 484 33 49 121 134 177 171 66 44 191
95 252 102 26 3 49 7 51 9 10 9 184 -6 240 -21z"/>
<path d="M3375 5074 c186 -94 387 -259 516 -426 70 -92 155 -232 184 -306 10
-24 20 -41 22 -38 3 3 6 185 7 405 l3 401 -401 0 -401 -1 70 -35z"/>
</g>
</svg>
