<?xml version="1.0" standalone="no"?>
<!DOCTYPE svg PUBLIC "-//W3C//DTD SVG 20010904//EN"
 "http://www.w3.org/TR/2001/REC-SVG-20010904/DTD/svg10.dtd">
<svg version="1.0" xmlns="http://www.w3.org/2000/svg"
 width="1024.000000pt" height="1024.000000pt" viewBox="0 0 1024.000000 1024.000000"
 preserveAspectRatio="xMidYMid meet">
<metadata>
Created by potrace 1.14, written by Peter Selinger 2001-2017
</metadata>
<g transform="translate(0.000000,1024.000000) scale(0.100000,-0.100000)"
fill="#000000" stroke="none">
<path d="M0 5120 l0 -5120 5120 0 5120 0 0 5120 0 5120 -5120 0 -5120 0 0
-5120z m5201 3150 c532 -54 1009 -339 1304 -780 108 -162 158 -266 221 -460
97 -299 106 -661 24 -972 -94 -359 -296 -678 -581 -919 l-97 -81 62 -77 c103
-127 152 -202 220 -332 84 -161 119 -253 161 -424 47 -191 59 -307 52 -489
-22 -589 -314 -1121 -792 -1445 -228 -155 -469 -254 -750 -307 -124 -24 -387
-24 -510 0 -277 54 -586 177 -837 333 -72 45 -228 170 -228 183 0 8 607 614
618 618 5 1 30 -16 56 -39 110 -97 288 -183 445 -214 113 -23 304 -16 411 15
294 85 520 281 633 550 57 139 71 207 71 365 0 158 -12 224 -71 365 -132 315
-412 525 -768 575 -395 56 -691 183 -966 417 -184 156 -349 370 -454 589 -83
173 -148 426 -164 637 -56 759 394 1481 1101 1767 271 110 560 153 839 125z
m1784 -74 c0 0 -1 -223 -3 -493 l-3 -493 -69 136 c-173 339 -452 623 -786 800
-49 26 -92 50 -96 53 -4 4 210 5 475 3 265 -2 482 -5 482 -6z"/>
<path d="M4925 7319 c-224 -32 -432 -157 -559 -334 -56 -78 -87 -141 -122
-245 -25 -77 -28 -98 -28 -235 -1 -131 2 -160 23 -225 49 -156 113 -261 228
-371 168 -162 361 -235 598 -226 101 3 135 9 215 36 131 44 229 102 320 191
292 283 337 711 111 1053 -123 188 -352 328 -582 357 -94 11 -119 11 -204 -1z"/>
</g>
</svg>
