<svg width="300" height="104" viewBox="0 0 300 104" fill="none" xmlns="http://www.w3.org/2000/svg">
<path d="M299.999 0.506348H196.506V104H299.999V0.506348Z" fill="#90AFA1"/>
<path d="M247.94 10.4329C248.167 10.4329 248.384 10.4329 248.611 10.4329C252.904 10.9728 256.919 12.5839 261.038 13.777C267.535 15.6581 273.997 17.6523 280.476 19.5857C281.199 19.8034 281.93 20.0037 282.618 20.2998C283.82 20.8223 284.508 21.7454 284.586 23.0778C284.604 23.4088 284.595 23.7484 284.595 24.088C284.595 36.1321 284.595 48.1762 284.595 60.2202C284.595 63.6166 283.637 66.7691 282.104 69.7736C279.544 74.7985 275.73 78.7784 271.506 82.4012C265.21 87.8005 258.19 92.0939 250.762 95.7341C250.065 96.0737 249.351 96.2828 248.593 96.3785C248.297 96.4134 247.975 96.5005 247.749 96.1957C247.47 95.6993 247.54 95.1593 247.54 94.6368C247.531 89.638 247.531 84.6393 247.531 79.6318C247.531 57.2244 247.531 34.8171 247.54 12.4097C247.531 11.7305 247.339 10.9902 247.94 10.4329Z" fill="#6C9583"/>
<path d="M247.94 10.4331C247.94 39.0497 247.94 67.6664 247.94 96.283C247.095 96.5355 246.285 96.2656 245.571 95.9085C238.134 92.2857 231.098 88.0272 224.749 82.6801C221.144 79.6408 217.852 76.3141 215.283 72.3255C212.67 68.2847 211.242 63.9304 211.268 59.0535C211.338 47.262 211.294 35.4618 211.285 23.6703C211.285 22.5556 211.512 21.5715 212.4 20.8138C212.775 20.5003 213.184 20.2826 213.645 20.1433C222.136 17.609 230.619 15.0574 239.101 12.5058C240.172 12.1835 241.252 11.8875 242.306 11.5304C243.978 10.9643 245.693 10.6334 247.435 10.407C247.609 10.4331 247.775 10.4331 247.94 10.4331Z" fill="#3D6652"/>
<path d="M158.854 82.622C147.135 82.622 137.636 92.1927 137.636 104C137.636 92.1927 128.137 82.622 116.418 82.622C128.137 82.622 137.636 73.0513 137.636 61.2443C137.636 73.0472 147.135 82.622 158.854 82.622Z" fill="#497B62"/>
<path d="M158.854 46.0885C147.135 46.0885 137.636 55.5877 137.636 67.3066C137.636 55.5877 128.137 46.0885 116.418 46.0885C128.137 46.0885 137.636 36.5892 137.636 24.8703C137.636 36.5892 147.135 46.0885 158.854 46.0885Z" fill="#497B62"/>
<path d="M196.505 82.622C184.786 82.622 175.287 92.1927 175.287 104C175.287 92.1927 165.787 82.622 154.068 82.622C165.787 82.622 175.287 73.0513 175.287 61.2443C175.282 73.0472 184.786 82.622 196.505 82.622Z" fill="#497B62"/>
<path d="M196.505 46.0885C184.786 46.0885 175.287 55.5877 175.287 67.3066C175.287 55.5877 165.787 46.0885 154.068 46.0885C165.787 46.0885 175.287 36.5892 175.287 24.8703C175.282 36.5892 184.786 46.0885 196.505 46.0885Z" fill="#497B62"/>
<path d="M58.9918 104L116.756 104L116.756 45.9625L58.9918 45.9625L58.9918 104Z" fill="#6C9583"/>
<path d="M58.9925 59.6465L58.9925 45.9625L65.0238 45.9625C81.7553 49.1808 96.9288 59.8028 105.632 76.1143C106.095 77.0177 106.603 77.9652 107.014 78.9077C107.424 79.7575 107.795 80.661 108.166 81.5547C111.121 88.719 112.644 96.655 112.82 104L96.9923 104C96.2549 82.1554 79.9044 62.02 58.9925 59.6465Z" fill="#3D6652"/>
<path d="M4.89677 104C4.24725 81.5449 16.6322 59.6954 38.1594 49.3029C40.9871 47.9599 43.8196 46.8464 46.74 45.9625L58.9883 45.9625L58.9883 59.6465C37.4611 62.0102 20.7589 80.2458 20.7589 102.423C20.7589 102.93 20.7589 103.492 20.8078 104L4.89677 104Z" fill="#B5CAC1"/>
<path d="M20.7628 102.423C20.7628 80.2458 37.465 62.0151 58.9922 59.6465L58.9922 104L20.8117 104C20.7628 103.492 20.7628 102.93 20.7628 102.423Z" fill="#3D6652"/>
<path d="M0.954857 104L0.954852 45.9625L46.7441 45.9625C43.8237 46.8415 40.9912 47.955 38.1635 49.3029C16.6363 59.6954 4.25133 81.5449 4.90086 104L0.954857 104Z" fill="#3D6652"/>
</svg>
