<svg width="1920" height="644" viewBox="0 0 1920 644" fill="none" xmlns="http://www.w3.org/2000/svg">
<path d="M0.000135327 277.582L0.00012207 448.219L182.773 448.219L182.773 277.582L0.000135327 277.582Z" fill="#B5CAC1"/>
<path d="M139.679 277.582L182.773 277.582C182.773 290.216 181.884 302.917 178.217 315.007C164.489 360.265 133.122 400.287 87.8183 424.458C84.9731 425.919 81.9894 427.519 79.0211 428.811C76.3451 430.102 73.4998 431.271 70.6853 432.44C48.1233 441.745 23.1312 446.543 0.00012207 447.097L0.000125943 397.251C68.7936 394.929 132.204 343.438 139.679 277.582Z" fill="#3D6652"/>
<path d="M0.000135304 107.236C70.7161 105.19 139.525 144.193 172.253 211.987C180.51 229.371 182.773 248.789 182.773 268.034L182.773 277.581L139.679 277.581C132.235 209.788 74.8071 157.189 4.96778 157.189C3.36829 157.189 1.59962 157.189 0.000131411 157.343L0.000135304 107.236Z" fill="#B5CAC1"/>
<path d="M91.2458 643.579L57.3158 643.86L47.0993 644L42.0378 633.033L0 541.449H44.381L66.0325 584.616L91.2458 643.579Z" fill="#497B62"/>
<path d="M182.773 447.24L91.2458 643.578L66.0326 584.616L134.033 447.24H182.773Z" fill="#6C9583"/>
<path d="M182.773 448.218L231.718 448.218L231.718 644L183.378 644C182.447 630.236 183.378 616.8 182.773 602.709L182.773 448.218Z" fill="#6C9583"/>
<path d="M277.4 448.218L231.718 448.218L231.718 644L277.4 644L277.4 448.218Z" fill="#497B62"/>
<path d="M1920 113.018C1867.78 111.511 1816.98 140.243 1792.81 190.183C1789.69 196.743 1787.1 203.314 1785.04 210.089V238.504H1816.86C1822.36 188.563 1864.76 149.816 1916.33 149.816C1917.51 149.816 1918.82 149.816 1920 149.93V113.018Z" fill="#B5CAC1"/>
<path d="M1916.33 149.827C1864.76 149.827 1822.37 188.574 1816.86 238.515H1920V149.941C1918.82 149.827 1917.51 149.827 1916.33 149.827Z" fill="#3D6652"/>
<path d="M1920 103.863H1785.04V210.089C1787.09 203.314 1789.68 196.743 1792.81 190.183C1816.98 140.242 1867.78 111.511 1920 113.018V103.863Z" fill="#3D6652"/>
<path d="M1920 363.691C1867.78 365.198 1816.98 336.466 1792.81 286.525C1789.69 279.966 1787.1 273.394 1785.04 266.619L1785.04 238.205L1816.86 238.205C1822.36 288.146 1864.76 326.893 1916.33 326.893C1917.51 326.893 1918.82 326.893 1920 326.779L1920 363.691Z" fill="#6C9583"/>
<path d="M1916.33 326.882C1864.76 326.882 1822.37 288.134 1816.86 238.194L1920 238.194L1920 326.768C1918.82 326.882 1917.51 326.882 1916.33 326.882Z" fill="#A1C6B5"/>
<path d="M1920 372.846L1785.04 372.846L1785.04 266.62C1787.09 273.395 1789.68 279.966 1792.81 286.526C1816.98 336.467 1867.78 365.198 1920 363.691L1920 372.846Z" fill="#A1C6B5"/>
<path d="M1835.54 559.258C1828.63 566.559 1824.8 575.167 1824.72 585.06C1824.66 593.432 1822.29 600.53 1816.54 606.547C1812.98 610.975 1808.05 612.665 1802.67 613.025C1797.62 613.386 1792.51 613.16 1787.44 613.093C1786.56 613.082 1785.65 613.059 1784.97 612.439C1784.96 612.439 1784.94 612.428 1784.94 612.406C1784.93 612.394 1784.91 612.372 1784.9 612.372C1784.88 612.36 1784.88 612.36 1784.88 612.36C1784.9 612.36 1784.9 612.36 1784.92 612.36C1784.93 612.349 1784.95 612.327 1784.96 612.315C1784.96 554.143 1784.97 495.959 1784.97 437.787C1800.91 437.573 1815.16 442.53 1827.82 452.017C1842.41 462.958 1851.68 477.515 1854.92 495.385C1859.37 519.823 1852.64 541.231 1835.54 559.258Z" fill="#A1C6B5"/>
<path d="M1784.97 437.798C1784.97 495.97 1784.96 554.154 1784.96 612.326C1784.95 612.338 1784.93 612.36 1784.92 612.372C1784.91 612.372 1784.91 612.372 1784.88 612.372C1780.37 612.36 1775.85 612.27 1771.35 612.372C1764.55 612.507 1758.45 610.738 1753.36 606.062C1748.1 601.093 1745.4 594.919 1745.44 587.753C1745.49 575.787 1741.27 565.894 1732.9 557.264C1721.79 545.794 1715.61 531.8 1714.22 515.834C1712.17 492.286 1719.48 472.174 1736.93 456.118C1748.66 445.302 1762.69 439.319 1778.68 438.136C1780.77 437.989 1782.86 437.595 1784.97 437.798Z" fill="#3D6652"/>
<path opacity="0.59" d="M1784.92 612.372L1784.91 612.383C1784.81 612.473 1784.72 612.552 1784.64 612.653C1783.92 613.059 1783.14 613.104 1782.34 613.082C1776.41 612.913 1770.46 613.6 1764.56 612.529C1761.41 611.955 1758.55 610.693 1755.88 608.969C1754.74 608.237 1753.89 607.279 1753.36 606.051C1758.45 610.727 1764.54 612.484 1771.35 612.36C1775.86 612.259 1780.37 612.349 1784.88 612.36C1784.91 612.372 1784.91 612.372 1784.92 612.372Z" fill="#497B62"/>
<path d="M1784.95 612.327C1789.65 612.327 1794.35 612.349 1799.05 612.338C1804.92 612.338 1810.4 610.13 1815.41 607.065C1815.76 606.851 1816.16 606.716 1816.53 606.535C1816.54 610.49 1816.66 614.434 1816.62 618.388C1816.49 632.619 1804.58 644.145 1790.35 643.999C1789.17 643.988 1787.98 643.965 1786.8 643.942C1785.33 643.92 1784.13 642.748 1784.12 641.283C1784.12 641.013 1784.12 640.731 1784.12 640.461C1784.1 632.247 1784.1 624.045 1784.12 615.831C1784.12 614.614 1784.05 613.363 1784.97 612.361L1784.95 612.327Z" fill="#A1C6B5"/>
<path d="M1784.97 611.29V640.19C1784.97 641.678 1783.79 642.883 1782.3 642.917C1776.99 643.041 1771.69 642.985 1766.72 640.449C1758.02 636.021 1753.73 628.765 1753.35 619.166C1753.23 616.225 1753.26 613.262 1753.3 610.31C1753.34 608.237 1755.58 606.907 1757.37 607.955C1761.55 610.411 1766.25 611.38 1771.36 611.29C1775.87 611.189 1780.38 611.279 1784.9 611.29C1784.91 611.29 1784.91 611.29 1784.93 611.29H1784.97Z" fill="#3D6652"/>
<path d="M1784.97 376.595V419.061C1784.97 421.787 1785.71 421.787 1782.39 421.787H1778.78C1776.99 421.787 1775.53 420.244 1775.53 418.373V380.031C1775.53 376.64 1778.16 373.868 1781.36 373.868H1782.39C1785.71 373.868 1784.97 373.868 1784.97 376.595Z" fill="#3D6652"/>
<path d="M1794.42 380.031V418.373C1794.42 420.244 1792.78 421.787 1790.77 421.787H1787.87C1784.48 421.787 1784.97 421.874 1784.97 419.061V376.594C1784.97 373.418 1784.28 373.868 1787.87 373.868C1791.46 373.868 1794.42 376.64 1794.42 380.031Z" fill="#A1C6B5"/>
<path d="M1845.39 447.544C1841.72 443.871 1841.72 437.877 1845.39 434.204L1865.94 413.652C1869.61 409.979 1875.61 409.979 1879.28 413.652C1882.95 417.325 1882.95 423.32 1879.28 426.993L1858.73 447.544C1855.07 451.206 1849.06 451.206 1845.39 447.544Z" fill="#A1C6B5"/>
<path d="M1872.08 506.122C1872.08 500.939 1876.33 496.692 1881.51 496.692H1910.57C1915.75 496.692 1920 500.939 1920 506.122C1920 511.305 1915.75 515.553 1910.57 515.553H1881.51C1876.32 515.553 1872.08 511.305 1872.08 506.122Z" fill="#A1C6B5"/>
<path d="M1649.94 508.939C1649.94 503.756 1654.18 499.508 1659.37 499.508H1688.43C1693.61 499.508 1697.86 503.756 1697.86 508.939C1697.86 514.122 1693.61 518.369 1688.43 518.369H1659.37C1654.18 518.369 1649.94 514.122 1649.94 508.939Z" fill="#3D6652"/>
<path d="M1689.7 413.664C1693.37 409.99 1699.37 409.99 1703.04 413.664L1723.59 434.215C1727.26 437.888 1727.26 443.882 1723.59 447.555C1719.92 451.228 1713.92 451.228 1710.25 447.555L1689.7 426.993C1686.04 423.331 1686.04 417.325 1689.7 413.664Z" fill="#3D6652"/>
<path d="M1920 0.394409C1918.51 0.394409 1862.4 49.3789 1862.4 49.3789L1920 104.268L1920 0.394409Z" fill="#6C9583"/>
<path d="M1826.51 56.5803C1826.51 77.702 1843.64 94.8246 1864.76 94.8246C1885.88 94.8246 1903 77.702 1903 56.5803C1903 35.4586 1885.88 18.3361 1864.76 18.3361C1843.64 18.3361 1826.51 35.4586 1826.51 56.5803Z" fill="#497B62"/>
</svg>
