<svg width="1920" height="586" viewBox="0 0 1920 586" fill="none" xmlns="http://www.w3.org/2000/svg">
<path d="M128.128 586.34L256.647 586.34L256.647 457.212L128.128 457.212L128.128 586.34Z" fill="#6C9583"/>
<path d="M128.128 487.658L128.128 457.212L141.547 457.212C178.773 464.373 212.533 488.006 231.895 524.297C232.928 526.307 234.058 528.415 234.97 530.512C235.883 532.403 236.709 534.413 237.535 536.402C244.109 552.341 247.499 569.998 247.89 586.34L212.674 586.34C211.033 537.738 174.655 492.939 128.128 487.658Z" fill="#3D6652"/>
<path d="M7.76848 586.34C6.32334 536.38 33.8787 487.767 81.7747 464.645C88.0659 461.657 94.368 459.179 100.866 457.213L128.117 457.213L128.117 487.658C80.2209 492.917 43.0602 533.49 43.0602 582.831C43.0602 583.961 43.0602 585.21 43.1689 586.34L7.76848 586.34Z" fill="#B5CAC1"/>
<path d="M43.0712 582.831C43.0712 533.49 80.2318 492.928 128.128 487.658L128.128 586.34L43.1799 586.34C43.0712 585.21 43.0712 583.961 43.0712 582.831Z" fill="#3D6652"/>
<path d="M-0.999992 586.34L-1 457.213L100.877 457.213C94.379 459.168 88.0769 461.646 81.7857 464.645C33.8897 487.767 6.33434 536.38 7.77948 586.34L-0.999992 586.34Z" fill="#3D6652"/>
<path d="M109.318 260.849C110.568 260.849 111.818 260.536 113.122 259.929C120.981 256.214 128.875 252.597 136.76 248.945C141.511 246.748 144.279 247.605 146.94 252.124C151.521 259.92 156.156 267.698 160.657 275.556C162.13 278.11 164.139 279.503 167.006 280.066C176.088 281.87 185.152 283.763 194.216 285.647C198.743 286.585 200.565 288.942 200.074 293.532C199.109 302.605 198.064 311.669 196.975 320.724C196.671 323.243 197.341 325.296 199.011 327.199C204.807 333.789 210.513 340.451 216.264 347.077C219.764 351.104 219.773 353.774 216.326 357.775C210.468 364.588 204.637 371.42 198.761 378.225C197.27 379.948 196.636 381.806 196.921 384.109C198.011 393.093 199.073 402.086 200.029 411.087C200.574 416.257 198.832 418.517 193.823 419.553C184.821 421.419 175.838 423.339 166.827 425.089C164.077 425.625 162.193 426.929 160.799 429.331C156.281 437.091 151.664 444.798 147.083 452.522C144.252 457.3 141.6 458.13 136.617 455.817C128.669 452.138 120.704 448.486 112.765 444.789C111.604 444.244 110.47 443.976 109.327 443.985" fill="#B5CAC1"/>
<path d="M109.318 443.976C108.22 443.985 107.121 444.253 105.987 444.789C97.9947 448.548 89.9667 452.219 81.9386 455.907C77.17 458.103 74.3749 457.237 71.7495 452.754C67.1773 444.941 62.5783 437.145 58.0687 429.295C56.7203 426.947 54.8718 425.67 52.2195 425.152C42.9949 423.348 33.7969 421.41 24.5812 419.544C22.0897 419.044 19.7679 418.088 19.0089 415.489C18.5177 413.775 18.5356 411.828 18.7231 410.033C19.6339 401.38 20.6698 392.745 21.7057 384.109C21.9647 381.913 21.4289 380.046 19.9822 378.385C17.4104 375.429 14.8385 372.465 12.3292 369.446C8.11424 364.365 3.935 359.248 -0.253174 354.14V350.711C0.979167 349.086 2.14007 347.389 3.46171 345.844C8.8465 339.567 14.2759 333.307 19.7232 327.091C21.3217 325.261 22.0004 323.278 21.7057 320.814C20.5805 311.616 19.5089 302.409 18.5624 293.193C18.1159 288.889 20.0804 286.522 24.3311 285.647C33.4755 283.781 42.6108 281.861 51.7552 280.066C54.7021 279.494 56.7381 278.03 58.2294 275.404C62.6855 267.528 67.2845 259.732 71.8388 251.91C74.2767 247.721 77.1343 246.793 81.5189 248.802C89.538 252.49 97.584 256.151 105.558 259.938C106.844 260.545 108.086 260.849 109.318 260.849" fill="#6C9583"/>
<path d="M109.247 394.691L94.6015 394.825L90.1901 394.879L88.0201 390.146L69.8833 350.631H89.0292L98.379 369.25L109.247 394.691Z" fill="#497B62"/>
<path d="M148.753 309.964L109.247 394.691L98.3792 369.25L127.732 309.964H148.753Z" fill="#497B62"/>
<path d="M162.057 85.7275H-0.253174V248.038H162.057V85.7275Z" fill="#90AFA1"/>
<path d="M80.4104 101.297C80.7655 101.297 81.107 101.297 81.4621 101.297C88.1954 102.144 94.4917 104.671 100.952 106.542C111.141 109.492 121.275 112.62 131.436 115.652C132.57 115.993 133.717 116.308 134.796 116.772C136.681 117.591 137.76 119.039 137.883 121.129C137.91 121.648 137.897 122.18 137.897 122.713C137.897 141.602 137.897 160.491 137.897 179.38C137.897 184.706 136.394 189.65 133.99 194.362C129.975 202.243 123.993 208.485 117.369 214.166C107.494 222.634 96.4857 229.368 84.8356 235.077C83.7429 235.609 82.623 235.937 81.4347 236.087C80.9704 236.142 80.4651 236.279 80.11 235.801C79.6729 235.022 79.7821 234.175 79.7821 233.356C79.7685 225.516 79.7685 217.676 79.7685 209.823C79.7685 174.681 79.7685 139.54 79.7821 104.398C79.7685 103.333 79.468 102.172 80.4104 101.297Z" fill="#6C9583"/>
<path d="M80.4105 101.298C80.4105 146.177 80.4105 191.057 80.4105 235.937C79.0856 236.333 77.8155 235.91 76.6955 235.35C65.0317 229.668 53.9961 222.989 44.0394 214.603C38.3851 209.837 33.2224 204.62 29.1933 198.364C25.0959 192.027 22.8561 185.198 22.897 177.55C23.0063 159.057 22.938 140.55 22.9243 122.058C22.9243 120.309 23.2794 118.766 24.6725 117.578C25.2598 117.086 25.9017 116.745 26.6256 116.526C39.9421 112.552 53.2448 108.55 66.5476 104.548C68.2276 104.043 69.9212 103.578 71.5738 103.018C74.1961 102.131 76.8867 101.612 79.6183 101.257C79.8914 101.298 80.151 101.298 80.4105 101.298Z" fill="#3D6652"/>
<path d="M49.6122 85.6793C49.6122 62.8472 30.9655 44.3396 7.96179 44.3396C30.9655 44.3396 49.6122 25.8321 49.6122 3C49.6122 25.8321 68.259 44.3396 91.2627 44.3396C68.2669 44.3317 49.6122 62.8472 49.6122 85.6793Z" fill="#497B62"/>
<path d="M120.791 85.6793C120.791 62.8472 102.283 44.3396 79.4512 44.3396C102.283 44.3396 120.791 25.8321 120.791 3C120.791 25.8321 139.298 44.3396 162.13 44.3396C139.298 44.3317 120.791 62.8472 120.791 85.6793Z" fill="#497B62"/>
<path d="M1808.45 80.0766C1808.45 57.9633 1790.39 40.0383 1768.11 40.0383C1790.39 40.0383 1808.45 22.1133 1808.45 0C1808.45 22.1133 1826.51 40.0383 1848.79 40.0383C1826.51 40.0383 1808.45 57.9633 1808.45 80.0766Z" fill="#497B62"/>
<path d="M1877.39 80.0766C1877.39 57.9633 1859.46 40.0383 1837.35 40.0383C1859.46 40.0383 1877.39 22.1133 1877.39 0C1877.39 22.1133 1895.31 40.0383 1917.42 40.0383C1895.31 40.0383 1877.39 57.9633 1877.39 80.0766Z" fill="#497B62"/>
<path d="M1808.45 151.122C1808.45 129.009 1790.39 111.084 1768.11 111.084C1790.39 111.084 1808.45 93.1587 1808.45 71.0454C1808.45 93.1587 1826.51 111.084 1848.79 111.084C1826.51 111.076 1808.45 129.009 1808.45 151.122Z" fill="#497B62"/>
<path d="M1877.39 151.122C1877.39 129.009 1859.46 111.084 1837.35 111.084C1859.46 111.084 1877.39 93.1587 1877.39 71.0454C1877.39 93.1587 1895.31 111.084 1917.42 111.084C1895.31 111.076 1877.39 129.009 1877.39 151.122Z" fill="#497B62"/>
<path d="M1835.25 500.553C1828.32 507.874 1824.48 516.506 1824.4 526.426C1824.33 534.82 1821.96 541.938 1816.2 547.971C1812.63 552.411 1807.68 554.106 1802.29 554.467C1797.22 554.829 1792.1 554.603 1787.02 554.535C1786.14 554.524 1785.22 554.501 1784.54 553.88C1784.53 553.88 1784.51 553.869 1784.51 553.846C1784.5 553.835 1784.47 553.812 1784.46 553.812C1784.45 553.801 1784.45 553.801 1784.45 553.801C1784.46 553.801 1784.46 553.801 1784.49 553.801C1784.5 553.79 1784.52 553.767 1784.53 553.756C1784.53 495.424 1784.54 437.081 1784.54 378.749C1800.52 378.535 1814.81 383.506 1827.51 393.019C1842.14 403.989 1851.43 418.586 1854.68 436.505C1859.14 461.01 1852.4 482.476 1835.25 500.553Z" fill="#A1C6B5"/>
<path d="M1784.54 378.761C1784.54 437.092 1784.53 495.435 1784.53 553.767C1784.52 553.778 1784.5 553.801 1784.49 553.812C1784.47 553.812 1784.47 553.812 1784.45 553.812C1779.92 553.801 1775.39 553.71 1770.88 553.812C1764.06 553.948 1757.95 552.174 1752.84 547.485C1747.56 542.503 1744.86 536.312 1744.9 529.126C1744.95 517.127 1740.72 507.208 1732.32 498.554C1721.18 487.052 1714.99 473.02 1713.59 457.011C1711.53 433.398 1718.87 413.231 1736.37 397.131C1748.13 386.285 1762.19 380.286 1778.23 379.1C1780.33 378.953 1782.42 378.557 1784.54 378.761Z" fill="#4C7762"/>
<path opacity="0.59" d="M1784.49 553.812L1784.47 553.824C1784.37 553.914 1784.28 553.993 1784.2 554.095C1783.48 554.501 1782.7 554.547 1781.9 554.524C1775.96 554.355 1769.99 555.044 1764.07 553.97C1760.92 553.394 1758.05 552.129 1755.37 550.4C1754.23 549.666 1753.37 548.705 1752.84 547.474C1757.95 552.163 1764.05 553.925 1770.88 553.801C1775.4 553.699 1779.92 553.79 1784.45 553.801C1784.47 553.812 1784.47 553.812 1784.49 553.812Z" fill="#497B62"/>
<path d="M1784.52 553.767C1789.23 553.767 1793.94 553.79 1798.65 553.778C1804.54 553.778 1810.04 551.564 1815.06 548.491C1815.41 548.276 1815.81 548.141 1816.19 547.96C1816.2 551.925 1816.31 555.88 1816.28 559.845C1816.14 574.115 1804.2 585.673 1789.93 585.526C1788.74 585.514 1787.56 585.492 1786.37 585.469C1784.9 585.447 1783.69 584.272 1783.68 582.803C1783.68 582.532 1783.68 582.249 1783.68 581.978C1783.66 573.742 1783.66 565.517 1783.68 557.281C1783.68 556.061 1783.62 554.806 1784.54 553.801L1784.52 553.767Z" fill="#A1C6B5"/>
<path d="M1784.54 552.727V581.707C1784.54 583.198 1783.36 584.407 1781.86 584.441C1776.53 584.565 1771.22 584.509 1766.24 581.967C1757.52 577.527 1753.21 570.251 1752.83 560.625C1752.72 557.676 1752.74 554.705 1752.78 551.745C1752.82 549.666 1755.07 548.333 1756.86 549.383C1761.05 551.846 1765.76 552.818 1770.89 552.727C1775.41 552.626 1779.93 552.716 1784.46 552.727C1784.47 552.727 1784.47 552.727 1784.5 552.727H1784.54Z" fill="#4C7762"/>
<path d="M1784.54 317.39V359.972C1784.54 362.706 1785.28 362.706 1781.95 362.706H1778.33C1776.53 362.706 1775.07 361.158 1775.07 359.283V320.835C1775.07 317.435 1777.71 314.655 1780.92 314.655H1781.95C1785.28 314.655 1784.54 314.655 1784.54 317.39Z" fill="#4C7762"/>
<path d="M1794.01 320.836V359.283C1794.01 361.158 1792.37 362.706 1790.35 362.706H1787.45C1784.05 362.706 1784.54 362.793 1784.54 359.972V317.39C1784.54 314.205 1783.84 314.655 1787.45 314.655C1791.05 314.655 1794.01 317.435 1794.01 320.836Z" fill="#A1C6B5"/>
<path d="M1845.12 388.533C1841.44 384.85 1841.44 378.84 1845.12 375.156L1865.73 354.549C1869.41 350.866 1875.42 350.866 1879.11 354.549C1882.79 358.232 1882.79 364.243 1879.11 367.926L1858.5 388.533C1854.83 392.205 1848.8 392.205 1845.12 388.533Z" fill="#A1C6B5"/>
<path d="M1871.89 447.272C1871.89 442.075 1876.15 437.815 1881.34 437.815H1910.48C1915.68 437.815 1919.94 442.075 1919.94 447.272C1919.94 452.469 1915.68 456.728 1910.48 456.728H1881.34C1876.14 456.728 1871.89 452.469 1871.89 447.272Z" fill="#A1C6B5"/>
<path d="M1649.13 450.096C1649.13 444.899 1653.39 440.64 1658.59 440.64H1687.73C1692.93 440.64 1697.19 444.899 1697.19 450.096C1697.19 455.293 1692.93 459.553 1687.73 459.553H1658.59C1653.39 459.553 1649.13 455.293 1649.13 450.096Z" fill="#4C7762"/>
<path d="M1689.01 354.56C1692.69 350.877 1698.7 350.877 1702.38 354.56L1722.99 375.168C1726.67 378.851 1726.67 384.861 1722.99 388.545C1719.31 392.228 1713.3 392.228 1709.61 388.545L1689.01 367.926C1685.33 364.254 1685.33 358.232 1689.01 354.56Z" fill="#4C7762"/>
<g clip-path="url(#clip0_260_546)">
<path d="M1920 151.169H1767.38V303.784H1920V151.169Z" fill="#90AFA1"/>
<path d="M1884.44 178.712C1881.85 178.785 1879.26 178.727 1876.67 178.727C1876.26 178.116 1876.34 177.501 1876.63 176.876C1876.73 174.958 1876.57 173.034 1876.84 171.116C1877.04 169.837 1876.65 168.768 1875.5 168.06H1843.69V286.888C1852.47 286.888 1861.25 286.888 1870.03 286.888C1872.29 286.888 1873.63 285.546 1873.64 283.295C1873.64 281.938 1873.62 280.586 1873.61 279.233C1873.62 276.26 1873.64 273.287 1873.64 270.314C1873.63 268.064 1872.28 266.721 1870.02 266.702C1867.98 266.682 1865.93 266.682 1863.89 266.673C1859.52 262.772 1855.18 258.842 1850.78 254.981C1849.94 254.243 1849.55 253.453 1849.56 252.383C1849.57 250.958 1849.68 249.518 1849.53 248.107C1849.33 246.208 1849.77 244.895 1851.86 244.597C1852.01 244.577 1852.13 244.45 1852.27 244.377C1855.33 243.04 1858.17 241.355 1860.81 239.31C1863.05 237.577 1864.99 235.541 1866.9 233.471C1868.21 233.51 1869.52 233.374 1870.83 233.325C1874.73 233.183 1878.34 232.129 1881.7 230.176C1887.48 226.812 1891.4 221.945 1893.1 215.477C1894.83 208.891 1896.36 202.242 1897.91 195.608C1900 186.684 1892.93 178.483 1884.44 178.712ZM1889.67 193.694C1888.2 200.168 1886.76 206.655 1884.98 213.051C1883.23 219.373 1879.05 223.302 1872.59 224.616C1872.61 224.577 1872.63 224.542 1872.65 224.508C1874.62 220.168 1875.6 215.609 1875.88 210.854C1876.05 208.076 1875.99 205.303 1876.11 202.53C1876.32 197.756 1876.59 192.982 1876.53 188.197C1876.55 188.061 1876.57 187.924 1876.58 187.787C1877.32 187.05 1878.34 187.148 1879.36 187.167C1881.02 187.206 1882.68 187.167 1884.34 187.182C1887.94 187.201 1890.47 190.174 1889.67 193.694Z" fill="#B5CAC1"/>
<path d="M1811.9 168.06C1810.83 168.694 1810.44 169.622 1810.52 170.872C1810.67 173.484 1810.87 176.1 1810.72 178.717C1808.17 178.722 1805.61 178.775 1803.06 178.707C1800.59 178.639 1798.35 179.278 1796.19 180.43C1791.23 183.081 1788.2 189.301 1789.34 194.71C1790.78 201.53 1792.47 208.291 1794.19 215.042C1796.15 222.726 1800.93 228.072 1808.07 231.377C1812.03 233.208 1816.24 233.505 1820.5 233.481C1825.05 238.802 1830.51 242.825 1837.14 245.202C1837.64 245.383 1837.86 245.676 1837.85 246.227C1837.83 248.39 1837.86 250.553 1837.83 252.711C1837.83 253.506 1837.56 254.209 1836.92 254.751C1836.06 255.469 1835.23 256.216 1834.39 256.958C1830.77 260.185 1827.14 263.421 1823.51 266.653L1823.5 266.697C1821.29 266.697 1819.09 266.682 1816.89 266.702C1814.93 266.716 1813.54 268.108 1813.53 270.075C1813.51 274.562 1813.51 279.048 1813.53 283.534C1813.54 285.492 1814.95 286.864 1816.91 286.888C1817.87 286.903 1818.84 286.893 1819.81 286.893C1826.99 286.893 1834.17 286.898 1841.36 286.898H1843.69V168.06H1811.9ZM1814.34 224.552C1807.72 222.917 1803.78 218.645 1802.13 212.133C1801.55 209.848 1801.03 207.554 1800.48 205.259C1799.58 201.466 1798.61 197.688 1797.76 193.885C1796.94 190.209 1799.36 187.197 1803.08 187.177C1805.24 187.167 1807.41 187.182 1809.57 187.172C1809.94 187.172 1810.33 187.216 1810.67 187.06C1811.09 190.228 1810.86 193.426 1811.02 196.614C1811.27 201.613 1811.27 206.626 1811.55 211.63C1811.79 216.195 1812.93 220.53 1814.8 224.689C1814.65 224.63 1814.5 224.591 1814.34 224.552Z" fill="#6C9583"/>
<path d="M1843.69 184.473L1849.84 196.936L1863.6 198.932L1853.64 208.633L1855.99 222.331L1843.69 215.863L1831.39 222.331L1833.74 208.633L1823.79 198.932L1837.54 196.936L1843.69 184.473Z" fill="#497B62"/>
</g>
<defs>
<clipPath id="clip0_260_546">
<rect width="152.615" height="152.615" fill="white" transform="translate(1767.38 151.169)"/>
</clipPath>
</defs>
</svg>
