<svg width="290" height="103" viewBox="0 0 290 103" fill="none" xmlns="http://www.w3.org/2000/svg">
<path d="M210.627 52.3199L158.953 52.3199V101.985H210.627V52.3199Z" fill="#90AFA1"/>
<path d="M184.793 61.3593C185.019 61.3593 185.241 61.3061 185.477 61.1997C186.886 60.5566 188.305 59.9328 189.718 59.3042C190.569 58.9222 191.067 59.0721 191.545 59.8506C192.37 61.1949 193.2 62.5391 194.005 63.8931C194.271 64.3331 194.629 64.5749 195.142 64.6716C196.772 64.981 198.397 65.3098 200.027 65.6338C200.837 65.7982 201.164 66.2044 201.079 66.9926C200.907 68.5593 200.716 70.1211 200.525 71.683C200.47 72.1182 200.59 72.4712 200.892 72.8C201.934 73.9363 202.955 75.0871 203.986 76.2283C204.615 76.9246 204.615 77.384 203.997 78.0755C202.945 79.2505 201.899 80.4303 200.842 81.6005C200.575 81.9003 200.46 82.2195 200.51 82.616C200.706 84.1681 200.897 85.7155 201.068 87.2677C201.164 88.1574 200.852 88.5491 199.957 88.728C198.342 89.0519 196.727 89.3808 195.112 89.6854C194.619 89.7773 194.282 90.0045 194.03 90.4155C193.22 91.755 192.39 93.0847 191.57 94.4145C191.062 95.2413 190.589 95.3816 189.693 94.9851C188.264 94.3516 186.836 93.7182 185.412 93.0799C185.2 92.988 184.999 92.9397 184.793 92.9397" fill="#B5CAC1"/>
<path d="M184.793 92.949C184.596 92.949 184.4 92.9973 184.194 93.0892C182.76 93.7371 181.316 94.3706 179.877 95.0089C179.022 95.3909 178.519 95.241 178.051 94.4673C177.231 93.1182 176.406 91.7739 175.596 90.42C175.354 90.0138 175.022 89.7962 174.544 89.7044C172.889 89.3949 171.239 89.0612 169.584 88.7373C169.136 88.6502 168.718 88.4858 168.582 88.0361C168.492 87.7412 168.497 87.4027 168.532 87.0932C168.693 85.5991 168.879 84.1097 169.065 82.6204C169.111 82.2433 169.015 81.9193 168.754 81.634C168.291 81.1214 167.828 80.6137 167.38 80.0915C166.62 79.2163 165.876 78.3314 165.121 77.4513V76.8614C165.342 76.5809 165.549 76.286 165.79 76.02C166.756 74.9369 167.732 73.8586 168.708 72.7851C168.995 72.4708 169.116 72.1275 169.065 71.702C168.864 70.1159 168.673 68.5251 168.502 66.939C168.421 66.1944 168.774 65.7882 169.538 65.6383C171.178 65.3143 172.819 64.9855 174.464 64.676C174.992 64.5745 175.359 64.323 175.626 63.8734C176.426 62.5146 177.251 61.1703 178.071 59.8212C178.509 59.1008 179.022 58.9412 179.807 59.2845C181.246 59.9228 182.69 60.5514 184.123 61.2042C184.355 61.3106 184.576 61.3589 184.798 61.3589" fill="#6A917E"/>
<path d="M184.776 84.4489L182.15 84.4731L181.355 84.4779L180.968 83.6655L177.713 76.8475H181.149L182.824 80.0583L184.776 84.4489Z" fill="#497B62"/>
<path d="M191.865 69.8308L184.776 84.4484L182.824 80.0578L188.092 69.8308H191.865Z" fill="#497B62"/>
<path d="M67 68L67 86L-1 86L-1 68.2299C3.78194 67.8951 8.44201 68.2299 13.3507 68L67 68Z" fill="#B5CAC1"/>
<path d="M67 103L67 86L-2 86L-2 103L67 103Z" fill="#497B62"/>
<path d="M290 103.987C274.667 103.942 259.333 104.032 244 103.987C244.1 87.4035 243.981 70.5834 244.081 54C245.583 62.0801 249.553 71.7118 261.459 85.0007C273.121 98.0125 282.825 102.088 290 103.987Z" fill="#497B62"/>
<path d="M255 103.987C239.333 103.942 223.667 104.032 208 103.987C208.102 87.4035 207.981 70.5834 208.083 54C209.618 62.0801 213.674 71.7118 225.838 85.0007C237.755 98.0125 247.669 102.088 255 103.987Z" fill="#497B62"/>
<path d="M67 2.97237e-06L-1 0L-1 69L67 69L67 2.97237e-06Z" fill="#6C9583"/>
<path d="M-1 64L-1 45.1718C24.4647 44.297 45.2936 24.8624 48.0526 -8.28216e-07L67 0C65.1233 22.6704 52.1424 43.8546 30.8747 55.4359C29.8267 55.9826 28.7201 56.589 27.6136 57.0811C26.6192 57.5732 25.5712 58.0155 24.5183 58.4529C16.1779 61.972 7.56459 63.7813 -1 64Z" fill="#497B62"/>
<path d="M110 31.5C123.531 31.5 134.5 19.6361 134.5 5C134.5 19.6361 145.469 31.5 159 31.5C145.469 31.5 134.5 43.3639 134.5 58C134.5 43.369 123.531 31.5 110 31.5Z" fill="#497B62"/>
<path d="M110 76.5C123.531 76.5 134.5 64.6361 134.5 50C134.5 64.6361 145.469 76.5 159 76.5C145.469 76.5 134.5 88.3639 134.5 103C134.5 88.3639 123.531 76.5 110 76.5Z" fill="#497B62"/>
<path d="M64 31.5C78.0838 31.5 89.5 19.6361 89.5 5C89.5 19.6361 100.916 31.5 115 31.5C100.916 31.5 89.5 43.3639 89.5 58C89.5049 43.369 78.0838 31.5 64 31.5Z" fill="#497B62"/>
<path d="M64 76.5C78.0838 76.5 89.5 64.6361 89.5 50C89.5 64.6361 100.916 76.5 115 76.5C100.916 76.5 89.5 88.3639 89.5 103C89.5049 88.3639 78.0838 76.5 64 76.5Z" fill="#497B62"/>
</svg>
