<svg width="1920" height="686" viewBox="0 0 1920 686" fill="none" xmlns="http://www.w3.org/2000/svg">
<path d="M237.248 448.588H-0.163574V686H237.248V448.588Z" fill="#90AFA1"/>
<path d="M117.823 471.363C118.342 471.363 118.842 471.363 119.361 471.363C129.21 472.601 138.419 476.297 147.869 479.034C162.772 483.349 177.595 487.924 192.458 492.359C194.116 492.858 195.795 493.318 197.373 493.997C200.13 495.196 201.708 497.313 201.888 500.37C201.928 501.129 201.908 501.908 201.908 502.687C201.908 530.316 201.908 557.945 201.908 585.573C201.908 593.365 199.71 600.596 196.194 607.489C190.321 619.016 181.571 628.145 171.882 636.456C157.438 648.842 141.336 658.691 124.295 667.041C122.697 667.82 121.059 668.3 119.321 668.52C118.642 668.6 117.903 668.799 117.383 668.1C116.744 666.961 116.904 665.723 116.904 664.524C116.884 653.057 116.884 641.59 116.884 630.103C116.884 578.701 116.884 527.299 116.904 475.897C116.884 474.339 116.444 472.641 117.823 471.363Z" fill="#6C9583"/>
<path d="M117.823 471.363C117.823 537.008 117.823 602.654 117.823 668.3C115.885 668.879 114.027 668.26 112.389 667.441C95.3284 659.13 79.1866 649.361 64.6231 637.095C56.3524 630.123 48.801 622.492 42.9076 613.342C36.9144 604.073 33.6381 594.084 33.6981 582.896C33.8579 555.847 33.758 528.778 33.738 501.728C33.738 499.171 34.2574 496.914 36.2951 495.176C37.1541 494.456 38.0931 493.957 39.1519 493.637C58.6298 487.824 78.0878 481.971 97.5458 476.117C100.003 475.378 102.48 474.699 104.898 473.88C108.733 472.581 112.669 471.822 116.664 471.303C117.064 471.363 117.443 471.363 117.823 471.363Z" fill="#3D6652"/>
<path d="M48.8763 362.219C48.8763 335.337 26.9214 313.546 -0.163574 313.546C26.9214 313.546 48.8763 291.754 48.8763 264.872C48.8763 291.754 70.8313 313.546 97.9163 313.546C70.8407 313.546 48.8763 335.337 48.8763 362.219Z" fill="#497B62"/>
<path d="M132.683 362.219C132.683 335.337 110.892 313.546 84.0093 313.546C110.892 313.546 132.683 291.754 132.683 264.872C132.683 291.754 154.474 313.546 181.357 313.546C154.474 313.546 132.683 335.337 132.683 362.219Z" fill="#497B62"/>
<path d="M48.8763 448.588C48.8763 421.705 26.9214 399.914 -0.163574 399.914C26.9214 399.914 48.8763 378.123 48.8763 351.24C48.8763 378.123 70.8313 399.914 97.9163 399.914C70.8407 399.905 48.8763 421.705 48.8763 448.588Z" fill="#497B62"/>
<path d="M132.683 448.588C132.683 421.705 110.892 399.914 84.0093 399.914C110.892 399.914 132.683 378.123 132.683 351.24C132.683 378.123 154.474 399.914 181.357 399.914C154.474 399.905 132.683 421.705 132.683 448.588Z" fill="#497B62"/>
<path d="M-0.16358 133.137L-0.163574 265.646L132.973 265.646L132.973 133.137L-0.16358 133.137Z" fill="#6C9583"/>
<path d="M101.582 133.137L132.973 133.137L132.973 146.973C125.59 185.354 101.224 220.162 63.8056 240.126C61.733 241.19 59.5596 242.355 57.3975 243.296C55.4481 244.237 53.3756 245.089 51.3254 245.94C34.8906 252.718 16.6857 256.213 -0.163574 256.616L-0.163576 220.308C49.9475 218.616 96.1375 181.108 101.582 133.137Z" fill="#3D6652"/>
<path d="M-0.16358 9.04078C51.3478 7.55077 101.47 35.9616 125.31 85.3444C128.391 91.831 130.945 98.3287 132.973 105.028L132.973 133.125L101.582 133.125C96.1599 83.7424 54.3278 45.4281 3.45499 45.4281C2.28988 45.4281 1.00153 45.4281 -0.163578 45.5402L-0.16358 9.04078Z" fill="#B5CAC1"/>
<path d="M3.45499 45.4396C54.3278 45.4396 96.1487 83.7539 101.582 133.137L-0.163574 133.137L-0.163578 45.5516C1.00153 45.4396 2.28988 45.4396 3.45499 45.4396Z" fill="#3D6652"/>
<path d="M-0.163579 -9.15527e-05L132.973 -9.73723e-05L132.973 105.039C130.956 98.3399 128.402 91.8422 125.31 85.3556C101.47 35.9728 51.3478 7.56193 -0.163578 9.05194L-0.163579 -9.15527e-05Z" fill="#3D6652"/>
<path d="M1920 425.303H1659.3V686H1920V425.303Z" fill="#90AFA1"/>
<path d="M1832.43 568.944L1872.83 638.909C1874.53 641.869 1871.81 645.422 1868.51 644.538L1841.55 637.316C1839.5 636.766 1837.39 637.983 1836.84 640.026L1829.62 666.987C1828.74 670.289 1824.3 670.873 1822.59 667.912L1782.2 597.947C1781.14 596.113 1781.76 593.761 1783.6 592.702L1827.19 567.535C1829.03 566.484 1831.37 567.109 1832.43 568.944Z" fill="#497B62"/>
<path d="M1746.28 568.944L1705.88 638.909C1704.18 641.869 1706.9 645.422 1710.2 644.538L1737.16 637.316C1739.21 636.766 1741.32 637.983 1741.87 640.026L1749.09 666.987C1749.97 670.289 1754.41 670.873 1756.12 667.912L1796.51 597.947C1797.57 596.113 1796.95 593.761 1795.11 592.702L1751.52 567.535C1749.68 566.484 1747.34 567.109 1746.28 568.944Z" fill="#497B62"/>
<path d="M1789.65 452.664C1790.73 452.664 1791.79 452.397 1792.91 451.872C1799.64 448.686 1806.41 445.592 1813.17 442.465C1817.24 440.58 1819.61 441.314 1821.89 445.184C1825.82 451.863 1829.79 458.526 1833.64 465.256C1834.9 467.449 1836.63 468.641 1839.08 469.117C1846.86 470.659 1854.62 472.286 1862.39 473.903C1866.27 474.712 1867.83 476.722 1867.41 480.658C1866.59 488.43 1865.69 496.202 1864.76 503.957C1864.5 506.117 1865.07 507.869 1866.5 509.503C1871.47 515.149 1876.36 520.852 1881.28 526.54C1884.28 529.992 1884.28 532.277 1881.34 535.704C1876.32 541.542 1871.32 547.396 1866.29 553.225C1865.01 554.701 1864.46 556.294 1864.71 558.27C1865.65 565.967 1866.55 573.672 1867.37 581.386C1867.84 585.814 1866.35 587.749 1862.05 588.641C1854.34 590.242 1846.64 591.885 1838.92 593.386C1836.57 593.845 1834.95 594.962 1833.76 597.022C1829.89 603.668 1825.93 610.273 1822.01 616.894C1819.58 620.988 1817.31 621.697 1813.04 619.712C1806.23 616.56 1799.41 613.433 1792.6 610.256C1791.6 609.789 1790.64 609.555 1789.66 609.564" fill="#B5CAC1"/>
<path d="M1789.65 609.572C1788.71 609.58 1787.78 609.814 1786.8 610.264C1779.95 613.483 1773.07 616.627 1766.19 619.796C1762.11 621.68 1759.71 620.938 1757.46 617.102C1753.54 610.406 1749.6 603.726 1745.75 597.005C1744.59 594.995 1743 593.895 1740.73 593.453C1732.83 591.901 1724.95 590.25 1717.05 588.649C1714.92 588.216 1712.92 587.398 1712.27 585.18C1711.85 583.713 1711.86 582.045 1712.03 580.502C1712.82 573.089 1713.7 565.692 1714.58 558.295C1714.81 556.419 1714.35 554.809 1713.11 553.383C1710.91 550.848 1708.7 548.305 1706.55 545.72C1702.93 541.367 1699.36 536.98 1695.77 532.611V529.675C1696.83 528.283 1697.82 526.832 1698.96 525.506C1703.57 520.127 1708.22 514.765 1712.88 509.436C1714.25 507.868 1714.83 506.167 1714.58 504.058C1713.62 496.177 1712.71 488.288 1711.89 480.391C1711.51 476.697 1713.19 474.671 1716.83 473.92C1724.67 472.319 1732.5 470.676 1740.33 469.133C1742.86 468.641 1744.6 467.391 1745.88 465.139C1749.7 458.393 1753.63 451.705 1757.55 445.008C1759.64 441.414 1762.08 440.622 1765.84 442.34C1772.71 445.5 1779.59 448.644 1786.43 451.88C1787.54 452.397 1788.6 452.655 1789.65 452.655" fill="#6C9583"/>
<path d="M1789.59 567.351L1777.04 567.468L1773.27 567.51L1771.41 563.457L1755.86 529.592H1772.27L1780.28 545.545L1789.59 567.351Z" fill="#497B62"/>
<path d="M1823.44 494.751L1789.59 567.351L1780.28 545.545L1805.43 494.751H1823.44Z" fill="#497B62"/>
<path d="M1777.06 425.265C1824.7 425.132 1872.36 425.398 1920 425.265C1919.69 376.497 1920.06 327.042 1919.75 278.274C1915.08 302.031 1900.5 337.222 1863.5 376.294C1827.27 414.534 1799.34 419.669 1777.06 425.265Z" fill="#3D6652"/>
<path d="M1709.67 425.265C1757.31 425.132 1804.97 425.398 1852.61 425.265C1852.3 376.497 1852.67 327.042 1852.36 278.274C1847.69 302.031 1833.11 337.222 1796.11 376.294C1759.89 414.534 1731.96 419.669 1709.67 425.265Z" fill="#3D6652"/>
<path d="M1920 266.453C1876.28 267.713 1833.74 243.678 1813.51 201.915C1808.4 191.204 1807 179.235 1807 167.371L1807 161.5L1833.65 161.5C1838.26 203.263 1873.75 235.671 1916.93 235.671C1917.92 235.671 1919.01 235.671 1920 235.583L1920 266.453Z" fill="#6C9583"/>
<path d="M1920 161.998L1920 49.5302L1807 49.5301L1807 161.998L1920 161.998Z" fill="#6C9583"/>
<path d="M1833.64 161.998L1807 161.998L1807 150.255C1813.27 117.678 1833.95 88.1351 1865.71 71.1908C1867.47 70.2875 1869.31 69.2986 1871.14 68.4999C1872.8 67.7012 1874.56 66.9785 1876.3 66.2559C1890.25 60.5032 1905.7 57.5365 1920 57.1942L1920 88.0115C1877.47 89.4473 1838.26 121.282 1833.64 161.998Z" fill="#3D6652"/>
</svg>
