<svg width="147" height="183" viewBox="0 0 147 183" fill="none" xmlns="http://www.w3.org/2000/svg">
<path d="M73.5029 31.3223H135.518L124.622 173.763C124.223 178.975 119.878 183 114.651 183H73.5029" fill="#6C9583"/>
<path d="M73.5028 183H32.3548C27.1278 183 22.7826 178.975 22.3839 173.763L11.4873 31.3223H73.5028" fill="#3D6652"/>
<path d="M146.292 26.7168V21.4696C146.292 18.7082 144.053 16.4696 141.292 16.4696H73.5025H5.71338C2.95196 16.4696 0.713379 18.7082 0.713379 21.4696V26.7168C0.713379 29.4782 2.95196 31.7168 5.71338 31.7168H73.5025H141.292C144.053 31.7168 146.292 29.4782 146.292 26.7168Z" fill="#88AB9B"/>
<path d="M92.4636 0.783081H54.5425C49.0196 0.783081 44.5425 5.26024 44.5425 10.7831V18.0167H102.464V10.7831C102.464 5.26023 97.9864 0.783081 92.4636 0.783081Z" fill="#88AB9B"/>
<path d="M36.2872 183H32.3633C26.8404 183 22.3633 178.523 22.3633 173V67.1896C22.3633 63.8518 25.4807 61.1453 29.3252 61.1453C33.1698 61.1453 36.2872 63.8518 36.2872 67.1896V183Z" fill="#6C9583"/>
<path d="M63.6402 183H49.7163V67.1896C49.7163 63.8518 52.8337 61.1453 56.6783 61.1453C60.5228 61.1453 63.6402 63.8518 63.6402 67.1896V183Z" fill="#6C9583"/>
<path d="M97.189 183H83.2651V67.1896C83.2651 63.8518 86.3825 61.1453 90.2271 61.1453C94.0716 61.1453 97.189 63.8518 97.189 67.1896V183Z" fill="#90AFA1"/>
<path d="M124.542 173C124.542 178.523 120.064 183 114.542 183H110.618V67.1896C110.618 63.8518 113.735 61.1453 117.58 61.1453C121.424 61.1453 124.542 63.8518 124.542 67.1896V173Z" fill="#90AFA1"/>
</svg>
