<svg width="195" height="186" viewBox="0 0 195 186" fill="none" xmlns="http://www.w3.org/2000/svg">
<path d="M97.1157 11.591C98.2334 11.591 99.3263 11.3178 100.494 10.7714C107.448 7.46797 114.452 4.26386 121.432 1.03496C125.629 -0.927226 128.088 -0.157244 130.448 3.84163C134.521 10.7465 138.62 17.6515 142.594 24.606C143.91 26.8663 145.674 28.1081 148.207 28.6049C156.254 30.1945 164.277 31.8834 172.324 33.5476C176.323 34.392 177.938 36.4784 177.516 40.527C176.671 48.5744 175.727 56.597 174.783 64.6196C174.51 66.855 175.106 68.6682 176.597 70.3571C181.738 76.194 186.78 82.1054 191.872 87.9671C194.976 91.5437 194.976 93.9033 191.921 97.4551C186.73 103.491 181.564 109.551 176.348 115.562C175.032 117.102 174.46 118.741 174.709 120.778C175.678 128.751 176.621 136.699 177.466 144.672C177.938 149.242 176.398 151.254 171.977 152.173C164.004 153.837 156.031 155.526 148.058 157.091C145.624 157.562 143.96 158.73 142.718 160.841C138.719 167.721 134.621 174.552 130.572 181.382C128.064 185.629 125.729 186.349 121.308 184.313C114.254 181.059 107.2 177.805 100.171 174.527C99.1276 174.055 98.1341 173.806 97.1157 173.806" fill="#B5CAC1"/>
<path d="M97.1156 173.857C96.1469 173.857 95.1782 174.105 94.1599 174.577C87.0811 177.905 79.9527 181.159 72.8491 184.437C68.6267 186.4 66.1429 185.63 63.833 181.656C59.7845 174.726 55.7111 167.821 51.7122 160.866C50.52 158.78 48.8807 157.662 46.5211 157.19C38.3495 155.601 30.2027 153.887 22.0311 152.223C19.8205 151.776 17.759 150.931 17.0884 148.621C16.6413 147.106 16.6661 145.368 16.84 143.778C17.6348 136.103 18.5538 128.453 19.4728 120.803C19.6963 118.866 19.2244 117.202 17.9329 115.736C15.6478 113.104 13.3627 110.496 11.1521 107.813C7.40165 103.317 3.72566 98.7721 0 94.2516V91.2214C1.09286 89.7808 2.11121 88.2657 3.30342 86.8997C8.07227 81.336 12.8908 75.7972 17.7093 70.2832C19.1251 68.6687 19.7212 66.9053 19.4728 64.7196C18.4793 56.5728 17.5354 48.4011 16.691 40.2544C16.2936 36.4293 18.0322 34.343 21.8075 33.573C29.9047 31.9089 38.0018 30.2199 46.1237 28.6303C48.7317 28.1087 50.5448 26.8171 51.8612 24.5072C55.8104 17.5278 59.8838 10.6229 63.9324 3.69318C66.0932 -0.0076432 68.6267 -0.827253 72.5014 0.936228C79.605 4.21481 86.7334 7.44372 93.8122 10.7968C94.9547 11.3432 96.0476 11.5916 97.1404 11.5916" fill="#90AFA1"/>
<path d="M97.0411 130.191L84.0758 130.316L80.1515 130.34L78.239 126.168L62.1689 91.1465H79.1331L87.4041 107.639L97.0411 130.191Z" fill="#497B62"/>
<path d="M132.038 55.1069L97.0413 130.191L87.4043 107.639L113.409 55.1069H132.038Z" fill="#497B62"/>
</svg>
