<svg width="264" height="286" viewBox="0 0 264 286" fill="none" xmlns="http://www.w3.org/2000/svg">
<g clip-path="url(#clip0_207_78)">
<path d="M192.782 52.243H71.195C69.4016 52.243 67.6756 53.0051 66.4651 54.3501L3.90041 123.752C2.21917 125.635 1.79325 128.325 2.82442 130.611L33.3782 198.758C34.4094 201.067 36.7407 202.546 39.2738 202.501L237.19 199.206C239.969 199.161 242.413 197.301 243.197 194.633L261.893 130.23C262.498 128.123 261.982 125.837 260.503 124.2L197.512 54.3277C196.302 53.0051 194.598 52.243 192.782 52.243Z" fill="#2B5540"/>
<path d="M217.217 212.718H46.4024C42.883 212.718 40.0585 209.871 40.0585 206.374V6.91167C40.0361 3.41468 42.883 0.56778 46.4024 0.56778H217.217C220.736 0.56778 223.561 3.41468 223.561 6.91167V206.352C223.561 209.871 220.714 212.718 217.217 212.718Z" fill="#90AFA1"/>
<path d="M131.989 284.451H7.46474C3.94534 284.451 1.12085 281.604 1.12085 278.107V129.149C1.12085 124.419 6.09733 121.348 10.3341 123.478L132.011 184.496" fill="#3D6652"/>
<path d="M131.989 184.473L253.666 123.455C257.88 121.326 262.879 124.419 262.879 129.127V278.085C262.879 281.604 260.032 284.429 256.535 284.429H131.989" fill="#6C9583"/>
<path d="M6 280.95L89.9501 197" stroke="#2B5540" stroke-width="5" stroke-miterlimit="10" stroke-linecap="round"/>
<path d="M258.879 280.95L174.929 197" stroke="#426958" stroke-width="5" stroke-miterlimit="10" stroke-linecap="round"/>
</g>
<path d="M132.255 38.8998C132.92 38.8998 133.585 38.7336 134.278 38.4106C138.458 36.4347 142.657 34.511 146.851 32.5683C149.378 31.3999 150.85 31.8559 152.266 34.2593C154.702 38.4058 157.167 42.5429 159.561 46.7228C160.345 48.0812 161.414 48.8222 162.938 49.1214C167.769 50.0809 172.59 51.0878 177.411 52.09C179.819 52.5888 180.788 53.8427 180.527 56.2841C180.014 61.1099 179.458 65.931 178.879 70.7473C178.717 72.0867 179.073 73.1792 179.962 74.1909C183.044 77.6962 186.079 81.2396 189.138 84.764C191 86.9061 191.005 88.3263 189.172 90.4542C186.056 94.0783 182.954 97.7119 179.829 101.331C179.035 102.248 178.698 103.236 178.85 104.461C179.43 109.24 179.995 114.023 180.503 118.811C180.793 121.561 179.867 122.762 177.202 123.313C172.414 124.306 167.636 125.327 162.843 126.258C161.38 126.543 160.378 127.237 159.637 128.514C157.234 132.642 154.778 136.741 152.342 140.85C150.836 143.391 149.425 143.833 146.775 142.602C142.547 140.645 138.311 138.703 134.088 136.736C133.471 136.447 132.867 136.304 132.259 136.309" fill="#B5CAC1"/>
<path d="M132.255 136.304C131.671 136.309 131.086 136.451 130.483 136.736C126.232 138.736 121.962 140.688 117.692 142.65C115.155 143.818 113.669 143.358 112.272 140.973C109.84 136.817 107.394 132.671 104.996 128.495C104.278 127.246 103.295 126.567 101.884 126.292C96.9779 125.332 92.0856 124.301 87.1838 123.309C85.8586 123.043 84.6237 122.534 84.2199 121.152C83.9587 120.24 83.9682 119.205 84.0679 118.25C84.5524 113.648 85.1034 109.055 85.6544 104.461C85.7921 103.293 85.5071 102.3 84.7377 101.417C83.3697 99.8447 82.0018 98.2677 80.6671 96.6623C78.4252 93.9597 76.2023 91.238 73.9746 88.5211V86.6972C74.6301 85.8327 75.2476 84.9303 75.9505 84.1086C78.8147 80.7694 81.7025 77.4398 84.5999 74.134C85.4501 73.1603 85.8111 72.1058 85.6544 70.7949C85.0559 65.9026 84.4859 61.0055 83.9825 56.1037C83.745 53.8143 84.7899 52.5556 87.0508 52.0901C91.9146 51.0974 96.7737 50.0762 101.637 49.1215C103.205 48.8175 104.288 48.0385 105.081 46.6421C107.451 42.4528 109.897 38.3062 112.32 34.1454C113.616 31.9177 115.136 31.4237 117.469 32.4924C121.734 34.4541 126.013 36.4015 130.255 38.4154C130.939 38.7384 131.599 38.8999 132.255 38.8999" fill="#6C9583"/>
<path d="M132.217 110.09L124.427 110.161L122.081 110.19L120.927 107.672L111.28 86.6546H121.463L126.436 96.5579L132.217 110.09Z" fill="#497B62"/>
<path d="M153.23 65.0239L132.217 110.09L126.436 96.5579L142.049 65.0239H153.23Z" fill="#497B62"/>
<defs>
<clipPath id="clip0_207_78">
<rect width="264" height="285.004" fill="white" transform="translate(0 0.56778)"/>
</clipPath>
</defs>
</svg>
