<svg width="147" height="289" viewBox="0 0 147 289" fill="none" xmlns="http://www.w3.org/2000/svg">
<path d="M5.19604 266.638L73.5 120.055" stroke="#497B62" stroke-width="10" stroke-miterlimit="10" stroke-linecap="round" stroke-linejoin="round"/>
<path d="M141.974 266.638L73.5007 120.055" stroke="#90AFA1" stroke-width="10" stroke-miterlimit="10" stroke-linecap="round" stroke-linejoin="round"/>
<path d="M73.5007 283.545V121.915" stroke="#497B62" stroke-width="10" stroke-miterlimit="10" stroke-linecap="round" stroke-linejoin="round"/>
<path d="M107.484 113.461C107.484 132.228 92.268 147.444 73.5014 147.444C54.7347 147.444 39.5184 132.228 39.5184 113.461" fill="#497B62"/>
<path d="M73.6797 19.1206C92.4463 19.1206 111.213 19.1206 129.98 19.1206C139.448 19.1206 145.365 25.2071 145.365 34.5059C145.365 56.3158 145.365 78.2949 145.365 100.105C145.365 107.037 141.138 112.785 134.714 114.476C133.361 114.983 131.839 115.152 130.149 115.152C111.213 115.152 92.2773 115.152 73.3415 115.152M73.5106 100.781C91.9391 100.781 107.155 85.7339 107.155 67.3053C107.155 48.8768 92.1082 33.6605 73.6797 33.6605" fill="#90AFA1"/>
<path d="M73.3204 114.937C54.5537 114.937 35.787 114.937 17.0203 114.937C7.55243 114.937 1.63501 108.851 1.63501 99.5519C1.63501 77.9111 1.63501 56.2702 1.63501 34.4603C1.63501 24.9924 7.7215 19.075 17.0203 19.075C35.9561 19.075 54.7228 19.075 73.6585 19.075M73.4894 33.4458C54.8918 33.4458 39.8447 48.493 39.8447 67.0906C39.8447 85.5192 54.8918 100.566 73.3204 100.735M30.2077 43.0828C30.2077 40.5467 28.1789 38.3489 25.4738 38.1798C22.7687 38.1798 20.7398 40.2086 20.5708 42.9137C20.5708 45.6188 22.7687 47.8167 25.3047 47.8167C28.0098 47.8167 30.2077 45.6188 30.2077 43.0828Z" fill="#4B7C63"/>
<path d="M73.3481 0.0144043C79.7728 0.0144043 86.1974 0.0144043 92.622 0.0144043C94.6509 0.0144043 96.3416 1.02882 96.8488 2.88858C98.0323 6.60811 98.8776 10.4967 99.892 14.3853C90.9313 14.3853 82.1397 14.3853 73.3481 14.3853" fill="#90AFA1"/>
<path d="M73.3478 14.3853C64.5562 14.3853 55.7646 14.3853 46.804 14.3853C47.8184 10.4967 48.6637 6.77717 49.8472 3.05765C50.3544 1.02882 52.0451 0.0144043 54.0739 0.0144043C60.4986 0.0144043 66.9232 0.0144043 73.3478 0.0144043" fill="#4B7C63"/>
<path d="M73.5 93.5054C59.0029 93.5054 47.1078 81.6103 47.1078 67.1131C47.1078 52.616 59.0029 40.7209 73.5 40.7209" fill="#4B7C63"/>
<path d="M73.5 40.7209C87.9971 40.7209 99.8922 52.616 99.8922 67.1131C99.8922 81.6103 87.9971 93.5054 73.5 93.5054M80.7486 46.1109C78.3324 46.1109 76.6596 47.5978 76.6596 49.6423C76.6596 51.6867 78.1465 53.1736 80.5627 53.3595C84.4658 53.5453 87.4395 56.5191 87.6254 60.4222C87.8112 62.6525 89.2981 64.3252 91.3426 64.1394C93.3871 64.1394 94.874 62.4666 94.874 60.0504C94.5022 52.616 88.183 46.2968 80.7486 46.1109Z" fill="#90AFA1"/>
</svg>
