<svg width="357" height="378" viewBox="0 0 357 378" fill="none" xmlns="http://www.w3.org/2000/svg">
<path d="M226.688 4.98422L224.997 6.73186H224.972L221.452 7.28507C221.508 7.65597 221.558 8.05201 221.615 8.44177C221.716 9.43503 221.741 10.4974 221.697 11.6227L219.911 48.2791L215.347 142.915C214.895 152.685 208.426 163.755 200.907 167.653L11.6033 267.28C11.4838 267.343 11.3455 267.406 11.2072 267.475L16.8085 274.221L5.20365 269.003C2.73307 267.431 1.15517 264.219 1.01058 259.699C0.985434 259.146 1.01058 258.574 1.02944 257.995L7.38505 126.986L7.39762 126.709C7.6868 119.976 10.8489 112.64 15.2683 107.447C17.2485 105.109 19.4865 103.191 21.8376 101.972L211.129 2.33762C214.417 0.646565 217.346 0.621419 219.572 1.91014L225.77 4.39958L226.688 4.98422Z" fill="#497B62" stroke="#D2ECDF" stroke-width="2" stroke-miterlimit="10"/>
<path d="M230.913 15.8786L229.127 52.535L224.563 147.171C224.111 156.94 217.642 168.011 210.098 171.909L76.0836 241.11L20.8193 271.536C14.6649 274.724 9.72373 272.115 8.35957 265.728C8.14583 264.772 8.0201 263.735 7.99496 262.603C7.96981 262.025 7.99496 261.478 8.01381 260.881L14.3631 129.588C14.8158 119.819 21.3034 108.748 28.8283 104.851L83.0427 76.8636L156.827 36.8754H156.852L218.12 5.22308C223.149 2.63306 227.361 3.90293 229.479 7.92626C230.523 9.94421 231.039 12.6348 230.913 15.8786Z" fill="#497B62" stroke="#D2ECDF" stroke-width="2" stroke-miterlimit="10"/>
<path d="M126.878 60.2673C126.771 62.9265 125.049 65.8748 122.955 66.9812C122.333 67.3081 121.698 67.4527 121.101 67.4276C120.749 67.415 120.384 67.3395 120.057 67.1887C118.944 66.7046 118.077 65.4725 118.159 63.3979C118.266 60.7388 119.988 57.7904 122.081 56.684C122.704 56.3571 123.326 56.1999 123.936 56.2188C124.301 56.2314 124.684 56.3257 125.03 56.4891C125.03 56.4891 125.042 56.4891 125.061 56.4891C126.13 57.0046 126.953 58.2305 126.878 60.2673Z" fill="#497B62" stroke="#D2ECDF" stroke-width="2" stroke-miterlimit="10"/>
<path d="M125.577 60.211C125.489 62.4238 124.043 64.9384 122.358 65.8373C120.655 66.7174 119.354 65.6613 119.435 63.4422C119.448 63.0902 119.492 62.7381 119.567 62.3924C119.85 61.0596 120.542 59.7395 121.434 58.7902C121.818 58.3753 122.226 58.0421 122.667 57.8158C124.358 56.9357 125.665 57.9981 125.577 60.211Z" fill="#D2ECDF"/>
<path d="M355.611 267.802H355.586C355.479 270.493 353.769 273.001 350.362 274.78L160.662 374.609C159.932 374.993 159.134 375.332 158.323 375.603C152.697 377.614 145.153 377.413 138.583 375.263C136.264 374.528 134.07 373.522 132.115 372.29L20.8444 302.328C16.7079 299.7 14.4888 296.532 14.2373 293.527L14.187 293.545L14.6334 282.117L19.1093 284.801C19.2539 284.713 19.3482 284.65 19.4865 284.562L209.187 184.752C216.686 180.785 229.473 181.841 237.74 187.047L349.01 257.027C350.179 257.763 351.185 258.542 352.053 259.36L355.932 256.726L355.611 267.802Z" fill="#497B62" stroke="#D2ECDF" stroke-width="2" stroke-miterlimit="10"/>
<path d="M159.228 352.588L158.323 375.602C152.697 377.614 145.153 377.413 138.583 375.263L139.501 351.814L159.228 352.588Z" fill="#497B62" stroke="#D2ECDF" stroke-width="2" stroke-miterlimit="10"/>
<path d="M350.751 261.094L161.051 360.923C153.551 364.865 140.765 363.834 132.498 358.604L52.3017 308.167L21.2277 288.623C18.4868 286.881 16.582 284.92 15.5322 282.896C13.4325 278.854 14.8218 274.673 19.8258 272.039L209.526 172.21C217.026 168.269 229.812 169.3 238.079 174.53L349.349 244.492C349.846 244.813 350.318 245.127 350.764 245.466C357.679 250.59 357.805 257.385 350.751 261.094Z" fill="#497B62" stroke="#D2ECDF" stroke-width="2" stroke-miterlimit="10"/>
<path d="M21.8499 295.922C21.7745 297.851 22.8557 300.133 24.2702 301.026C25.6846 301.919 26.8916 301.076 26.9671 299.146C27.0425 297.217 25.955 294.935 24.5468 294.042C23.1323 293.155 21.9253 293.992 21.8499 295.922Z" fill="#497B62" stroke="#D2ECDF" stroke-width="2" stroke-miterlimit="10"/>
<path d="M230.938 316.717L271.253 295.526C277.105 292.445 276.615 286.649 270.153 282.576L255.335 272.92C248.879 268.846 238.896 268.041 233.05 271.122L192.735 292.307C186.882 295.387 187.372 301.183 193.835 305.257L208.652 314.913C215.108 318.993 225.085 319.798 230.938 316.717Z" fill="#497B62" stroke="#D2ECDF" stroke-width="2" stroke-miterlimit="10"/>
<path d="M53.7666 249.829L179.722 182.847L185.04 190.158L61.7315 255.399L53.7666 249.829Z" fill="#497B62" stroke="#D2ECDF" stroke-width="2" stroke-miterlimit="10"/>
<path d="M62.3602 255.342L54.7096 249.993L54.3701 250.187L62.3351 255.757L185.04 190.158L184.827 189.869L62.3602 255.342Z" fill="#497B62" stroke="#D2ECDF" stroke-width="2" stroke-miterlimit="10"/>
<path d="M208.652 314.919L270.159 282.575" stroke="#D2ECDF" stroke-width="2" stroke-miterlimit="10"/>
<path d="M240.167 298.316L251.646 305.835" stroke="#D2ECDF" stroke-width="2" stroke-miterlimit="10"/>
<path d="M36.2524 308.243L46.1599 314.492L46.4302 307.658L36.5165 301.41L36.2524 308.243Z" fill="#497B62" stroke="#D2ECDF" stroke-width="2" stroke-miterlimit="10"/>
<path d="M36.397 304.672L46.4302 311.229" stroke="#D2ECDF" stroke-width="2" stroke-miterlimit="10"/>
<path d="M49.0957 316.233L59.0032 322.488L59.2735 315.648L49.3597 309.4L49.0957 316.233Z" fill="#497B62" stroke="#D2ECDF" stroke-width="2" stroke-miterlimit="10"/>
<path d="M49.2466 312.663L59.2735 319.219" stroke="#D2ECDF" stroke-width="2" stroke-miterlimit="10"/>
<path d="M70.0169 330.315C71.029 331.276 72.7578 332.012 73.7699 332.647C75.1906 333.54 76.6114 334.432 78.0321 335.325C81.8417 337.72 85.6576 340.115 89.4672 342.517C99.6512 348.916 109.842 355.31 120.013 361.734C120.742 362.193 121.622 362.671 122.421 362.35C123.364 361.967 123.577 360.747 123.64 359.729C123.71 358.736 123.747 357.648 123.137 356.862C122.842 356.479 122.421 356.215 122.012 355.957C110.294 348.608 98.5825 341.247 86.8709 333.879C83.6962 331.88 80.5152 329.887 77.3406 327.888C75.9701 327.027 72.4371 323.978 70.7461 324.324C70.1803 324.437 69.69 324.845 69.4636 325.373C69.2939 325.769 69.2751 326.21 69.2562 326.643C69.2373 327.09 69.2185 327.542 69.1996 327.989C69.1808 328.41 69.1682 328.837 69.2876 329.24C69.4134 329.623 69.6711 329.981 70.0169 330.315Z" fill="#497B62" stroke="#D2ECDF" stroke-width="2" stroke-miterlimit="10"/>
<path d="M110.489 352.971C110.684 353.153 111.017 353.298 111.206 353.417C111.476 353.587 111.753 353.757 112.023 353.933C112.752 354.392 113.488 354.851 114.217 355.31C116.172 356.535 118.127 357.761 120.076 359C120.214 359.088 120.384 359.182 120.535 359.119C120.717 359.044 120.755 358.811 120.768 358.616C120.78 358.428 120.786 358.214 120.673 358.063C120.617 357.988 120.535 357.937 120.46 357.887C118.209 356.479 115.965 355.064 113.721 353.65C113.111 353.266 112.501 352.883 111.891 352.499C111.627 352.336 110.948 351.751 110.628 351.814C110.521 351.839 110.426 351.915 110.382 352.015C110.351 352.091 110.345 352.179 110.345 352.261C110.338 352.349 110.338 352.43 110.332 352.518C110.326 352.6 110.326 352.682 110.351 352.757C110.37 352.839 110.42 352.908 110.489 352.971Z" fill="#D2ECDF"/>
<mask id="mask0_211_538" style="mask-type:luminance" maskUnits="userSpaceOnUse" x="16" y="14" width="206" height="237">
<path d="M216.385 142.815L16.5444 250.012L21.7622 122.063L221.602 14.8667L216.385 142.815Z" fill="white"/>
</mask>
<g mask="url(#mask0_211_538)">
<path d="M22.29 122.39L221.03 15.7844L215.863 142.488L17.1162 249.094L22.29 122.39Z" fill="#497B62"/>
<path d="M220.452 16.7023L215.335 142.161L17.6949 248.176L22.812 122.717L220.452 16.7023ZM221.602 14.8667L21.7622 122.063L16.5444 250.012L216.385 142.815L221.602 14.8667Z" fill="#D2ECDF"/>
</g>
<mask id="mask1_211_538" style="mask-type:luminance" maskUnits="userSpaceOnUse" x="16" y="14" width="206" height="237">
<path d="M216.385 142.815L16.5444 250.012L21.7622 122.063L221.602 14.8667L216.385 142.815Z" fill="white"/>
</mask>
<g mask="url(#mask1_211_538)">
<path d="M69.9287 136.107L103.624 151.314" stroke="#D2ECDF" stroke-width="10" stroke-miterlimit="10" stroke-linecap="round"/>
<path d="M105.712 116.01L67.3013 171.588" stroke="#D2ECDF" stroke-width="10" stroke-miterlimit="10" stroke-linecap="round"/>
<path d="M144.197 94.3904L179.571 108.925" stroke="#D2ECDF" stroke-width="10" stroke-miterlimit="10" stroke-linecap="round"/>
<path d="M180.52 73.9971L142.695 129.507" stroke="#D2ECDF" stroke-width="10" stroke-miterlimit="10" stroke-linecap="round"/>
<path d="M96.1812 190.888C102.21 179.798 112.073 169.451 121.83 163.957C131.605 158.456 141.085 157.94 146.467 162.655" stroke="#D2ECDF" stroke-width="10" stroke-miterlimit="10" stroke-linecap="round"/>
</g>
<path d="M332.282 257.027L288.314 280.143C287.208 280.727 285.882 280.683 284.813 280.036L259.818 264.904C257.448 263.471 257.549 259.995 260.007 258.7L303.974 235.578C305.08 235 306.407 235.037 307.476 235.685L332.471 250.816C334.841 252.262 334.734 255.739 332.282 257.027Z" fill="#497B62" stroke="#D2ECDF" stroke-width="2" stroke-miterlimit="10"/>
<path d="M179.445 339.707L169.796 344.78C169.148 345.119 168.35 345.031 167.797 344.547L160.46 338.185C159.511 337.362 159.687 335.847 160.8 335.262L170.449 330.189C171.097 329.85 171.895 329.938 172.449 330.422L179.785 336.784C180.728 337.607 180.552 339.122 179.445 339.707Z" fill="#497B62" stroke="#D2ECDF" stroke-width="2" stroke-miterlimit="10"/>
<path d="M194.125 331.056L184.475 336.13C183.827 336.469 183.029 336.381 182.476 335.897L175.139 329.535C174.19 328.712 174.366 327.196 175.479 326.612L185.129 321.539C185.776 321.199 186.575 321.287 187.128 321.771L194.464 328.133C195.407 328.957 195.237 330.472 194.125 331.056Z" fill="#497B62" stroke="#D2ECDF" stroke-width="2" stroke-miterlimit="10"/>
<path d="M132.988 56.6903C132.957 57.539 132.404 58.5008 131.756 58.8466C131.102 59.186 130.606 58.7774 130.637 57.9287C130.643 57.7967 130.662 57.6584 130.687 57.5264C130.794 57.0172 131.058 56.508 131.404 56.1497C131.549 55.9925 131.706 55.8605 131.876 55.7725C132.517 55.4393 133.02 55.8479 132.988 56.6903Z" fill="#D2ECDF"/>
<path d="M114.003 67.1888C113.972 68.0375 113.419 68.9993 112.771 69.3451C112.117 69.6846 111.621 69.2759 111.652 68.4273C111.659 68.2953 111.677 68.157 111.703 68.0249C111.809 67.5157 112.073 67.0065 112.419 66.6482C112.564 66.491 112.721 66.359 112.891 66.271C113.538 65.9316 114.041 66.3402 114.003 67.1888Z" fill="#D2ECDF"/>
<path d="M285.423 228.732L280.739 231.278C279.79 231.793 277.91 231.498 276.534 230.618L270.92 227.016C269.543 226.135 269.197 225.004 270.153 224.488L274.842 221.949C275.792 221.433 277.678 221.735 279.048 222.615L284.656 226.211C286.026 227.085 286.372 228.216 285.423 228.732Z" stroke="#D2ECDF" stroke-width="2" stroke-miterlimit="10"/>
<path d="M255.285 245.095L250.57 247.654C249.615 248.17 247.722 247.88 246.339 246.994L240.694 243.386C239.311 242.505 238.965 241.368 239.921 240.846L244.642 238.287C245.598 237.772 247.49 238.067 248.873 238.947L254.506 242.549C255.895 243.442 256.234 244.574 255.285 245.095Z" stroke="#D2ECDF" stroke-width="2" stroke-miterlimit="10"/>
<path d="M234.748 256.248L230.014 258.819C229.052 259.341 227.154 259.045 225.771 258.159L220.113 254.55C218.724 253.664 218.384 252.526 219.34 252.004L224.08 249.433C225.041 248.912 226.94 249.207 228.323 250.093L233.975 253.702C235.358 254.588 235.703 255.726 234.748 256.248Z" stroke="#D2ECDF" stroke-width="2" stroke-miterlimit="10"/>
<path d="M224.444 261.836L219.698 264.414C218.736 264.936 216.831 264.64 215.448 263.76L209.778 260.145C208.388 259.259 208.043 258.121 209.005 257.599L213.757 255.028C214.719 254.506 216.624 254.802 218.007 255.688L223.671 259.297C225.06 260.177 225.406 261.315 224.444 261.836Z" stroke="#D2ECDF" stroke-width="2" stroke-miterlimit="10"/>
<path d="M214.122 267.444L209.369 270.027C208.407 270.549 206.496 270.26 205.107 269.374L199.43 265.753C198.041 264.866 197.695 263.728 198.657 263.207L203.422 260.629C204.384 260.107 206.295 260.403 207.684 261.289L213.355 264.904C214.738 265.784 215.083 266.922 214.122 267.444Z" stroke="#D2ECDF" stroke-width="2" stroke-miterlimit="10"/>
<path d="M203.73 273.083L146.398 304.213C145.474 304.716 143.657 304.44 142.33 303.603L136.314 299.8C134.988 298.964 134.661 297.876 135.585 297.374L193.018 266.268C193.93 265.771 195.734 266.054 197.048 266.89L203.007 270.681C204.315 271.511 204.642 272.592 203.73 273.083Z" stroke="#D2ECDF" stroke-width="2" stroke-miterlimit="10"/>
<path d="M272.692 220.377L267.996 222.917C267.047 223.432 265.161 223.131 263.784 222.251L258.164 218.648C256.788 217.768 256.442 216.63 257.397 216.121L262.1 213.582C263.049 213.066 264.935 213.368 266.312 214.248L271.925 217.85C273.302 218.73 273.642 219.862 272.692 220.377Z" stroke="#D2ECDF" stroke-width="2" stroke-miterlimit="10"/>
<path d="M262.64 225.821L257.938 228.367C256.983 228.883 255.097 228.587 253.72 227.701L248.087 224.092C246.71 223.206 246.365 222.074 247.32 221.559L252.035 219.013C252.991 218.497 254.877 218.799 256.253 219.679L261.88 223.281C263.244 224.174 263.59 225.306 262.64 225.821Z" stroke="#D2ECDF" stroke-width="2" stroke-miterlimit="10"/>
<path d="M252.557 231.278L247.842 233.83C246.887 234.346 244.994 234.05 243.611 233.164L237.973 229.555C236.589 228.669 236.244 227.537 237.199 227.022L241.92 224.47C242.876 223.954 244.768 224.25 246.151 225.136L251.784 228.744C253.167 229.631 253.513 230.762 252.557 231.278Z" stroke="#D2ECDF" stroke-width="2" stroke-miterlimit="10"/>
<path d="M221.495 248.1L216.749 250.671C215.787 251.193 213.882 250.898 212.499 250.011L206.829 246.397C205.44 245.51 205.094 244.372 206.056 243.851L210.808 241.286C211.77 240.764 213.675 241.066 215.058 241.946L220.722 245.56C222.105 246.441 222.451 247.578 221.495 248.1Z" stroke="#D2ECDF" stroke-width="2" stroke-miterlimit="10"/>
<path d="M211.148 253.702L206.395 256.273C205.434 256.795 203.529 256.499 202.133 255.613L196.456 251.998C195.067 251.112 194.721 249.974 195.683 249.452L200.448 246.881C201.41 246.359 203.321 246.654 204.704 247.541L210.375 251.156C211.764 252.042 212.103 253.18 211.148 253.702Z" stroke="#D2ECDF" stroke-width="2" stroke-miterlimit="10"/>
<path d="M200.776 259.315L196.01 261.893C195.049 262.414 193.138 262.119 191.742 261.233L186.053 257.612C184.657 256.725 184.311 255.581 185.279 255.059L190.051 252.482C191.019 251.96 192.924 252.256 194.319 253.142L200.002 256.763C201.392 257.649 201.737 258.793 200.776 259.315Z" stroke="#D2ECDF" stroke-width="2" stroke-miterlimit="10"/>
<path d="M190.384 264.942L185.612 267.526C184.644 268.047 182.733 267.752 181.338 266.872L175.642 263.251C174.246 262.364 173.901 261.22 174.869 260.698L179.653 258.115C180.621 257.593 182.532 257.888 183.928 258.775L189.617 262.396C191.006 263.276 191.352 264.42 190.384 264.942Z" stroke="#D2ECDF" stroke-width="2" stroke-miterlimit="10"/>
<path d="M179.967 270.581L175.183 273.171C174.215 273.692 172.298 273.403 170.902 272.517L165.194 268.896C163.798 268.009 163.452 266.865 164.421 266.337L169.211 263.747C170.179 263.225 172.096 263.521 173.492 264.407L179.194 268.028C180.589 268.908 180.935 270.053 179.967 270.581Z" stroke="#D2ECDF" stroke-width="2" stroke-miterlimit="10"/>
<path d="M169.532 276.226L164.735 278.822C163.767 279.35 161.843 279.055 160.441 278.169L154.727 274.541C153.325 273.655 152.979 272.504 153.954 271.983L158.757 269.386C159.731 268.865 161.648 269.154 163.044 270.046L168.752 273.674C170.154 274.56 170.506 275.704 169.532 276.226Z" stroke="#D2ECDF" stroke-width="2" stroke-miterlimit="10"/>
<path d="M159.077 281.89L154.274 284.492C153.3 285.021 151.376 284.725 149.975 283.839L144.248 280.211C142.846 279.325 142.5 278.175 143.474 277.647L148.29 275.044C149.264 274.516 151.188 274.811 152.59 275.698L158.304 279.325C159.7 280.218 160.045 281.362 159.077 281.89Z" stroke="#D2ECDF" stroke-width="2" stroke-miterlimit="10"/>
<path d="M148.592 287.567L143.776 290.176C142.802 290.704 140.872 290.414 139.47 289.522L133.737 285.895C132.335 285.008 131.983 283.858 132.963 283.33L137.785 280.727C138.76 280.199 140.689 280.494 142.091 281.381L147.818 285.008C149.22 285.888 149.566 287.039 148.592 287.567Z" stroke="#D2ECDF" stroke-width="2" stroke-miterlimit="10"/>
<path d="M138.093 293.25L133.265 295.865C132.291 296.393 130.354 296.104 128.952 295.211L123.207 291.577C121.798 290.685 121.453 289.541 122.433 289.006L127.268 286.397C128.248 285.869 130.178 286.165 131.58 287.051L137.313 290.685C138.722 291.571 139.067 292.722 138.093 293.25Z" stroke="#D2ECDF" stroke-width="2" stroke-miterlimit="10"/>
<path d="M127.563 298.952L122.729 301.567C121.748 302.095 119.812 301.806 118.404 300.919L112.652 297.286C111.244 296.393 110.898 295.243 111.879 294.714L116.726 292.099C117.706 291.571 119.643 291.86 121.051 292.753L126.797 296.387C128.198 297.267 128.544 298.417 127.563 298.952Z" stroke="#D2ECDF" stroke-width="2" stroke-miterlimit="10"/>
<path d="M117.015 304.66L112.168 307.281C111.187 307.815 109.245 307.52 107.837 306.634L102.072 303C100.658 302.107 100.312 300.957 101.299 300.429L106.152 297.807C107.133 297.279 109.075 297.568 110.483 298.461L116.235 302.095C117.65 302.975 117.996 304.132 117.015 304.66Z" stroke="#D2ECDF" stroke-width="2" stroke-miterlimit="10"/>
<path d="M204.629 226.658L199.876 229.216C198.915 229.732 197.01 229.436 195.62 228.55L189.944 224.929C188.554 224.042 188.209 222.905 189.171 222.383L193.936 219.824C194.898 219.309 196.809 219.604 198.192 220.497L203.862 224.118C205.251 224.998 205.591 226.136 204.629 226.658Z" stroke="#D2ECDF" stroke-width="2" stroke-miterlimit="10"/>
<path d="M194.545 232.083L189.78 234.648C188.818 235.169 186.907 234.868 185.512 233.981L179.829 230.354C178.433 229.468 178.094 228.323 179.056 227.808L183.827 225.243C184.795 224.728 186.7 225.023 188.095 225.909L193.772 229.537C195.161 230.423 195.507 231.567 194.545 232.083Z" stroke="#D2ECDF" stroke-width="2" stroke-miterlimit="10"/>
<path d="M184.437 237.52L179.666 240.091C178.697 240.613 176.786 240.311 175.391 239.425L169.695 235.798C168.3 234.911 167.954 233.767 168.922 233.245L173.706 230.68C174.674 230.159 176.585 230.46 177.981 231.347L183.67 234.974C185.059 235.86 185.405 237.005 184.437 237.52Z" stroke="#D2ECDF" stroke-width="2" stroke-miterlimit="10"/>
<path d="M174.309 242.977L169.525 245.555C168.557 246.076 166.64 245.781 165.244 244.888L159.542 241.261C158.147 240.375 157.801 239.23 158.769 238.709L163.56 236.137C164.528 235.616 166.445 235.917 167.841 236.804L173.536 240.431C174.932 241.311 175.277 242.455 174.309 242.977Z" stroke="#D2ECDF" stroke-width="2" stroke-miterlimit="10"/>
<path d="M164.163 248.44L159.367 251.017C158.398 251.539 156.475 251.244 155.079 250.357L149.365 246.724C147.963 245.831 147.617 244.687 148.592 244.165L153.394 241.588C154.369 241.066 156.286 241.361 157.682 242.254L163.39 245.881C164.785 246.774 165.131 247.912 164.163 248.44Z" stroke="#D2ECDF" stroke-width="2" stroke-miterlimit="10"/>
<path d="M153.991 253.909L149.189 256.493C148.214 257.015 146.291 256.719 144.889 255.833L139.168 252.199C137.766 251.306 137.42 250.162 138.395 249.641L143.204 247.057C144.178 246.535 146.102 246.831 147.504 247.723L153.218 251.357C154.62 252.243 154.966 253.387 153.991 253.909Z" stroke="#D2ECDF" stroke-width="2" stroke-miterlimit="10"/>
<path d="M143.801 259.397L138.986 261.987C138.011 262.509 136.081 262.213 134.68 261.327L128.946 257.693C127.544 256.8 127.199 255.656 128.173 255.128L132.995 252.538C133.969 252.016 135.899 252.312 137.301 253.205L143.028 256.838C144.43 257.725 144.776 258.869 143.801 259.397Z" stroke="#D2ECDF" stroke-width="2" stroke-miterlimit="10"/>
<path d="M133.592 264.892L128.77 267.488C127.796 268.016 125.86 267.721 124.458 266.828L118.718 263.188C117.31 262.295 116.964 261.151 117.945 260.623L122.779 258.027C123.754 257.505 125.69 257.8 127.092 258.687L132.825 262.32C134.221 263.219 134.567 264.37 133.592 264.892Z" stroke="#D2ECDF" stroke-width="2" stroke-miterlimit="10"/>
<path d="M123.358 270.399L118.524 273.001C117.543 273.529 115.613 273.234 114.205 272.341L108.453 268.701C107.045 267.808 106.699 266.658 107.68 266.136L112.52 263.534C113.501 263.006 115.431 263.301 116.839 264.194L122.578 267.834C123.987 268.726 124.332 269.877 123.358 270.399Z" stroke="#D2ECDF" stroke-width="2" stroke-miterlimit="10"/>
<path d="M113.098 275.918L108.251 278.527C107.271 279.055 105.334 278.76 103.92 277.867L98.1616 274.227C96.7534 273.334 96.4013 272.184 97.3883 271.656L102.241 269.053C103.222 268.525 105.158 268.821 106.567 269.713L112.319 273.353C113.733 274.246 114.079 275.39 113.098 275.918Z" stroke="#D2ECDF" stroke-width="2" stroke-miterlimit="10"/>
<path d="M102.826 281.45L97.9731 284.065C96.9924 284.593 95.0499 284.298 93.6354 283.411L87.8644 279.765C86.45 278.873 86.1042 277.722 87.0912 277.194L91.9506 274.585C92.9313 274.057 94.8738 274.353 96.2883 275.245L102.047 278.885C103.461 279.772 103.807 280.922 102.826 281.45Z" stroke="#D2ECDF" stroke-width="2" stroke-miterlimit="10"/>
<path d="M110.043 292.992L105.19 295.607C104.209 296.135 102.267 295.846 100.859 294.954L95.0939 291.314C93.6795 290.421 93.3337 289.271 94.3207 288.743L99.1801 286.127C100.161 285.599 102.103 285.895 103.511 286.781L109.27 290.421C110.678 291.314 111.024 292.464 110.043 292.992Z" stroke="#D2ECDF" stroke-width="2" stroke-miterlimit="10"/>
<path d="M92.5291 286.995L87.6634 289.61C86.6764 290.138 84.7339 289.849 83.3194 288.956L77.5422 285.31C76.1277 284.417 75.782 283.261 76.7689 282.733L81.6409 280.117C82.6279 279.589 84.5704 279.885 85.9849 280.777L91.7559 284.424C93.164 285.31 93.5098 286.467 92.5291 286.995Z" stroke="#D2ECDF" stroke-width="2" stroke-miterlimit="10"/>
<path d="M82.2064 292.546L77.3344 295.167C76.3474 295.702 74.3986 295.406 72.9842 294.513L67.1943 290.867C65.7799 289.975 65.4278 288.818 66.4211 288.29L71.3057 285.668C72.2926 285.14 74.2415 285.43 75.6559 286.328L81.4332 289.975C82.8476 290.861 83.1934 292.018 82.2064 292.546Z" stroke="#D2ECDF" stroke-width="2" stroke-miterlimit="10"/>
<path d="M191.308 218.435L186.543 220.993C185.581 221.509 183.67 221.213 182.275 220.321L176.592 216.693C175.202 215.807 174.857 214.663 175.818 214.147L180.59 211.595C181.558 211.079 183.463 211.381 184.858 212.268L190.535 215.895C191.931 216.781 192.276 217.919 191.308 218.435Z" stroke="#D2ECDF" stroke-width="2" stroke-miterlimit="10"/>
<path d="M181.011 223.96L176.239 226.525C175.271 227.047 173.36 226.745 171.965 225.859L166.269 222.225C164.873 221.339 164.528 220.195 165.496 219.673L170.28 217.114C171.248 216.599 173.159 216.894 174.555 217.787L180.244 221.414C181.633 222.307 181.979 223.445 181.011 223.96Z" stroke="#D2ECDF" stroke-width="2" stroke-miterlimit="10"/>
<path d="M170.695 229.499L165.911 232.063C164.942 232.585 163.025 232.283 161.63 231.397L155.928 227.763C154.532 226.871 154.186 225.733 155.154 225.211L159.945 222.646C160.913 222.124 162.83 222.426 164.226 223.319L169.921 226.952C171.317 227.839 171.663 228.983 170.695 229.499Z" stroke="#D2ECDF" stroke-width="2" stroke-miterlimit="10"/>
<path d="M160.354 235.05L155.557 237.621C154.589 238.143 152.665 237.841 151.27 236.955L145.555 233.321C144.153 232.428 143.808 231.284 144.782 230.769L149.585 228.198C150.559 227.676 152.477 227.977 153.872 228.87L159.58 232.504C160.976 233.39 161.322 234.528 160.354 235.05Z" stroke="#D2ECDF" stroke-width="2" stroke-miterlimit="10"/>
<path d="M149.987 240.613L145.184 243.191C144.21 243.712 142.286 243.417 140.884 242.524L135.164 238.884C133.762 237.992 133.416 236.848 134.39 236.326L139.206 233.748C140.18 233.227 142.104 233.528 143.506 234.415L149.22 238.048C150.616 238.947 150.961 240.091 149.987 240.613Z" stroke="#D2ECDF" stroke-width="2" stroke-miterlimit="10"/>
<path d="M139.602 246.189L134.787 248.773C133.812 249.295 131.882 248.999 130.48 248.107L124.747 244.467C123.345 243.574 122.999 242.43 123.974 241.908L128.796 239.324C129.77 238.803 131.7 239.098 133.102 239.991L138.829 243.631C140.231 244.517 140.576 245.661 139.602 246.189Z" stroke="#D2ECDF" stroke-width="2" stroke-miterlimit="10"/>
<path d="M129.198 251.772L124.37 254.362C123.396 254.883 121.459 254.588 120.058 253.695L114.318 250.055C112.91 249.163 112.564 248.012 113.545 247.491L118.379 244.901C119.36 244.379 121.29 244.674 122.692 245.567L128.425 249.207C129.827 250.099 130.172 251.25 129.198 251.772Z" stroke="#D2ECDF" stroke-width="2" stroke-miterlimit="10"/>
<path d="M118.769 257.366L113.934 259.963C112.954 260.491 111.017 260.189 109.616 259.303L103.863 255.656C102.455 254.764 102.109 253.613 103.09 253.092L107.937 250.495C108.918 249.974 110.854 250.269 112.256 251.162L118.002 254.802C119.397 255.694 119.743 256.845 118.769 257.366Z" stroke="#D2ECDF" stroke-width="2" stroke-miterlimit="10"/>
<path d="M108.314 262.981L103.467 265.583C102.486 266.111 100.55 265.816 99.1358 264.923L93.3774 261.277C91.9692 260.384 91.6172 259.234 92.6041 258.706L97.4573 256.109C98.438 255.581 100.374 255.883 101.789 256.776L107.541 260.422C108.949 261.302 109.295 262.452 108.314 262.981Z" stroke="#D2ECDF" stroke-width="2" stroke-miterlimit="10"/>
<path d="M97.8409 268.601L92.9877 271.209C92.007 271.738 90.0645 271.442 88.6501 270.549L82.8791 266.903C81.4646 266.011 81.1189 264.86 82.1058 264.332L86.9716 261.729C87.9585 261.201 89.8948 261.497 91.3092 262.396L97.0739 266.042C98.4758 266.922 98.8215 268.073 97.8409 268.601Z" stroke="#D2ECDF" stroke-width="2" stroke-miterlimit="10"/>
<path d="M87.3489 274.233L82.4832 276.842C81.4962 277.37 79.5537 277.074 78.1392 276.182L72.362 272.529C70.9475 271.637 70.6018 270.48 71.5888 269.952L76.4608 267.343C77.4477 266.815 79.3903 267.11 80.8047 268.003L86.5757 271.649C87.9838 272.548 88.3296 273.705 87.3489 274.233Z" stroke="#D2ECDF" stroke-width="2" stroke-miterlimit="10"/>
<path d="M76.8252 279.878L71.9469 282.494C70.96 283.022 69.0112 282.726 67.5967 281.834L61.8069 278.181C60.3862 277.288 60.0404 276.132 61.0337 275.604L65.9182 272.989C66.9052 272.46 68.854 272.756 70.2685 273.649L76.052 277.301C77.4665 278.194 77.8122 279.344 76.8252 279.878Z" stroke="#D2ECDF" stroke-width="2" stroke-miterlimit="10"/>
<path d="M66.2894 285.53L61.4048 288.151C60.4178 288.679 58.4627 288.39 57.042 287.491L51.2459 283.839C49.8251 282.946 49.4794 281.789 50.4726 281.255L55.3698 278.634C56.363 278.105 58.3118 278.401 59.7326 279.294L65.5224 282.946C66.9306 283.845 67.2763 285.002 66.2894 285.53Z" stroke="#D2ECDF" stroke-width="2" stroke-miterlimit="10"/>
<path d="M212.908 237.407L208.162 239.972C207.2 240.494 205.295 240.192 203.906 239.306L198.236 235.685C196.846 234.798 196.501 233.66 197.463 233.139L202.221 230.574C203.183 230.058 205.088 230.354 206.477 231.24L212.141 234.861C213.524 235.754 213.87 236.892 212.908 237.407Z" stroke="#D2ECDF" stroke-width="2" stroke-miterlimit="10"/>
<path d="M202.712 242.914L197.953 245.485C196.991 246.007 195.08 245.711 193.691 244.825L188.008 241.204C186.618 240.318 186.273 239.173 187.234 238.658L192 236.093C192.961 235.571 194.873 235.873 196.262 236.759L201.939 240.38C203.328 241.254 203.674 242.392 202.712 242.914Z" stroke="#D2ECDF" stroke-width="2" stroke-miterlimit="10"/>
<path d="M192.496 248.427L187.725 251.005C186.757 251.527 184.846 251.231 183.456 250.345L177.767 246.724C176.371 245.837 176.026 244.693 176.994 244.172L181.772 241.6C182.74 241.079 184.651 241.38 186.04 242.267L191.723 245.888C193.119 246.768 193.464 247.906 192.496 248.427Z" stroke="#D2ECDF" stroke-width="2" stroke-miterlimit="10"/>
<path d="M182.262 253.953L177.484 256.53C176.516 257.052 174.599 256.757 173.203 255.87L167.501 252.243C166.106 251.357 165.76 250.212 166.728 249.691L171.518 247.113C172.487 246.591 174.404 246.887 175.8 247.773L181.495 251.401C182.878 252.287 183.224 253.431 182.262 253.953Z" stroke="#D2ECDF" stroke-width="2" stroke-miterlimit="10"/>
<path d="M172.003 259.491L167.212 262.075C166.244 262.597 164.32 262.301 162.925 261.415L157.217 257.788C155.821 256.901 155.475 255.757 156.444 255.229L161.24 252.645C162.208 252.124 164.132 252.419 165.527 253.306L171.229 256.933C172.625 257.825 172.971 258.97 172.003 259.491Z" stroke="#D2ECDF" stroke-width="2" stroke-miterlimit="10"/>
<path d="M161.724 265.043L156.927 267.633C155.953 268.154 154.036 267.865 152.634 266.973L146.913 263.345C145.511 262.459 145.165 261.309 146.14 260.787L150.949 258.197C151.923 257.675 153.841 257.97 155.243 258.857L160.957 262.484C162.346 263.37 162.692 264.515 161.724 265.043Z" stroke="#D2ECDF" stroke-width="2" stroke-miterlimit="10"/>
<path d="M151.421 270.6L146.611 273.196C145.637 273.724 143.713 273.429 142.311 272.536L136.585 268.902C135.183 268.01 134.837 266.866 135.811 266.337L140.627 263.741C141.601 263.219 143.525 263.515 144.927 264.401L150.647 268.029C152.049 268.927 152.395 270.078 151.421 270.6Z" stroke="#D2ECDF" stroke-width="2" stroke-miterlimit="10"/>
<path d="M141.098 276.176L136.276 278.778C135.302 279.306 133.372 279.011 131.964 278.125L126.224 274.491C124.816 273.598 124.47 272.454 125.451 271.926L130.279 269.323C131.253 268.795 133.183 269.091 134.585 269.984L140.312 273.617C141.727 274.497 142.072 275.648 141.098 276.176Z" stroke="#D2ECDF" stroke-width="2" stroke-miterlimit="10"/>
<path d="M130.751 281.758L125.923 284.367C124.942 284.895 123.012 284.599 121.604 283.713L115.858 280.08C114.45 279.187 114.104 278.036 115.085 277.508L119.925 274.906C120.906 274.378 122.836 274.673 124.244 275.566L129.984 279.199C131.379 280.08 131.731 281.23 130.751 281.758Z" stroke="#D2ECDF" stroke-width="2" stroke-miterlimit="10"/>
<path d="M120.384 287.353L115.544 289.968C114.563 290.496 112.627 290.207 111.218 289.315L105.46 285.675C104.052 284.782 103.706 283.632 104.687 283.103L109.534 280.495C110.514 279.967 112.451 280.262 113.859 281.148L119.605 284.782C121.019 285.675 121.365 286.825 120.384 287.353Z" stroke="#D2ECDF" stroke-width="2" stroke-miterlimit="10"/>
<path d="M99.5824 298.581L94.7229 301.202C93.736 301.736 91.7934 301.441 90.379 300.548L84.6017 296.908C83.1873 296.016 82.8415 294.865 83.8285 294.331L88.6942 291.709C89.6812 291.181 91.6237 291.471 93.0319 292.363L98.7966 296.003C100.224 296.896 100.569 298.052 99.5824 298.581Z" stroke="#D2ECDF" stroke-width="2" stroke-miterlimit="10"/>
<path d="M259.793 212.098L255.09 214.638C254.135 215.153 252.249 214.851 250.872 213.971L245.24 210.363C243.863 209.476 243.517 208.345 244.473 207.829L249.181 205.29C250.137 204.774 252.023 205.076 253.399 205.962L259.026 209.571C260.396 210.457 260.742 211.589 259.793 212.098Z" stroke="#D2ECDF" stroke-width="2" stroke-miterlimit="10"/>
<path d="M249.716 217.542L245.001 220.088C244.045 220.603 242.153 220.302 240.77 219.422L235.131 215.807C233.748 214.92 233.402 213.789 234.364 213.273L239.085 210.734C240.041 210.218 241.933 210.52 243.31 211.406L248.943 215.015C250.326 215.895 250.665 217.026 249.716 217.542Z" stroke="#D2ECDF" stroke-width="2" stroke-miterlimit="10"/>
<path d="M239.613 222.992L234.892 225.545C233.936 226.06 232.038 225.765 230.655 224.878L225.003 221.264C223.62 220.377 223.275 219.239 224.23 218.724L228.964 216.178C229.919 215.662 231.818 215.964 233.201 216.844L238.84 220.459C240.223 221.345 240.569 222.477 239.613 222.992Z" stroke="#D2ECDF" stroke-width="2" stroke-miterlimit="10"/>
<path d="M246.868 203.812L242.153 206.352C241.197 206.867 239.305 206.566 237.928 205.679L232.289 202.064C230.906 201.178 230.561 200.046 231.522 199.531L236.244 196.998C237.199 196.482 239.091 196.784 240.468 197.67L246.101 201.285C247.477 202.165 247.823 203.297 246.868 203.812Z" stroke="#D2ECDF" stroke-width="2" stroke-miterlimit="10"/>
<path d="M236.772 209.25L232.051 211.79C231.095 212.305 229.197 212.004 227.814 211.117L222.168 207.503C220.785 206.616 220.44 205.478 221.401 204.969L226.135 202.429C227.091 201.914 228.989 202.216 230.372 203.102L236.011 206.717C237.382 207.597 237.727 208.735 236.772 209.25Z" stroke="#D2ECDF" stroke-width="2" stroke-miterlimit="10"/>
<path d="M226.65 214.694L221.917 217.24C220.961 217.756 219.056 217.454 217.673 216.568L212.015 212.947C210.632 212.06 210.287 210.922 211.242 210.407L215.982 207.861C216.944 207.345 218.843 207.647 220.226 208.533L225.877 212.148C227.266 213.041 227.606 214.179 226.65 214.694Z" stroke="#D2ECDF" stroke-width="2" stroke-miterlimit="10"/>
<path d="M233.93 195.508L229.209 198.042C228.253 198.557 226.355 198.255 224.972 197.369L219.327 193.748C217.943 192.862 217.598 191.724 218.56 191.215L223.293 188.681C224.249 188.172 226.147 188.474 227.524 189.36L233.163 192.981C234.54 193.867 234.885 194.999 233.93 195.508Z" stroke="#D2ECDF" stroke-width="2" stroke-miterlimit="10"/>
<path d="M243.423 190.416L238.708 192.943C237.752 193.452 235.86 193.15 234.483 192.27L228.844 188.649C227.461 187.763 227.122 186.631 228.077 186.116L232.798 183.589C233.754 183.079 235.646 183.381 237.023 184.268L242.656 187.882C244.032 188.775 244.378 189.907 243.423 190.416Z" stroke="#D2ECDF" stroke-width="2" stroke-miterlimit="10"/>
<path d="M223.809 200.939L219.075 203.479C218.12 203.994 216.215 203.693 214.832 202.806L209.174 199.185C207.791 198.299 207.445 197.161 208.407 196.646L213.147 194.106C214.109 193.59 216.008 193.898 217.391 194.785L223.042 198.406C224.425 199.292 224.765 200.43 223.809 200.939Z" stroke="#D2ECDF" stroke-width="2" stroke-miterlimit="10"/>
<path d="M213.669 206.383L208.929 208.929C207.967 209.445 206.068 209.143 204.679 208.257L199.015 204.629C197.626 203.743 197.28 202.605 198.242 202.09L202.994 199.544C203.956 199.028 205.855 199.33 207.244 200.216L212.902 203.837C214.285 204.73 214.631 205.868 213.669 206.383Z" stroke="#D2ECDF" stroke-width="2" stroke-miterlimit="10"/>
<path d="M220.339 187.537L215.429 190.165C214.518 190.649 212.714 190.366 211.4 189.523L210.469 188.926C209.155 188.084 208.829 187.009 209.74 186.518L214.656 183.891C215.568 183.407 217.366 183.696 218.679 184.538L219.61 185.135C220.917 185.972 221.244 187.053 220.339 187.537Z" stroke="#D2ECDF" stroke-width="2" stroke-miterlimit="10"/>
<path d="M230.573 182.061L225.676 184.683C224.771 185.167 222.967 184.877 221.659 184.041L220.729 183.444C219.415 182.602 219.088 181.527 219.999 181.043L224.903 178.421C225.808 177.937 227.606 178.226 228.92 179.069L229.844 179.666C231.152 180.502 231.478 181.577 230.573 182.061Z" stroke="#D2ECDF" stroke-width="2" stroke-miterlimit="10"/>
<path d="M210.086 193.025L205.163 195.659C204.252 196.149 202.447 195.86 201.127 195.018L200.197 194.42C198.883 193.578 198.556 192.497 199.468 192.013L204.39 189.379C205.302 188.895 207.106 189.178 208.42 190.02L209.35 190.617C210.67 191.46 210.997 192.534 210.086 193.025Z" stroke="#D2ECDF" stroke-width="2" stroke-miterlimit="10"/>
<path d="M199.808 198.519L194.879 201.159C193.967 201.65 192.157 201.361 190.837 200.518L189.906 199.921C188.586 199.079 188.259 197.997 189.177 197.507L194.112 194.873C195.024 194.383 196.834 194.672 198.148 195.514L199.078 196.111C200.392 196.954 200.725 198.035 199.808 198.519Z" stroke="#D2ECDF" stroke-width="2" stroke-miterlimit="10"/>
<path d="M179.194 209.552L174.24 212.198C173.322 212.689 171.505 212.406 170.185 211.557L169.249 210.96C167.928 210.117 167.595 209.03 168.519 208.54L173.473 205.893C174.391 205.403 176.208 205.692 177.528 206.534L178.464 207.131C179.785 207.98 180.112 209.061 179.194 209.552Z" stroke="#D2ECDF" stroke-width="2" stroke-miterlimit="10"/>
<path d="M189.51 204.032L184.569 206.679C183.651 207.169 181.841 206.88 180.52 206.038L179.584 205.44C178.264 204.598 177.937 203.517 178.854 203.026L183.802 200.386C184.72 199.896 186.53 200.185 187.85 201.027L188.781 201.625C190.101 202.461 190.428 203.542 189.51 204.032Z" stroke="#D2ECDF" stroke-width="2" stroke-miterlimit="10"/>
<path d="M238.752 246.346L233.358 249.27C232.585 249.691 231.051 249.452 229.932 248.735L229.863 248.691C228.744 247.975 228.468 247.057 229.241 246.642L234.641 243.719C235.414 243.297 236.948 243.536 238.061 244.253L238.13 244.297C239.249 245.007 239.525 245.925 238.752 246.346Z" stroke="#D2ECDF" stroke-width="2" stroke-miterlimit="10"/>
<path d="M245.359 250.483L239.971 253.406C239.198 253.827 237.664 253.588 236.551 252.871L236.482 252.827C235.363 252.117 235.087 251.193 235.86 250.778L241.254 247.855C242.027 247.434 243.555 247.673 244.674 248.389L244.743 248.433C245.849 249.144 246.132 250.061 245.359 250.483Z" stroke="#D2ECDF" stroke-width="2" stroke-miterlimit="10"/>
<path d="M168.853 215.084L163.893 217.736C162.975 218.227 161.152 217.944 159.832 217.095L158.895 216.498C157.569 215.656 157.242 214.568 158.16 214.078L163.126 211.425C164.044 210.935 165.861 211.217 167.187 212.066L168.124 212.663C169.444 213.512 169.771 214.593 168.853 215.084Z" stroke="#D2ECDF" stroke-width="2" stroke-miterlimit="10"/>
<path d="M158.492 220.629L153.52 223.288C152.596 223.778 150.773 223.495 149.446 222.653L148.51 222.056C147.183 221.213 146.856 220.126 147.774 219.629L152.753 216.97C153.677 216.48 155.494 216.763 156.82 217.611L157.757 218.208C159.083 219.051 159.41 220.138 158.492 220.629Z" stroke="#D2ECDF" stroke-width="2" stroke-miterlimit="10"/>
<path d="M137.697 231.756L132.706 234.428C131.782 234.924 129.952 234.641 128.62 233.793L127.677 233.195C126.344 232.347 126.017 231.259 126.941 230.769L131.939 228.097C132.863 227.6 134.692 227.89 136.025 228.732L136.968 229.329C138.294 230.172 138.621 231.259 137.697 231.756Z" stroke="#D2ECDF" stroke-width="2" stroke-miterlimit="10"/>
<path d="M148.108 226.186L143.123 228.851C142.198 229.348 140.375 229.059 139.043 228.216L138.1 227.619C136.773 226.77 136.44 225.689 137.364 225.192L142.349 222.527C143.273 222.037 145.097 222.319 146.423 223.162L147.36 223.759C148.699 224.608 149.032 225.695 148.108 226.186Z" stroke="#D2ECDF" stroke-width="2" stroke-miterlimit="10"/>
<path d="M127.274 237.338L122.27 240.016C121.34 240.513 119.51 240.23 118.178 239.381L117.235 238.784C115.902 237.935 115.575 236.848 116.499 236.351L121.509 233.673C122.434 233.176 124.269 233.459 125.602 234.308L126.545 234.905C127.871 235.754 128.198 236.841 127.274 237.338Z" stroke="#D2ECDF" stroke-width="2" stroke-miterlimit="10"/>
<path d="M116.82 242.927L111.803 245.611C110.873 246.108 109.037 245.825 107.705 244.976L106.762 244.379C105.423 243.53 105.096 242.443 106.026 241.946L111.043 239.262C111.973 238.765 113.809 239.048 115.141 239.897L116.084 240.494C117.423 241.343 117.75 242.43 116.82 242.927Z" stroke="#D2ECDF" stroke-width="2" stroke-miterlimit="10"/>
<path d="M95.8545 254.148L90.819 256.845C89.8886 257.342 88.0404 257.065 86.7014 256.217L85.7522 255.619C84.4131 254.771 84.08 253.677 85.0166 253.18L90.0584 250.49C90.9888 249.993 92.8307 250.276 94.1697 251.125L95.119 251.722C96.458 252.558 96.7849 253.652 95.8545 254.148Z" stroke="#D2ECDF" stroke-width="2" stroke-miterlimit="10"/>
<path d="M106.347 248.534L101.324 251.225C100.393 251.721 98.5513 251.439 97.2123 250.59L96.2631 249.993C94.9241 249.144 94.5972 248.05 95.5276 247.553L100.557 244.863C101.487 244.366 103.329 244.649 104.662 245.498L105.605 246.095C106.95 246.944 107.277 248.031 106.347 248.534Z" stroke="#D2ECDF" stroke-width="2" stroke-miterlimit="10"/>
<path d="M85.337 259.774L80.289 262.478C79.3523 262.98 77.5041 262.698 76.165 261.849L75.2158 261.245C73.8705 260.397 73.5436 259.303 74.4803 258.8L79.5283 256.103C80.465 255.606 82.3069 255.889 83.6522 256.732L84.6015 257.329C85.9405 258.184 86.2674 259.278 85.337 259.774Z" stroke="#D2ECDF" stroke-width="2" stroke-miterlimit="10"/>
<path d="M74.7949 265.413L69.7406 268.116C68.8039 268.619 66.9557 268.337 65.6103 267.488L64.6611 266.884C63.3158 266.036 62.9889 264.942 63.9256 264.439L68.9862 261.736C69.9229 261.233 71.7711 261.516 73.1164 262.364L74.0656 262.968C75.4047 263.823 75.7315 264.917 74.7949 265.413Z" stroke="#D2ECDF" stroke-width="2" stroke-miterlimit="10"/>
<path d="M53.647 276.729L48.5675 279.445C47.6246 279.948 45.7701 279.665 44.4185 278.816L43.4629 278.213C42.1113 277.364 41.7844 276.264 42.7274 275.761L47.8132 273.045C48.7561 272.542 50.6106 272.825 51.9559 273.674L52.9115 274.277C54.2568 275.132 54.59 276.226 53.647 276.729Z" stroke="#D2ECDF" stroke-width="2" stroke-miterlimit="10"/>
<path d="M64.2334 271.065L59.1665 273.775C58.2298 274.277 56.3753 273.995 55.03 273.146L54.0745 272.542C52.7292 271.694 52.396 270.594 53.339 270.091L58.4121 267.381C59.3488 266.878 61.2033 267.161 62.5486 268.01L63.4979 268.613C64.8432 269.468 65.1701 270.568 64.2334 271.065Z" stroke="#D2ECDF" stroke-width="2" stroke-miterlimit="10"/>
<path d="M43.0418 282.406L37.9498 285.128C37.0068 285.631 35.146 285.354 33.7944 284.499L32.8389 283.896C31.4873 283.047 31.1604 281.947 32.1034 281.444L37.1954 278.722C38.1384 278.219 39.9992 278.502 41.3445 279.351L42.3 279.954C43.6516 280.809 43.9785 281.903 43.0418 282.406Z" stroke="#D2ECDF" stroke-width="2" stroke-miterlimit="10"/>
<path d="M286.498 224.69L269.128 213.544C267.513 212.507 267.11 211.174 268.223 210.57L271.498 208.804C272.617 208.2 274.83 208.552 276.439 209.59L293.79 220.729C295.399 221.766 295.808 223.093 294.695 223.696L291.433 225.469C290.32 226.073 288.107 225.721 286.498 224.69Z" stroke="#D2ECDF" stroke-width="2" stroke-miterlimit="10"/>
<path d="M260.629 208.087L243.209 196.91C241.587 195.873 241.185 194.54 242.304 193.936L245.591 192.17C246.71 191.566 248.936 191.925 250.551 192.962L267.952 204.133C269.568 205.17 269.97 206.503 268.858 207.1L265.582 208.867C264.463 209.476 262.244 209.124 260.629 208.087Z" stroke="#D2ECDF" stroke-width="2" stroke-miterlimit="10"/>
<path d="M274.818 234.49L261.226 241.864C260.044 242.506 257.706 242.141 255.996 241.047L251.558 238.206C249.848 237.112 249.42 235.704 250.602 235.069L264.212 227.695C265.388 227.053 267.727 227.424 269.43 228.518L273.856 231.353C275.566 232.447 275.993 233.849 274.818 234.49Z" stroke="#D2ECDF" stroke-width="2" stroke-miterlimit="10"/>
<path d="M241.814 237.093L227.675 244.75C226.468 245.404 224.079 245.033 222.338 243.92L217.969 241.129C216.228 240.016 215.794 238.589 217.001 237.935L231.164 230.285C232.365 229.637 234.754 230.008 236.489 231.121L240.845 233.906C242.587 235.018 243.021 236.445 241.814 237.093Z" stroke="#D2ECDF" stroke-width="2" stroke-miterlimit="10"/>
<path d="M106.258 310.481L91.7242 318.352C90.4857 319.024 88.0403 318.66 86.2612 317.541L81.7978 314.731C80.0188 313.612 79.5787 312.16 80.8234 311.487L95.3829 303.623C96.6213 302.956 99.0605 303.321 100.833 304.44L105.284 307.25C107.057 308.369 107.497 309.815 106.258 310.481Z" stroke="#D2ECDF" stroke-width="2" stroke-miterlimit="10"/>
<path d="M88.971 304.308L78.1772 310.135C77.0833 310.726 74.9334 310.406 73.3618 309.419L68.1126 306.112C66.5472 305.125 66.1638 303.849 67.2513 303.258L78.064 297.437C79.1579 296.852 81.3078 297.173 82.8732 298.16L88.1098 301.46C89.6751 302.447 90.0586 303.723 88.971 304.308Z" stroke="#D2ECDF" stroke-width="2" stroke-miterlimit="10"/>
<path d="M209.973 214.16L228.266 225.859C229.794 226.833 230.177 228.091 229.115 228.663L218.623 234.327C217.56 234.899 215.461 234.572 213.927 233.591L208.791 230.31C207.257 229.329 206.874 228.072 207.936 227.5L210.036 226.368L199.619 219.711C198.179 218.793 197.827 217.611 198.821 217.077L205.566 213.456C206.565 212.928 208.533 213.236 209.973 214.16Z" stroke="#D2ECDF" stroke-width="2" stroke-miterlimit="10"/>
<path d="M72.0416 298.135L64.787 302.038C63.8504 302.541 62.0021 302.265 60.6631 301.422L54.4018 297.481C53.0565 296.632 52.7296 295.538 53.6663 295.035L60.9335 291.131C61.8701 290.629 63.7184 290.905 65.0574 291.754L71.3124 295.695C72.6451 296.538 72.972 297.632 72.0416 298.135Z" stroke="#D2ECDF" stroke-width="2" stroke-miterlimit="10"/>
<path d="M203.497 211.953L196.438 215.744C195.526 216.234 193.722 215.951 192.408 215.109L186.273 211.192C184.959 210.35 184.632 209.275 185.543 208.785L192.616 205C193.527 204.51 195.331 204.799 196.645 205.635L202.768 209.552C204.076 210.388 204.403 211.463 203.497 211.953Z" stroke="#D2ECDF" stroke-width="2" stroke-miterlimit="10"/>
<path d="M130.122 313.052L125.288 315.68C124.307 316.214 122.371 315.925 120.963 315.032L115.211 311.399C113.802 310.512 113.457 309.356 114.437 308.827L119.284 306.206C120.265 305.678 122.201 305.967 123.609 306.854L129.355 310.481C130.757 311.367 131.103 312.518 130.122 313.052Z" stroke="#D2ECDF" stroke-width="2" stroke-miterlimit="10"/>
<path d="M140.69 307.313L135.862 309.934C134.887 310.462 132.951 310.173 131.549 309.287L125.803 305.659C124.395 304.773 124.049 303.623 125.03 303.088L129.864 300.467C130.845 299.939 132.775 300.228 134.177 301.114L139.916 304.742C141.318 305.634 141.664 306.785 140.69 307.313Z" stroke="#D2ECDF" stroke-width="2" stroke-miterlimit="10"/>
<path d="M119.762 318.678L114.915 321.312C113.934 321.847 111.992 321.558 110.584 320.665L104.819 317.031C103.405 316.139 103.059 314.988 104.046 314.454L108.899 311.826C109.88 311.292 111.822 311.587 113.23 312.474L118.989 316.107C120.397 316.994 120.743 318.144 119.762 318.678Z" stroke="#D2ECDF" stroke-width="2" stroke-miterlimit="10"/>
<path d="M109.376 324.311L104.517 326.945C103.536 327.48 101.594 327.19 100.179 326.304L94.4084 322.67C92.9939 321.778 92.6482 320.627 93.6351 320.093L98.5009 317.459C99.4878 316.925 101.43 317.214 102.839 318.107L108.603 321.74C110.011 322.626 110.357 323.783 109.376 324.311Z" stroke="#D2ECDF" stroke-width="2" stroke-miterlimit="10"/>
<path d="M56.2747 290.855L51.3775 293.482C50.3843 294.017 48.4292 293.721 47.0085 292.829L41.1998 289.17C39.779 288.277 39.427 287.114 40.4265 286.586L45.33 283.958C46.3232 283.424 48.2783 283.719 49.6991 284.618L55.4952 288.271C56.9159 289.164 57.2617 290.32 56.2747 290.855Z" stroke="#D2ECDF" stroke-width="2" stroke-miterlimit="10"/>
<path d="M341.73 265.841V279.086" stroke="#D2ECDF" stroke-width="2" stroke-miterlimit="10"/>
<path d="M338.379 267.601V280.947" stroke="#D2ECDF" stroke-width="2" stroke-miterlimit="10"/>
<path d="M334.187 269.808V283.958" stroke="#D2ECDF" stroke-width="2" stroke-miterlimit="10"/>
<path d="M180.395 350.74V363.57" stroke="#D2ECDF" stroke-width="2" stroke-miterlimit="10"/>
</svg>
