<svg width="1980" height="95" viewBox="0 0 1980 95" fill="none" xmlns="http://www.w3.org/2000/svg">
<path d="M95.4326 94.3558L95.4326 -0.223267L0.0140839 -0.223267L0.0140839 94.3558L95.4326 94.3558Z" fill="#6C9583"/>
<path d="M6.4751 -0.0719503L30.8021 -0.153229C32.0117 35.4368 59.8561 67.9478 94.4136 71.8086L95.4186 94.3877C63.9208 91.7671 34.4627 74.9498 18.3817 45.233C17.6227 43.7588 16.7689 42.2145 16.1048 40.6701C15.4169 39.2896 14.8003 37.8154 14.2073 36.3413C9.29762 24.6886 6.78343 11.9084 6.4751 -0.0719503Z" fill="#497B62"/>
<path d="M183.603 -0.223267C184.67 36.3721 164.296 71.9568 128.909 88.903C124.26 91.0888 119.611 92.8986 114.796 94.3558H95.112L94.6597 72.0508C130.047 68.1962 157.513 38.4874 157.513 2.36215C157.513 1.53952 157.513 0.622868 157.442 -0.199763H183.603V-0.223267Z" fill="#B5CAC1"/>
<path d="M157.513 2.36215C157.513 38.4874 130.047 68.1962 94.6597 72.0508V-0.223267H157.442C157.513 0.622869 157.513 1.51601 157.513 2.36215Z" fill="#497B62"/>
<path d="M190.078 -0.223267V94.3558H114.796C119.611 92.9221 124.26 91.1123 128.909 88.903C164.296 71.9803 184.67 36.3721 183.603 -0.223267H190.078Z" fill="#497B62"/>
<path d="M197.834 -0.0857508C197.834 1.13644 242.523 47.2272 242.523 47.2272L285.995 -0.223267L197.834 -0.0857508Z" fill="#6C9583"/>
<path d="M243.302 80.7223C261.523 80.7223 276.294 66.0848 276.294 48.0286C276.294 29.9723 261.523 15.3348 243.302 15.3348C225.081 15.3348 210.31 29.9723 210.31 48.0286C210.31 66.0848 225.081 80.7223 243.302 80.7223Z" fill="#497B62"/>
<path d="M382.077 94.7789C350.864 94.6849 319.651 94.6144 288.414 94.5204C288.628 62.9313 288.817 31.3658 289.031 -0.223267C294.747 13.7615 306.179 36.4896 328.427 58.3716C348.16 77.7387 368.534 88.7619 382.077 94.7789Z" fill="#B5CAC1"/>
<path d="M478.801 -0.223267H383.524V94.1913H478.801V-0.223267Z" fill="#90AFA1"/>
<path d="M430.889 8.82568C431.103 8.82568 431.293 8.82568 431.506 8.82568C435.467 9.31926 439.143 10.7765 442.938 11.8812C448.915 13.5969 454.869 15.4067 460.822 17.1695C461.486 17.3575 462.15 17.5456 462.79 17.8276C463.905 18.2977 464.522 19.1438 464.593 20.366C464.617 20.6716 464.593 20.9771 464.593 21.2827C464.593 32.2589 464.593 43.2587 464.593 54.2349C464.593 57.3374 463.715 60.2049 462.292 62.9548C459.944 67.5381 456.41 71.1811 452.544 74.4717C446.757 79.4075 440.282 83.3091 433.451 86.6231C432.811 86.9287 432.147 87.1167 431.459 87.2107C431.174 87.2342 430.889 87.3282 430.676 87.0462C430.415 86.5996 430.486 86.106 430.486 85.636C430.486 81.0762 430.486 76.5165 430.486 71.9568C430.486 51.5085 430.486 31.0837 430.486 10.6355C430.51 10.0244 430.32 9.34277 430.889 8.82568Z" fill="#6C9583"/>
<path d="M430.89 8.82568C430.89 34.9384 430.89 61.0275 430.89 87.1402C430.107 87.3752 429.372 87.1167 428.707 86.8111C421.853 83.4971 415.378 79.619 409.543 74.7537C406.223 71.9803 403.187 68.9483 400.839 65.3052C398.443 61.6151 397.115 57.643 397.138 53.2008C397.21 42.4361 397.162 31.6713 397.162 20.9301C397.162 19.9195 397.376 19.0263 398.182 18.3212C398.514 18.0392 398.894 17.8276 399.321 17.7101C407.124 15.4067 414.951 13.0799 422.754 10.753C423.75 10.4709 424.723 10.1889 425.719 9.85985C427.261 9.34277 428.85 9.03722 430.439 8.82568C430.581 8.82568 430.724 8.82568 430.89 8.82568Z" fill="#497B62"/>
<path d="M752.77 91.0888L736.831 91.2299L732.04 91.2769L729.668 86.2L709.958 43.6112H730.759L740.935 63.6599L752.77 91.0888Z" fill="#497B62"/>
<path d="M795.724 -0.223267L752.77 91.0888L740.935 63.6599L772.859 -0.223267H795.724Z" fill="#6C9583"/>
<path d="M940.239 -0.223267C940.145 30.7703 940.052 61.7406 939.981 92.7341C908.071 92.5248 876.138 92.3156 844.228 92.1296C858.376 86.4563 877.822 79.9057 905.154 56.0106C929.38 33.0217 934.139 13.1925 940.239 -0.223267Z" fill="#7B998D"/>
<path d="M571.989 6.09924V31.5773C537.432 32.776 509.183 59.0532 505.436 92.7106H479.725C482.263 62.0382 499.886 33.3636 528.751 17.6866C530.174 16.9345 531.668 16.1353 533.162 15.4537C534.514 14.7956 535.937 14.1845 537.36 13.5969C548.674 8.84918 560.367 6.40479 571.989 6.09924Z" fill="#B5CAC1"/>
<path d="M571.966 6.09923C608.255 5.06506 643.548 24.9022 660.34 59.3587C662.522 63.895 664.301 68.4312 665.748 73.1084V92.7106H643.642C639.824 58.2541 610.366 31.5068 574.527 31.5068C573.697 31.5068 572.796 31.5068 571.99 31.5773V6.09923H571.966Z" fill="#497B62"/>
<path d="M574.527 31.5068C610.365 31.5068 639.823 58.2541 643.642 92.7106H571.989V31.5773C572.796 31.5068 573.697 31.5068 574.527 31.5068Z" fill="#90AFA1"/>
<path d="M571.966 -0.223267H665.748V73.0849C664.325 68.4077 662.522 63.8715 660.34 59.3352C643.548 24.8787 608.255 5.04157 571.966 6.07574V-0.223267Z" fill="#90AFA1"/>
<path d="M665.748 -0.223267H689.964V92.7106H666.056C665.605 86.1765 666.056 79.807 665.748 73.1085V-0.223267Z" fill="#B5CAC1"/>
<path d="M712.662 -0.223267H689.94V93.0631H712.662V-0.223267Z" fill="#497B62"/>
<path d="M819.869 -0.223267H795.724V92.9221H819.869V-0.223267Z" fill="#B5CAC1"/>
<path d="M842.591 -0.223267H819.869V93.2982H842.591V-0.223267Z" fill="#497B62"/>
<path d="M1033.88 -0.223267H940.073V92.7341H1033.88V-0.223267Z" fill="#90AFA1"/>
<path d="M1001.62 60.628C999.63 62.7198 998.515 65.1877 998.491 68.0316C998.468 70.429 997.78 72.4739 996.12 74.1896C995.076 75.4588 993.653 75.9524 992.111 76.0464C990.641 76.1404 989.17 76.0934 987.7 76.0699C987.439 76.0699 987.178 76.0699 986.988 75.8819C986.988 75.8819 986.988 75.8819 986.964 75.8819C986.964 75.8819 986.964 75.8819 986.988 75.8584C986.988 59.1707 986.988 42.4596 986.988 25.7719C991.613 25.7014 995.74 27.1351 999.393 29.8615C1003.61 33.011 1006.29 37.1712 1007.24 42.3185C1008.5 49.2992 1006.56 55.4571 1001.62 60.628Z" fill="#B5CAC1"/>
<path d="M986.964 25.7484C986.964 42.4361 986.964 59.1472 986.964 75.8349C986.964 75.8349 986.964 75.8349 986.941 75.8584C985.636 75.8584 984.332 75.8349 983.027 75.8584C981.058 75.9054 979.28 75.3883 977.809 74.0486C976.291 72.6149 975.508 70.8521 975.508 68.7838C975.532 65.3522 974.299 62.5083 971.879 60.0404C968.654 56.7498 966.875 52.7307 966.472 48.1475C965.879 41.3784 967.99 35.62 973.042 31.0132C976.433 27.9107 980.513 26.195 985.138 25.8424C985.755 25.8189 986.348 25.7014 986.964 25.7484Z" fill="#6C9583"/>
<path opacity="0.59" d="M986.941 75.8584C986.917 75.8819 986.893 75.9054 986.846 75.9524C986.633 76.0699 986.419 76.0699 986.182 76.0699C984.474 76.0229 982.743 76.211 981.035 75.9054C980.134 75.7409 979.304 75.3883 978.521 74.8713C978.189 74.6597 977.952 74.3777 977.786 74.0251C979.256 75.3648 981.035 75.8819 983.004 75.8349C984.332 75.8349 985.636 75.8584 986.941 75.8584Z" fill="#5A7F71"/>
<path d="M986.964 75.8584C988.53 75.8584 990.119 75.8584 991.684 75.8584C993.202 75.8584 994.554 75.3648 995.716 74.4012C995.835 74.3072 995.977 74.2601 996.12 74.2131C996.12 75.6704 996.167 77.1276 996.12 78.6083C996.001 81.9459 993.084 84.8133 989.716 84.9544C988.791 85.0014 987.889 84.9544 986.964 84.9544C986.68 84.6723 986.727 84.3198 986.727 83.9672C986.727 81.6168 986.727 79.2664 986.727 76.8926C986.727 76.5165 986.703 76.1404 986.964 75.8584Z" fill="#497B62"/>
<path d="M986.964 75.8584V84.9074C985.162 84.9544 983.359 85.0719 981.675 84.2257C979.161 82.9565 977.904 80.8647 977.809 78.1148C977.762 76.7515 977.809 75.3883 977.809 74.0486C979.28 75.3883 981.059 75.9054 983.027 75.8584C984.332 75.8349 985.636 75.8584 986.941 75.8584C986.941 75.8584 986.941 75.8584 986.964 75.8584Z" fill="#497B62"/>
<path d="M987.13 7.41547V21.1652H985.233C984.687 21.1652 984.237 20.7186 984.237 20.178V8.40262C984.237 7.86204 984.687 7.41547 985.233 7.41547H987.13Z" fill="#6C9583"/>
<path d="M989.692 8.40262V20.178C989.692 20.7186 989.242 21.1652 988.696 21.1652H987.107V7.41547H988.696C989.242 7.41547 989.692 7.86204 989.692 8.40262Z" fill="#B5CAC1"/>
<path d="M1005.7 29.7675L1003.24 27.3231C1002.86 26.9471 1002.86 26.3125 1003.24 25.9364L1011.66 17.5926C1012.03 17.2165 1012.68 17.2165 1013.05 17.5926L1015.52 20.037C1015.9 20.413 1015.9 21.0476 1015.52 21.4237L1007.1 29.7675C1006.72 30.1671 1006.08 30.1671 1005.7 29.7675Z" fill="#B5CAC1"/>
<path d="M1012.2 47.0898V43.6348C1012.2 43.0942 1012.65 42.6476 1013.2 42.6476H1025.08C1025.63 42.6476 1026.08 43.0942 1026.08 43.6348V47.0898C1026.08 47.6304 1025.63 48.077 1025.08 48.077H1013.2C1012.63 48.077 1012.2 47.6304 1012.2 47.0898Z" fill="#B5CAC1"/>
<path d="M947.853 47.8889V44.4339C947.853 43.8933 948.304 43.4467 948.849 43.4467H960.732C961.278 43.4467 961.728 43.8933 961.728 44.4339V47.8889C961.728 48.4295 961.278 48.8761 960.732 48.8761H948.849C948.304 48.8761 947.853 48.4295 947.853 47.8889Z" fill="#6C9583"/>
<path d="M958.147 20.0605L960.59 17.6161C960.969 17.24 961.61 17.24 961.989 17.6161L970.409 25.9599C970.789 26.336 970.789 26.9706 970.409 27.3466L967.942 29.791C967.563 30.1671 966.923 30.1671 966.543 29.791L958.123 21.4472C957.744 21.0476 957.744 20.4365 958.147 20.0605Z" fill="#6C9583"/>
<path d="M1213.45 91.4766V0L1121.59 0V91.4766L1213.45 91.4766Z" fill="#6C9583"/>
<path d="M1127.82 -0.223264L1151.09 -0.223267C1152.28 34.2097 1180.19 65.9466 1213.44 69.6837V91.6999C1183.11 89.1615 1154.76 71.6042 1139.27 42.8591C1138.54 41.4489 1137.73 39.9447 1137.07 38.4639C1136.4 37.1242 1135.81 35.6905 1135.24 34.2803C1130.55 22.9984 1128.1 11.3406 1127.82 -0.223264Z" fill="#497B62"/>
<path d="M1299.07 -0.223267C1300.09 35.0089 1280.5 69.2773 1246.42 85.5654C1241.94 87.6808 1237.45 89.4201 1232.83 90.8068H1213.45V69.3478C1247.53 65.6343 1273.95 37.0302 1273.95 2.24463C1273.95 1.4455 1273.96 0.575861 1273.88 -0.223267H1299.07Z" fill="#B5CAC1"/>
<path d="M1273.96 2.26813C1273.96 37.0537 1247.51 65.6578 1213.45 69.3714V-0.223267H1273.88C1273.96 0.575861 1273.96 1.4455 1273.96 2.26813Z" fill="#497B62"/>
<path d="M1305.31 -0.223267V90.8068H1232.83C1237.45 89.4201 1241.94 87.6808 1246.42 85.5654C1280.5 69.2538 1300.09 34.9854 1299.07 -0.223267H1305.31Z" fill="#497B62"/>
<path d="M1122.32 -0.223267C1122.32 0.951921 1079.19 44.7629 1079.19 44.7629L1033.85 -0.223267H1122.32Z" fill="#6C9583"/>
<path d="M1078.09 78.009C1095.63 78.009 1109.85 63.9187 1109.85 46.5374C1109.85 29.1562 1095.63 15.0659 1078.09 15.0659C1060.55 15.0659 1046.33 29.1562 1046.33 46.5374C1046.33 63.9187 1060.55 78.009 1078.09 78.009Z" fill="#497B62"/>
<path d="M1347.91 -0.223267V87.3047C1323.53 87.3047 1303.75 67.7026 1303.75 43.5407C1303.75 19.3789 1323.53 -0.223267 1347.91 -0.223267Z" fill="#6C9583"/>
<path d="M1392.08 43.5407C1392.08 67.7026 1372.29 87.3047 1347.91 87.3047V-0.223267C1372.29 -0.223267 1392.08 19.3789 1392.08 43.5407Z" fill="#B5CAC1"/>
<path d="M1351.8 48.9466L1345.78 51.626L1343.98 52.4486L1342.22 50.8974L1327.61 37.9938L1335.48 34.5623L1342.72 40.5087L1351.8 48.9466Z" fill="#497B62"/>
<path d="M1351.97 8.30859L1351.8 48.9466L1343.79 41.5194L1344.09 11.035L1351.97 8.30859Z" fill="#497B62"/>
<path d="M1483.39 -0.223267H1507.6V92.17H1483.84C1483.39 85.674 1483.84 78.8508 1483.39 72.6819V-0.223267Z" fill="#7B998D"/>
<path d="M1530.33 -0.223267H1507.6V92.17H1530.33V-0.223267Z" fill="#497B62"/>
<path d="M1530.08 92.17L1623.32 92.17L1623.32 -0.223259L1530.08 -0.223259L1530.08 92.17Z" fill="#90AFA1"/>
<path d="M1576.98 8.63531C1576.79 8.63531 1576.58 8.63531 1576.39 8.63531C1572.52 9.12889 1568.89 10.5626 1565.19 11.6203C1559.33 13.2891 1553.52 15.0753 1547.69 16.8146C1547.05 17.0027 1546.38 17.1907 1545.77 17.4492C1544.67 17.9193 1544.06 18.7419 1543.99 19.9171C1543.96 20.2227 1543.99 20.5047 1543.99 20.8103C1543.99 31.5515 1543.99 42.3162 1543.99 53.0574C1543.99 56.0894 1544.84 58.9098 1546.24 61.5893C1548.54 66.0785 1551.98 69.6276 1555.8 72.8711C1561.47 77.6894 1567.8 81.5205 1574.49 84.764C1575.11 85.0695 1575.77 85.2576 1576.46 85.3281C1576.72 85.3516 1577 85.4456 1577.22 85.1636C1577.48 84.717 1577.41 84.2469 1577.41 83.7768C1577.41 79.3111 1577.41 74.8454 1577.41 70.3797C1577.41 50.378 1577.41 30.3763 1577.41 10.3746C1577.36 9.787 1577.52 9.12889 1576.98 8.63531Z" fill="#6C9583"/>
<path d="M1576.98 8.63531C1576.98 34.1839 1576.98 59.7325 1576.98 85.2811C1577.74 85.5161 1578.47 85.2576 1579.11 84.952C1585.83 81.7085 1592.16 77.9244 1597.88 73.1531C1601.12 70.4502 1604.09 67.4652 1606.41 63.9162C1608.76 60.3201 1610.07 56.4184 1610.02 52.0703C1609.95 41.5406 1610 31.0109 1610 20.4812C1610 19.4941 1609.81 18.6009 1609 17.9428C1608.67 17.6608 1608.29 17.4727 1607.88 17.3552C1600.25 15.0988 1592.59 12.819 1584.95 10.5391C1583.98 10.2571 1583 9.99853 1582.06 9.66948C1580.56 9.1759 1579 8.87035 1577.43 8.65882C1577.29 8.63531 1577.15 8.63531 1576.98 8.63531Z" fill="#497B62"/>
<path d="M1892.81 89.5376L1877.16 89.6786L1872.44 89.7256L1870.11 84.7193L1850.71 42.8591H1871.18L1881.19 62.5788L1892.81 89.5376Z" fill="#497B62"/>
<path d="M1935.03 -0.223267L1892.81 89.5376L1881.19 62.5788L1912.57 -0.223267H1935.03Z" fill="#6C9583"/>
<path d="M1713.95 5.98175V31.0368C1679.99 32.2119 1652.19 58.0661 1648.51 91.1359H1623.23C1625.74 60.9805 1643.06 32.776 1671.43 17.3811C1672.82 16.6525 1674.3 15.8533 1675.77 15.1952C1677.09 14.5371 1678.49 13.9495 1679.89 13.3619C1691.02 8.68468 1702.52 6.2638 1713.95 5.98175Z" fill="#B5CAC1"/>
<path d="M1713.95 5.98174C1749.62 4.94758 1784.32 24.4557 1800.83 58.3481C1802.97 62.8138 1804.75 67.256 1806.15 71.8628V91.1358H1784.4C1780.65 57.2434 1751.66 30.9662 1716.44 30.9662C1715.64 30.9662 1714.76 30.9662 1713.93 31.0367V5.98174H1713.95Z" fill="#497B62"/>
<path d="M1716.44 30.9662C1751.66 30.9662 1780.62 57.2669 1784.4 91.1358H1713.95V31.0367C1714.76 30.9662 1715.64 30.9662 1716.44 30.9662Z" fill="#90AFA1"/>
<path d="M1713.95 -0.223267H1806.14V71.8628C1804.75 67.256 1802.97 62.8138 1800.83 58.3481C1784.32 24.4557 1749.6 4.97106 1713.95 5.98173V-0.223267Z" fill="#90AFA1"/>
<path d="M1806.15 -0.223267H1829.96V91.1358H1806.45C1806 84.7193 1806.45 78.4438 1806.15 71.8628V-0.223267Z" fill="#B5CAC1"/>
<path d="M1852.25 -0.223267H1829.93V91.1358H1852.25V-0.223267Z" fill="#497B62"/>
<path d="M1957.66 -0.223267H1933.94V91.3474H1957.66V-0.223267Z" fill="#B5CAC1"/>
<path d="M1979.98 -0.223267H1957.66V91.7234H1979.98V-0.223267Z" fill="#497B62"/>
<path d="M1478.23 -0.19989C1479.27 35.5193 1459.4 70.304 1424.81 86.8437C1420.26 88.9929 1415.71 90.745 1411.02 92.17H1391.36V70.3975C1425.92 66.6363 1452.75 37.6218 1452.75 2.32311C1452.75 1.50547 1452.75 0.61775 1452.68 -0.176529H1478.23V-0.19989Z" fill="#B5CAC1"/>
<path d="M1452.75 2.29975C1452.75 37.5984 1425.92 66.5896 1391.36 70.3741V-0.19989H1452.68C1452.75 0.617749 1452.75 1.50547 1452.75 2.29975Z" fill="#90AFA1"/>
<path d="M1484.55 -0.199905V92.1467H1411.02C1415.71 90.745 1420.26 88.9695 1424.81 86.8203C1459.37 70.2806 1479.27 35.5193 1478.23 -0.223267H1484.55V-0.199905Z" fill="#90AFA1"/>
</svg>
